<mxfile host="Electron" agent="Mozilla/5.0 (Windows NT 10.0; Win64; x64) AppleWebKit/537.36 (KHTML, like Gecko) draw.io/25.0.2 Chrome/128.0.6613.186 Electron/32.2.5 Safari/537.36" border="50" scale="3" compressed="false" locked="false" version="25.0.2" pages="2">
  <diagram name="Code" id="YmL12bMKpDGza6XwsDPr">
    <mxGraphModel dx="2015" dy="-192" grid="0" gridSize="10" guides="1" tooltips="1" connect="1" arrows="1" fold="1" page="0" pageScale="1" pageWidth="827" pageHeight="1169" background="none" math="1" shadow="0">
      <root>
        <mxCell id="X5NqExCQtvZxIxQ7pmgY-0" />
        <mxCell id="1" parent="X5NqExCQtvZxIxQ7pmgY-0" />
        <mxCell id="pSm_UvFW4RfGEMAmbR3N-1" value="" style="shape=image;verticalLabelPosition=bottom;labelBackgroundColor=default;verticalAlign=top;aspect=fixed;imageAspect=0;image=data:image/png,iVBORw0KGgoAAAANSUhEUgAABRsAAALhCAYAAADfFXNBAAAAAXNSR0IArs4c6QAAAARnQU1BAACxjwv8YQUAAAAJcEhZcwAAEnQAABJ0Ad5mH3gAAP89SURBVHhe7P19cNRVnv/9v+bSFSVJEyIhQYEk0DoCCgREhhtRbFILV5zlC8RRQUe/1wVGSpxanVUZRMofIoPjqFsjFka4vjM6giIJrDuyYSr0IN4xoBBABVc7IRGQQBCSToLASs3vj/58uj99ujvpJB1uwvNR1VX2Oac/d92kal7zPuf8JCsr6x8CAAAAAAAAgHb6v8wGAAAAAAAAAGgLwkYAAAAAAAAACUHYCAAAAAAAACAhfpKwNRvTH9WKqUPUVdVaX7RAK81+tFlu0T7d7pbqtizWy/OXm93nVvB7t53QzrWz9bvasFHnrfun3a3JWVJl2Vv69edmbwfIGKQ3ZwxWkvbr3Rc/0p/M/g7RRy88Olb9zuo5AQAAAADAxYjKRknSXVpc+LpWjBlldqA5dtB4oFTTi+6zXhdO0AgAAAAAAIDESlzYWPuiZhbdp+lUNSZceWGOnvHknHdVjWOuvUZddUI7t71tdl0wKo/5Jfl1/IjZ00EOf6l7XnxLU85qhWG9jvsl+Y+r0uwCAAAAAABIoMSFjbhI1eoglYwAAAAAAABIyJqN5pp9Dbv0yqoX9bFjyIz815WvUr1Sd4seur6rdKBU07ddFfxc1Qf3ad5e+1jX6Ou1s3XwpteV3zv2MSPOG7FW5Cg9Pv1BDa0PP5cknfjiVc38eIvGjFkWuJ4Y7HGtM0uT1s7Tjd1CLeFrLS7Rvd47lS2/PlsyRKVl9qjIdnutRltVcY7+vCz03skcG3V9x7yVenjuaKUGG3x6z5On8rBB8Qs8v9qYa3SG+kt19fQHNTTF6ojyfc7Id3zf5rMP/i42K3XqJGVb60IGfyNRjpcwN4zVurw+jobwdQ/Hjc/XI7kuqfojTSnZHxwV0R5cq9Hi362XVnypD4KfcDDHxlhr0V5v0tZUvl73bPI7h7TKfb8v0b/kNGnHH36pZzebvQAAAAAAAC1rf9joMCP/deV3iwx+Au0ndKJ+s2ZWDtSqcek60SB9XfaGlGcFguvfDg8QD1htukuLCycpO/jeDrG6hkLKYFjl3JzEChtTFL5pyYCFWjUuK+yz9jl6tilcDJdbtEuZxY4QcXaZnipwh4d/dujnW61nCudan9un291mAGmxxtdFDRutkLL+Ey2fOkM1jvHO49ttMq+jYL9etsfEw3p+MUX5nhQWHprfp/XeGRg614IM/i6ukRy/mWt1Ql3rN2u69XvqkE1pMgbpzbF+3RMMEV2aPzNfw13h4V8g9PNr+8r1WnTYERYaAaTt/ml3a3L36GGjHVI6N6yJOH6wzbyOfPX+KDSmde7T70v+RTmSmj77d/3ytx+aAwAAAAAAAFp09qZRp0hfB9f26ypVvxEKh7pdpTGOoc7ASnpb6784IfUeqBmSpLuUf31XnfjiVUdYKK1cX6oqddXQm+4KNUpWxaMjiNq7R1WSeqZ1zGYw5YVGWLjsHX1WL6UOvFWZdlvZDL1c7JPcd+re2YFA8na3VOUMKeOUuWiSsuXTe3bQqMDx12zxS+5JmpRntbl7KlV++TY7qh3LZrQuaJSkvQuCm8G88sUJ6/nam8Pc5/jeQqo+uM8R4r6tLw+EvvMxY25Rtqq13hlQ176oP35xQup9ix5Ptxu7qmv95uD32DWlVuuD5+qq1B72uAQ6/KUjaJQkvxZt3S+pj264IdT6p5L12u53afjPB2mcXJr/88FK8u/WS1GCxub10eRcl5rK14ftjP2nko9UKZeGj7UrLF3q3V1SdXVYteOfStoaNErS6/p8nyQ16b8/IWgEAAAAAABtc/bCxoZv9LGj8uzIsdgVhFWV4YHVx8dqJaXr6nRJAwYqO+rnw0OsoIY6VTnf623NK3KGXx1tuWqiVdwty9N7Pim7YJ+eKnBLvtVRqhZbMku5A11S/REdMnpqNn+hOrnUw55a7TuiOrl049xdoQDyrDihuqPhLSvX36fpq17UxxqlMVldo3xH0sdff6MTRogY9ruI8pmz4shxNZlt8mvRX3aryTVYjzyar+Euv7b/JbJqsUU3ZKmfpMNHzanQ+/V5taTuLo2TJPl14LikrLFaN805xbt9Xv+3aZo2jSnUAAAAAACg7c5e2JhQkQFWUEqqss22sylvpR727tNTjpdzLUWn8sLVVmDm03utrTB0qt0fqmo0pF49K/AfZTP0sme1quTSjXPtaytTrvmBc6H+u5jrLXZUBWq87p92t9Y96niFraXocPhLvVYeCAmbyj9sR4VhMztju7qrn/Wffyp5Sy+V+wOBo3Vtb453GR8AAAAAAAA4uy7QsLEZ56riTcZaiZ6c4Os9nzlQ1kYydyq73qeqerduX7syNM06geoOOjeJmas/29dV7JPk1u3nS+AYQ2QF69kTWivxLU150Xqt3B2lsjGwkcwjuS5VVu9XUm6+XnBMs04Y/3FVOt5+sGm9dV3rtd0vJeXmEzgCAAAAAIBz6oIIG2f0ywpNw967R1XqqmuvNSve7tKg3tKJ6i0xq+Riq1Zdg9Q1tZmNT+KQecv1SpVfnxW3XKWYuWiObuzm12fL8vTnMp/UbbTuWGRVIcZtucr3+CX38IjAMHAtPn0Ra2r2sjwrcOypzLM6rdppiz6udq7HGTLm2mvUVdX60rEu59nVRzdkSareHUeVYh+9kNdHqv5Ivy7Zre1+qV/eWN1vDmvJ59WqlEvXDTQDw8C1NFXsjzE1269FK6zAMc2xDXor3fybN1RSUqI3fnOz2QUAAAAAABCX8z9sHLBQ+b2lqnJ7A5HAhjFdr/+lY/MQaUb+JGWrWpvatBbjFh2sl7EhSevVHDwiySX3LXZoOEuT1kaZRj27TLNGuVS3ZWlgQxhr/cbUUXNavZ5izfxSVcmt24uWhBrzVuqOUS7VbXlH5VZT5qJdgc1oHHKHuiUdUU0rN6VJpI8/3qwqZSk/37GxT/qj+t/Xd9WJL0q10jn4rKrXcb+krKxQaHjD2CjTqF2aP3Os+mm/3i3ZH1q/UX00udXrKe7Xu+V+JeXerPkZodb7pwWOv3GTvZZjH70wc5C1fqMlo4+uc0lNx+qdra1ws8ZdG7izpBsn6z6zGwAAAAAAIA4/ycrK+ofZ2BpjxizTQ9d3NZslSSe+eFUzP96iGfmvK7/bLr2y6kV9PGChVo3LUtUH92ne3lF6fPqDGiqrL/1RrZg6ROFHO6Gdax27SVsizttgHSPYYBw7NDIGa3xKqMW+/tbIXLRLs0aFKtOqinP0xdB9uj39Ey2fOkM19lRr+fSeJy8YBkpLdK/3TmXLr8+WDFFpmf0+mlifDakqzonYcCa3yAg+661rcjS1RuA7qNX6ogVRQ8FAv6J+f+Hu0uLCSeHX/8F9od3Grd/FkWi/mbDfk+MACdFHLzw6NrhOovy79dJfpAdmDNbhsrf068/tqdZSU/l63RMMA6Vx4/P1SK5Lqv5IU0r2h95HEfOzNv9uvbTC2HAmY5DeNILPSuua2uz+36vk5zmSmrTjD2wUAwAAAAAAWq/dYWNChYVKZieAjnWffl/yL8rx79C//+9n9aHZDQAAAAAA0ILzfxo1gLPi5t94lCNp32aCRgAAAAAA0DaEjcDF7v7fq6SkRP964xH957Rp+rc/mQMAAAAAAADiwzRqAAAAAAAAAAlxfoWNAAAAAAAAAC5YTKMGAAAAAAAAkBCEjQAAAAAAAAASol3TqF/69xclSfN+86TZBQAAAAAAAOAiQ2UjAAAAAAAAgIRISGXjI//6qNkFAAAAAAAA4CJDZSMAAAAAAACAhCBsBAAAAAAAAJAQhI0AAAAAAAAAEoKwEQAAAAAAAEBCEDYCAAAAAAAASAjCRgAAAAAAAAAJQdgIAAAAAAAAICEIGwEAAAAAAAAkBGEjAAAAAAAAgIQgbAQAAAAAAACQEISNAAAAAAAAABKCsBEAAAAAAABAQhA2AgAAAAAAAEgIwkYAAAAAAAAACUHYCAAAAAAAACAhCBsBAAAAAAAAJARhIwAAAAAAAICEIGwEAAAAAAAAkBCEjQAAAAAAAAAS4idZWVn/MBvj9dK/vyhJmvebJ80uAAAAAAAAABcZKhsBAAAAAAAAJES7KhsBAAAAAAAAwEZlIwAAAAAAAICEIGwEAAAAAAAAkBCEjQAAAAAAAAASgrCxtaZv1NA3qjT0lVW6zOxD58R3fp44o1XvVGv302fMDoeZWjalVGVTSlV200yzEwAAAAAAdLBOHzZe9shuDX1jo5LNjgvEhX79uAjlTde73udVNNvsaJ/nXjmg0a5UlT59idllGa9nJ0yT+2CJ8tZNUt62FeYAAAAAAADQwTp92JhwqyZo5y+ztfOh6Tpt9qFz4js/52Y9Xas7+3fVJ8930xNmpy1lvAamNGnbXkJGAAAAAADOFcJGAOe5U7rzZyfk/3uapnvNPoeUNCqAAQAAAAA4x36SlZX1D7OxTYYt1cj8/qH3lSXaujK8wqjLxGINHZEUajDH9FqoQTMH6uiKAv1wW6kG9LPa6z7VzpcX6FRopKTn1PuNO9Uj+N6vA0WDdfTjaH0mn3y/nKBGs7k50zdq6ER36P23q7VzvlFjNWaVrim8XseLBuvkpCq5+1rtDZ9oT0RVnHmN7bn+WerxypPqnRIa0VT+rL55aXnwffKiKrm1WjtL++iawtGyv4WjG7J1YFVwmMU8nvPaWjPm3Ehe5Hj2ivyu7P6oz8jZHs93bslctEuzRrlCDb7VeqZwrnOIJI+KvBMVOmKDti5ZqHllYYNawTxetdZ4lupV++3sOfIWpGnrkoX6tuB53REcaIwLjs0KvfdtkKfQTPbcWry2UCO7hVoatxRp8nyfJOnBIuc5IvmKH1PhMkdDXOcMVDU++bPLtHpiM1WNknTVUpWNzNS2jQV6ssHsBAAAAAAAZ0NCwkbXjEAweHj9JFXtsBqHLVW25ljvxyvj4ceVnVqhvc/MkV+SNFPZT01ThjNI7LVQg2aOULKkxk9/py83bAqNCwsmrTAuLPx5Tr1f6aMjRqh32SO7NTD3SOvDxZiskO14lOBpzKpgkBcKsmJca7S2Nl5/8qLdurzUEfRZIZkzTAsFcKGgMnBshYeE9j2EBaSz1GPRePnn2+8jrz/qsc6Byx7ZrZ6HB4cCVPt+wp61HZQ6Qtsozyykme9cszRp7Tzd2M2n9zx5KpckLdG93juVXf+Jlk+doRopFAyGBWoeFa3N0DtTVykyYmuBHdSZxyuSCu33zjAvOM4KDFWuxdZ5PYsWaN4oOYLPaNcqPVi0QH2LHeGodXxn4ChZazbOzVWNGS46xHvOwKYwBzS6NlPZD3VxtEdB2AgAAAAAwDnX/mnUvRaqjxk0StIOO2iUNGyaslObVLXCDholaYWq1ldIqSPUa1iwMaCyxAoaA+OOVUpK66tg1DCmj66QdHSPM/h5QgciqgfPkW9XOwKrJ1T3raTufUI7GSf4+hvnGwHfqtU60CAluccbuyf7daAoFFqe3vaFmuTS5Y7isuRJZtAoSct1NBg0Spc9Mkk95JPPEbydfullHWhwqfek54Jt8QhsgFMV47VbPcaYn2je6ZccQaMkfTxdh76V1He4Y4rtch19aLWOyi33oucC4elEt/G9xWn2L3RjN78+W2IHjZI0V38u9kndRivP3iQlL0OZknw7nUGaV4VtCRrl1uI8M2hU4HhRKgMbtxQ5xvnk3dMgdUvTNZIkj34xKkWNW1Y5Kiy9KiyultxjtDjPbpNeLTSqMJdt0NZ6KXngTfI4mlsW/znlOanrXZJvVwtBIwAAAAAAOC+0O2zsMmSgklWhY86g0eAa0F9SjX44ZHTs2KnDkpJ6jg9rPtzSBg8f79cPknpMrFLv6WbnuRceIkbR4de/XCePm22SGr6Qv9mqw+eU2ldq8m1qJvScJZfbJX273ai0tM7pDFXjcPqlwYHNV6K+ElMlefr7UMQd8oQObPBJfe/U0DfujAhP45U71C3piGrMqdDLtqtKUurVswLvyw6rRpK7IAG7NOfdpEHdzOAytpqDjqpDSd75C+Wxp1HPHiC3GvTl5vAx8h1To1J0ZTPToiWfvq012+LQmnP2/1EuddWRCkdbDIW9+0sNe+SlqhEAAAAAgHOm/WHjlUlS3TFjPcUomhmTfKVjrce4PKEDv3xWBxoCgV1bq+DOnQRf/5hVusaoCgxbszBeVsXlD4ebq+5z6/IUWSFdAs6ZcM+pt3FdA3Mdayk6rZog37eB/zy6IfY09RbVH5GZo9tS0+3ftleFniJtrQ8Ejl7v8/J6F4RX8cXLnaZkNeh7I6trC8/VaZJSNHKufU3Wa25u5GYredP1rnOMt/k1GmNp1TnjUHhTqcqmlGrogUnK27hAfzMHAAAAAACAs6bdYeOp75uk1LTQFOc2aPw+jrKlCMt19CGrAq7oEzXJpd6F7QjszroEXb9zTUJHVaAdorWKVXF5RYZVjReVTycbrM1SIioRs7WzlVPBEzuN2lpLsuET7XFc057yaJWNgXO7+/p19Fu/ekxs7bniU1fr/G37NG/qY/J4HpNnSbkalaKRc9sQOEarAGwj78Fj1kY11nUZr+Cai9Y6jMm+DWH9a9oQeMZ9zjgVbZukvHWTtLN3qcomLNRt5gAAAAAAAHDWtD9sPFIjqb/SzHUXHfx7K6TUgUrtZXQMG6oMNenoLnt9xjb6eLq+sQI75/qDknT68BFJPXV5BwRJCdOO67/spuuVJL8OlLZ+CnCkQJAYudajU9umS8eS0GnU04erh6SjH8cReI5Zpaxcl5rKX9aB+aU6Kpd6T1/V6nsq3+mTul2vXDMwnD1c2fLLtzlGlWjZKk22AseooeHsOYFqv7XTI9dDtKdkD43oab04g0vPLW4lq0Fbi+OYum1dX+bVMQ4a5zklSRWXyq8T6hlH8XPRgQopZaA8jl3ZAQAAAADA2dXusFE7SlRVJ2XkFyvDGSYOW6psO4DcUaKquiRlFyx0VEDOVHZ+f6lygw7HmoMay/SNuuaR8Oo7O3Q7WR3WLFUfCVQNtnLjkg6VwOsPhJEudb/JPt4s9XilrVOal+voxz4pZbQGLnKeb5Z6LAoFcY2ln6gpYsx5oPqImiT1GBi6ruRF0aZRP6fe1o7b1S8tD63fmDJaWcb30qJl7+izepdunL1SmcHGJbq3wC35SlXq2Ln53UXh6Zod4EWbDv3gUCt17uaWxwwy5dU7Wxok90TjmB4VFbUygCxbpVKf5C5ovsIyUI2YokG32Odza/HaWNOoq/V9vZQ8aqIeNLsU/zklSd7L9YVfcg+JtQgDAAAAAAA4n/wkKyvrH2ZjW7hmlGpAP0dDZYm2rnRu9DJeGQ8/ruzUUEvjp79z7Dod2Nl60MwRajJ2tnbNKNWAtE+18+UFwXUfL3tktxEi+eT7ZYx196Zv1NCJzlSkmbExJC+KHeAd3ZAd2AHZmtL8g/3ekryoSu7u4Ts8J/L6zWMd3ZCtuoHh54x2DbGuNzg1O9jg14Eis8rQmrLsbHI+i3PFeFZN5c+qWg9rYO4R65nNUo9XnlTvlMhrtb/jpvJn9c1Ly+P7ziVJszRp7Tzd2C3UX7dlsV6eH17V6Fm0QPNGOcvuqrXG3qjFNHuOvAVZUn25FsfasdoeE2Qcz+r3Fbc8NTny2hRxbnOMr/gxlQ99XnekR7tGj4q8ExX2qzWuwzyeFHlOSZr1dK2e/NllWj2xm5qt371qqcpGZmrbxgI9ySYxAAAAAACcEwkLGwGgY5zSxg01cldkKvuhZlaHJWwEAAAAAOCca/80agDoUF20+u9dpf412viA2efQcCx6ZTAAAAAAADhrCBsBnPeWP52u1RWSe2qtVsValrLhW9UoSTcNmGn2AAAAAACAs4Rp1AAuEGe06p0Dun5Pbw1++hKz0zJTy6ZMC6wVebBEeduc68YCAAAAAICORtgIAAAAAAAAICGYRg0AAAAAAAAgIdoVNubk5Ojyyy83mwEAAAAAAABchNoVNgIAAAAAAACAjbARAAAAAAAAQEIQNgIAAAAAAABIiE4cNi7Rvd59enjRLLMDCdNHLzx6t9Y9Olb3m12S7p92t9bNHKRxZseF7IaxWvdovuZnmB3hOuW9o2NlDNKbj/K7AQAAAABc2Dpx2IgLSXzhXCDcfHO8y+w4a+6/to9UvVuLDps9Tn10Q5ZUufVLfWB2AQAAAAAAdGI/ycrK+ofZGK+cnBwdOnRIJ0+eNLvOA0t0r/dOpW5ZrJfnLzc7z6HY15VbtE+3p3+i5VNnqMYalx02QpJvtZ4pnBvWlFu0T7e7fXrPk6fysJ6O5tL8mfkart16aUVksHb/tLs1uXv0PlN8Y/vohUfHKqN8ve7Z5Dc7O17GIL05Y7AOl72lX39udoaMG5+vR3Lr9e6LH+lPZqd1jCT5tX3l+qih5f3T7tbkLEdD9UeaUrI/dn+Y2MdtTuCaHSGucc5WCd6jbX/0ZxGvOJ5ZfKzfqzOr9kf7zQV+Z/1Cg6KeN95nZn5fTTF/v9Z5YxwHAAAAAIALAZWN57m6LYv1jCcn8Cr2Se479VTREnMYzoJxA7OVpP36vJmgUXJpXH+XVF1thGsuzZ95t9b9XNpYHi1oCrh/2t2arI805cW3Aq+Vu9WUNVbrpvUJjvlTidVnvN6tluSv0getDOPun3a3HsmVtq+Mfc643TBW62YMlsrXW9e1Xtv9fTQ5xlT75sX3zOLTRy88mq/hxx3P9sWPVOkarEecFbUZg/SmHfgFn6tLw2eET52P75kFrn9y1n69a5+zbL+ScvPPaXUuAAAAAAAd6aIIGzMX7dJT3n3Wq0y55oC8lXo42L9PT3l3aVKeOSjauCjHijhfAteNXPaOPquX5B4e9bxxse8hIYGlX4tWvKUpEZVhBnstOuv1wg2R7ZOzJLkG6xHHOHta9bjx+VZboNosKdd+H3iFgpvANOsXbnB+JvaakrKnb8exBqPUR5NzXWoq3918hd4NgzXc5df2j8Ir0+6flq/rKtZryoovVRnWE+5PJW+FV7Ud/lIbqyVlZcW8BynwLCdkSU0V+5v/LkzW5yrLHJV7h7/UPWX7pazBcTwXJ5fmj+wjVX/kqNzza9GKj1SpPprQyoAt3mcWZP+eooWkN2Spn8zvZb/eLfdLru7BKsb7xw5Wkn+3XnJ8B38qWa/tfpeGj7WOG+8zs38LKx1VnZ9/pJfK/UrKHRzl+9yvX79ofP8AAAAAAFxgOn/YOHCOZg38Qss9OXrGs1if1bt1+9qVygwOWKJ7Z0tr7OpBT47e87l041wjcMxbqYfnjpaclYZLjmisEdrlFu3TrFFH9F5wzCfSqHmJCxwlqf6IDpltccq85Xqlqp2BZWu4BuuRGdn6yqoAe6ncr355Vvh3+EvdE1aVt1svOav1rBDzg012ldxHqrSmoTor+swpqf3y7tYj/ausY1mVdVHXgwysrSi5dN3AFoIwK6z6ak/zFXb3X9snanXhn0oirzOR7h87WEnar42tPEf0ak0rNIznuThl9NF1Lqny6/CwbNz4wYGQuH+fKN9BbK19ZoF7aS6Ydal7z/CWfmkuyX/cCjMDv4eIwPaGwYGp19Zx431m0X8LgdBa6qMb7NAdAAAAAIBOpNOHjan6wloDUZKWq7TMJ3UbrbzZ9oi5+nOwP6C8+BPVySX3LY6A0N1TqfLLt9mxzmLZDL3sXD8xb6XGuqWqYsfaiWUztGaLX6mjftHucC9z0Rzd2E2q2/N+2PW2Rs3mL1QnSb7tZ2l9x/D17j7YU6Wmjg5awtbh82vR1v2SK1vjIqr09uvz6sCYuELEc7IxjEu9u8sRiEVhVzW2VHUZRXjYpuB04+sqPtJ2v5SU1i1sfLN6dleS/Dp+JNR0/7RA8GtWEHaEwG9LUaawByoK360OBNF2JWxgLUW/tv/F+r4yXMqQdPho6Lcwbny+1uVJ75btl9RNvTPifWbW93bcH/otWFO0VRYIzTN6tCLIBQAAAADgAtHpw8aIYM53RHWSUq9uptKwbH8gkHPyHVGdolQ8OgSqBn36Yll4e83BI5J6KjPG55qTOmpecDr2rFHSZ0tyIjaWaZWyGXrZkxOxyUyHiajs6ngRlWlHjqspSlWbgusfRm7+EcaeNmtU7JkCFXxmxVv7jBt/s4a7otyTQ1urGiPcMFbrHh2s4yvf0j2b6s3eVgpMaZ9wrBXToNvLrpSNMQ35TyWhNRMDU/f3692Y331gvcVH0nZrSnOb28T5zMaNz9e6Gd218cXmNxcCAAAAAOBC1+nDxghRgkRzjcWnou0CXTZDL3tWq0ou3Tg3+pqNvdJdkty6PexY+/RUgdsxqnWCG8QU+yS5dGNBItZaRGuMG5itJP9uvdtsSBTYGKYt1YWxBHc7DlsD0dCOqkanfnYFX8zwrRV62hV8rZsG3dHun3a31uX1UWWZc+Ma55qfNrtScX3M4FKteGZ2dedLzYWWAAAAAAB0Ehdf2JjXR6mS6g4GqgMzF+3SrFEuVRWH1mx8xrNaVebnpMCUa+fO0HLrdkfgeKjWL8kXWq8x7DVEpWXG4VpjWZ7e80lyT4pZWYmOYG0M00xloRTaDKSl6dhxu2FsIGg0NisxtbeqsfKYX3IN1uSIMKyburukpmOxq/UiWBWkw/MCa3Q6K/gipx6fXePG52tyllRZZl9XYHOjd6ulpNybA5u6HPbrsKR+eZFB6bge3STV68DheJ+ZXweOS8oaG9hd3LmJUpTp2gAAAAAAdBYXXdgYmOrs11GfJM1S7kCXVP+Jyoypzy1almcFjqHp0a2ZLp2a3t9omaXMdEm1+2Oux2ivJdmu6saE7kadOIEAp6U1/ep1vLXrCMbc0COgxd2o27kxTJvcMFbr8voYa09GEW9VY3DX78hdue11DiPWmYx534HpxWG7itsO79dXfkVZ2zLGxivB5x+turANmtmNul+aSzLWk5T9uwtOsbfW8IyoYg1UrdprQcb7zP709f7AmqXGzuTN/R4BAAAAALjQXVxhY95K3THKpbotS60qw+WqqZXU7Xrl2gFh3ko9HGUadeaiXbo3uKlMQO5Qt6QjqrErFpe9o8/qXbpxbvj06nBzVbbFH1GhGNj8xa/PiptZS7Fshj5qZ3XjWd+NOk4fHK2X1EcTmg2d7GqxwbHDQVPGID2QG2t6c0u7UVs7DEeEZwZ7TUczfGqLeIPGVlQ1BndpjrYxz+EvtbE6UM0XDCIzBunNvD5qKv8w8r6tHaclqd+1ZqhnbcaTNdYRRLo0f+ZY9fPv1msR12k//9bvVB1Nc7tRB4I/l4aPdV6zvTN0KPj700e71eQarAccv8P7p+VruGu/3rUrTON9Zp/v1na/S8N/7tgJ3apYrSxjSjUAAAAAoHP6SVZW1j/Mxnjl5OTo0KFDOnnypNl1Xsgt2qfbjeUSq4pz9OewKsZZmrR2nm4MFsv59J5nu6733qnULYvDNmOJOF79J46drkMixkmSb3XYpiz29G3HAL3ncexirSW6N8o1KG+lHp47WqmO40U9nxTlmNE/31Hun3a3Jnc3QrOMQXpzxmAdDk5nDQmuUWiLGri5NH9mvoY7hjWVr7emvPbRC4+OjaiODE2djRTckdixY3ZQM9fqFLjuer3bzJp8EffmFLzPyHsLU/1RaA1B69qSnG2x2GO1P+Y1Bp5D6H3omZpC1xjzudqBqS3q9xhgnzfa+eJ7Zg4tPRPzutTCcYIN0Z9bfM8s8juN+dwAAAAAAOgEOnXYiItNIGzMiBr6tN648fmBjT3MMCpMIEy6riIx5wQAAAAAALiQXVzTqIG4naONYQAAAAAAAC5gVDaiE0lsZSMAAAAAAABah8pGAAAAAAAAAAlBZSMAAAAAAACAhCBsRMIN7pup/1/BeLMZgIPv8DE9tvKvZjMAAAAAABc0wkYAAAAAAAAACdGusBEAAAAAAAAAbGwQAwAAAAAAACAhCBsBAAAAAAAAJARhIwAAAAAAAICESEDYOFPLppSqbEqpym6aaXY6nNGqd6q1++kzZgcAAAAAAACATiCBG8TM1LIp0+Q+WKK8bSvMzoAH6lU1tU6+tVma8JrZCQAAAAAAAOBCloDKRtsKrdnbJLn66jazy/ZaNz37965yT63VKo/ZCQAAAAAAAOBClsCw0ZKSpmvMNoflT6fpE/8JjS5s0iyzEwAAAAAAAMAFK/FhY4su0fSNqZLrqO58wOyz3awn/1iikpLf6z6zCwAAAAAAAMB56RyEjZJeu1w+Se4hp8yegFvG6acuScrRDfebnQAAAAAAAADORwkNG//mrzGbYuii7RWS0n+MPpV68wf6b78k7dPnfzI7AQAAAAAAAJyPEho2quGYGtVfE68bb/ZE8NV2lVw/ym12SJI+1LP/e5qmTfs3vW52AQAAAAAAADgvJThsXKAp6yZpg+txlU0p1bo4QkcAAAAAAAAAnUNiw8aUhVo3pVRDD0xS3rpJmvLVJnMEAAAAAAAAgE4qoWHjbVcPVLIqtPM7syeSO/2E5L9UPrPDct/vS1RSUqLfs0EMAAAAAAAAcEFIaNgYv1Ma3l9S7aVabnZJku7TDTmB/8q55UndbHYDAAAAAAAAOO+cm7DxgZNyq6s+WdvF7LG8rnc/awr8p6u7+pndAAAAAAAAAM475yBsPKNVE+qkCpeme82+kA8/+W81SdK+z9mRGgAAAAAAALgAnPWwcdbTxzTa1VxVY8B9Px+mJDVpx1+IGgEAAAAAAIALQQLDxpm6Y0CSdHCniswu2wP1evJnJ+Rbmx6zqvHm37yhkpIS/cuVO/Tv036pZzebIwAAAAAAAACcj36SlZX1D7OxdWZq2ZRpcktSw6f67cYF+ps5RApMn37ngK7f01uDn77E7AQAAAAAAABwgUtA2AgAAAAAAAAACZ1GDQAAAAAAAOBiRtgIAAAAAAAAICEIGwEAAAAAAAAkBGEjAAAAAAAAgIQgbAQAAAAAAACQEISNAAAAAAAAABKCsBEAAAAAAABAQhA2AgAAAAAAAEgIwkYAAAAAAAAACUHYCAAAAAAAACAhCBsBAAAAAAAAJARhIwAAAAAAAICEIGwEAAAAAAAAkBCEjQAAAAAAAAASgrARAAAAAAAAQEIQNgIAAAAAAABICMJGAAAAAAAAAAlB2AgAAAAAAAAgIQgbAQAAAAAAACQEYSMAAAAAAACAhCBsBAAAAAAAAJAQhI0AAAAAAAAAEoKwEQAAAAAAAEBCEDYCAAAAAAAASAjCRgAAAAAAAAAJQdgIAAAAAAAAICEIGwEAAAAAAAAkBGEjAAAAAAAAgIQgbAQAAAAAAACQEISNAAAAAAAAABKCsBGdRnp6qn71qyl64IF8s6vTm/V0rareadIso/25V6pV9copo/VCdEar3qlW1YbqqPcJAAAAAADOD50+bPQsWiCvd44eNDvOsX79rtITT9ypu+661ewCWueBej35sxPybUzScqPribU95O9fo91PnzF6LizPvXJAo9VDz07MUvYvIu8TAAAAAACcH36SlZX1D7OxM/EsWqB5o45pjWepXjU7z6F+/a7SHXfcrOrqw3r77ffN7qD09FTdffd4paYmq6bmmF57bb055IJlP4MuXS4zu4K+/np/s8/HyX5WJ0+e7lTPqVmeJu1+7Kj0994a/PQlZm/AA/Wqmlon39osTXjN7LwQnNLGDTXSBXv9AAAAAABcPDp9ZeOFrl+/TF1xxWWqrDyk7t2T1a/fVeaQC1Zl5Xd67rnVWrjwz1q48M/6+uv9OnXqtN580xtsizdovFg9N/WoXP4eejlW0ChJr3XT6grJPbVez5l9idZroQY9VarsYWZHO3h+VE+zDQAAAAAAnJcSV9k4bKlG5vcPva8s0daVK5wj1GVisYaOSAo1mGN6LdSgmQN1dEWBfritVAP6We11n2rnywsUvvKcR0XeiXIH3zdo65KFmlcWrc9U3aZKx7y84Ro1aqDZrFOnTmvNmg9VWfmdJOmuu27Vtdf2CfY7q/PMPpNZyXfXXbeqZ8/u2rRpp/7v//sm7djhU1nZ9rDPKEqVoHlNNvP85vkU5T6jVVSa5ztz5ow2btyhrVu/Chs3cuR1mjBhmC65JBCGxbouWdeWlZURs7+lc0arbHR+xrzXlp6Fvfbjrl0VYfewZcueqN/BWWdVNR6Jp+IvngrIBHHNCPzbbfz0d/pywyazu/Vac58AAAAAAOCcuiQ1NfVps7G1XDNKNXRkmg6vn6QvV6/UwQ9W6uA//T/K7vVfqjskSeOV8fAyXdd/v/Y+M0OVH6zUwQ+u0D/9r2n66ZCf6ui2TTojSSnj1XNYtnoOu0dX+H6n8v+zKDDunyfI3ecKHfx8h3VGK0z0bZDnjiK98UaZ3njjUv3i96P0w+rPtU/79N4bZXrjjTIdvHaUbu5TozWeZ/Urq+2NN7bps7A7aJkdwG3Zskd//OMG7d9/VD/9aW81Nv6gP/95ow4erJWsgCozM01vv/2+/uM/PtbJk6d1443X6uqrr9QXX1Tpiy+qtHnz7uDnKyu/0yuv/Kc2b96tzZt364svqoLnTE9P1c9+NkBHjhzX3/62U4MGZat792Rt3/6N48oC15afP1JHj9brxReLtXnzbh06dFyjRw/U7t2VwWPNnDlJmZlpKivbrlWr/qbNm3frmmt6q1u3rjp48KhkBXA33JATHLN//1ENH36NBg3KDp7XDvCOH28Mnu/gwe81evRAffttrU6cOCk5gsaKitA9/vjjGY0Yca127qxw3EHA9ddnKzU1WXv2fKvjxxvC+ux7dD6vq6++UiNHDtBll/2TKisPKSnpct1wQ45+/PGMtm//JnidkvT22+/rww8/Dx6vpe9JkoYPv1aZmWnq0yddq1d/oP/4j4/Vq1eabrghR6dP/0/wmZ0rs+6rV17vJJU9crk2mp2mfZfo5n/xy51+mZrWXCb7X1JHOPX5Sh3tOkV9R4xX77B/t23U7380e8wJNe1N1RvnQcYLAAAAAABia/806l4L1aefdHj9JFU5M4Udc0Lvh01TdmqTqlbMkT84YIWq1ldIqSPUy5xyWVniqIhaoWOVktL6qovdn5ehTEm+nd7QZ+RV4dRVcrYkUk5OpurqGoMhWWXld6quPqyUlCvUr1+mZIVr6endtGOHL1iZt3XrV6qo+E5ZWRmtngJtT6Het69GkrRvX03EVOr09FQNGNA3ovqwsvI7vflmKIIaOrS/UlKuiKg+XLfuo+D7fv2uUlZWhioqvgu2VVZ+px07fEpP76aRI6+TJKWnu3TppZcEr8se99pr61VbWxdsc7kCVazOcVu3fqU//vGvwffxcN6js/LQ692purpGDRjQV+npqRGfuf32kZIUUSnZmu/pzJkzev/9XcFx9r3Y9xafW/X0W+u1fn2M11tPq/XbBJ3R+IEnpIrL9YTZFdUl2rSnq+T6sZmK39i6TCzWyKdKY7yKldErfPypDQXaur5C6jdNIx9eGPq3CwAAAAAAOrV2h41dhgxUsip0rJniJdeA/pJq9MMho2PHTh2WlNRzfFjz4b3h068jlB1WjSR3wfMqmm12Jl56eqouvzz6JiY//nhGtbWBCDUnJ1M//nhGFRXhN/r99w269NJLlJ7uCmtvSU5Opn744bQqKwMBl9/fpEsvvUT9+4eSnX79MpWSckVYoBdNTk6mGhp+CB4rmv79e0WEiLLOK0fAVlvr148/ntGoUQOVlzc8bKyT/bkJE4YFg8q2sO/RPp6ttrZOR44c1xVXXKaUlK7B9ksvvUR33z1eV1xxWUTQqFZ+Ty09s/i8r6fvzld+fozX3U+r9StT/qieLslfe6nZEdPy7y6TdFp9PGZPy05tKNDWZybFeBXosPlvW4H/w2Hrik/VmDpCQ59aqtb9+kNm3XxCLqVqO1OoAQAAAAA477U/bLwySao7ZqynGEUzY5KvdKz1GBevCj1F2lofCBy93ufl9S7Q4jxzXGLU1tZp795vlZqarKFDA9dqVwEeP94YDLNcriR16XKZ7rnHowUL7g2+oq3z2JL09FT17NldJ0+eDlYLVlbWqKHhh7BKPjsANIM4JzssdR4rmiuvTNEll1yif/7nEWHX/8//PCK4XqGsKsb/83/+qrq6Ro0aNVALFtyrJ5+cHhEobt36ld566339+OOZ4DGfeOLOVld42r7/Pnxqtc0MCHv06KbU1GT98MNpNTScCBurBH9PiFd/9ZkY/n8qtGTW07Wq2lCth5Wm7Ind4qzgBAAAAAAA51K7w8ZT3zdJqWntmibZ+H3k+n0t82ne1Mfk8Twmz5JyNSpFI+d2XOB45ZUpkhQM1+65x6PjxxvDpi77/U0Ruynbr2efXRWxeUpz7Gq+zMy0YBg2e/bPlZqaHDZ126w6jKa2tk4nT57W5ZdfFjHd2On77xt05swZ/fWvn0Zc/8KFfw7bFKW2tk5/+MM6LVz4Z/31r59KMSoYKx07Tm/ZskddulymO+64uc2BYzTO6lJZG9r89a+fKiXlCt199/iIe07k9xSfjphGfXa1dhq1ZG0aNXOEkus+1c5nJrV6s5jlT6cre2KWXtYxVW04CztpAwAAAACAdmt/2HikRlJ/pZnrLjr491ZIqQOVagYSw4YqQ006uqt1IUSEslWabAWOVxoL0nkPHpOUpr7tCCHtKsavv94fFkyZOzRHm4YbS0PDCf3ww+mYIaE91dcMxOxgLycnEDbaU5rt97H4/U1hIWU08QSX0Wzd+pU2bgzMo2/us2Vl27Vly564n5HNrug079Gu/nRWl9q2bv1K27b9t1JTkzVlypiwvtZ8T4nREdOoL9URv+RK/9HsiGnWVaclXab9bVjYtLXTqLtMLA7sTl9Zoq0RO8m3zvIPu8qvOg1/wOwBAAAAAADnm3aHjdpRoqo6KSPfqG4atlTZdgC5o0RVdUnKLnBuFDFT2fn9pcoNEUFFi2bP0buLwlNFzy1uJatB3/vCmiXfsUDVY0EbFqqztBQM2nburFBDww+69dYhLVbu2dWGzo1XbM2FaHbw1rNnd6WnpwY3qsnMTNNdd4Xq4/r1u0r33DMh+H7btq/1449nIq5typSxwfNv3fqVamvrddNNP424Jqe8vOFh55Ij/HRO577rrlsj1nS0Q1RnJWJL7GnsmZlpYcfzeIYqJeUK7doVvTK2rGy7vv56f8Szac33dP6yNnzpfzLOij9rQxn/pTL/iSSaa0apho5IUuOnv9PWlS2svwoAAAAAADqVn2RlZf3DbGwL14xSDejnaKgsMYKG8cp4+HFlO2a0Nn76u/Cplb0WatDMEWoydrZ2zSjVgLRPtdNRIeVZtEDzRgWmNgdUa41nqV51tATNniNvQZajoZmxMYwceZ0mTBgWtnahrN2KzR2eH3ggX5mZaWHjzN2iZYWKd989XqmpycG2r7/er337ajRhwjBt2/bfYVOXbXfddav6978q7Lx5ecPD1hw8dep0xOYosc7n3OFZ1vGvvbZPWFtdXaPeemtTcM1Hc0y08ynKszCP43TXXbcqKysj6nEUxz3a93fy5OmwZ21fg/kdmNcm43t64IF8XX75ZWHXa/8OYn03Z5WnSbsfO6oja7M0oaXNU1oztj1i/Btul7N17QAAAAAAoN0SFjZ2ZnbAVFtbHxZW2eFWrF2PgY723CvVurN/qla3sIHKc69U6870Hnr2F0labnae7wgbAQAAAAC4YLR/GvVFwOVK0iWXXKJ9+2rC2u2p0MC58sTaHvKrTne+0syqiA/U687+km/jBRg0SpL3Uh0x2wAAAAAAwHmJsDEOfn+TzpyJ3IQlL2+4MjPToq6tCJwV3iQNXpsq9a/R7qfPmL2BqsCpdfL/vfcFXBUY2AzHPaFJs8wuAAAAAABwXmEadZxirdm4Zcuec792Hy56s56u1ZMDu0ZMk37ulWrdqUxlPxTamunCdEar3jmg0S5J/gt0OjgAAAAAABcBwkYAAAAAAAAACcE0agAAAAAAAAAJ0a6wMScnR5dffrnZDAAAAAAAAOAi1K6wEQAAAAAAAABshI0AAAAAAAAAEoKwEQAAAAAAAEBCEDZeLPJW6mHvPj1lv9auVKY55pyYpUlrHdfl3aVJeeYYIPFuu65YZRMW6jazQ5LURy88erfWPTpW95td6ECB5/7meJfZcRa09J2P17MTSrXuuvFmBwAAAADAgbCxNdIf1YrC17V4gNlxASiboZc9OXrGk6P3fGbnubRcpVMD1/VMcWIuLHPRLj3lLVOu2YF2e7DoeXnXTpfH7GgDz6IF8nrn6EGz42y4aql+MyBJvj0L9DezD21wLkPCs2WTntxToeQBj2vZVWYfAAAAAMBG2IgLh1mdSRXkeefBoufl9UZ7LdDi8+W7SlmodSP7q3Hv7zT7O7PTVq/jfkn+46o0u9BJxfGdfzdHv93bJPfIYj2bYnYCAAAAAETYiAvG7DI9NXe0tGVxoArSk6NnPEul2VQwnk9eLXxMHs9j8ng2yCepcUuR9X6h5pWZo8+NwgEjlNzwqV7+apPZBbTob1+9om0NSbppZKwp+AAAAABwcftJVlbWP8zGeOXk5OjQoUM6efKk2XUeGKXHpz+oofWlmr7tKq2YOkRdrZ4TX7yqmR9viRwbrFQ5oZ1rZ+t3tYF3M/JfV35vx3BD1Qf3ad5ea5r11CE6Yr+3zMh/XfnddumVVS/qY1nBWUFPfbZkiGoK9ul2tz3Sp/c8eSqXJC3Rvd47peIclV29S7NG2dMTnWPaJrdon25P/0TLp85QjdlpTUMOnU+Sb7WeKZzrHBIwu0xPFQQvPvo4c0xz1+94LqVhwdQsTVo7Tzcq9jXbzyvbbA6KPG9ukfPZS3VbFuvl+cuD7wPP4Yje87yjzLXzdGM3q6M+8jrMY0V9Fnkr9fDc0UoNb5XkN+7ZvJfIa49b3nS9OzdXyWa7GrR1iSMAnD1H3oKsULdvgzyF3sB/xzyGpb5ci6eukjXa4lGRd6IytxRp8nzn9PhAu/NRhavWGs9SvRp879bitYUaaT/7qNctrVlyTJPm5ipZ1Vrj2aC+9mec9yGrqnHCCNVsndRMVWN87p92tyY7HpmqP9KUkv2OBlsfvfDoWPULvt+vd1/8SH8KGyONG5+vR3JD/+6aytfrnk3+sDG6YazW5fUJvY96TvN8fm1fuV6LDocNkjIG6c0Zg5UUbIh+Xc0xr9lk3kPE+IjrD1x7hvNzjuusLHtLv/48fGzs5xroV9lbereH87zmuDa4aqnKRvaXL+bv6GY9+cd/1TDXPv3ntH/T62Y3AAAAAHRinT9sTFF4eDhgoVaNywoFhLpLiwsnKftAqaavf1uSNGbMMj10vcICRyl2mNhSf/Sw0YpbgqGUGag5AqeYY9omdthoHb9bZOiZbQRsdrhWVZyjPy+zGmeX6V7lhd7nrdTDBfv1cjB0i3Z8h5bCxlifM4RCwlhjo9yTHQQ6QkJn6BoKIq3PGuPyDg4Jv2/jWHabgseJcU8R4+xnHd+9h7FCQgUDPzu4Cw/0PIsWaN4oOUI8KxA0gzprmvQd6dHCRVOssDEkcN5jRrjoFHkdEdc6e468BWlqrD+m0ql7leudqMz6BmnPKv1B0yOOf9t1xfrNgBoVr5ujorBztc648fmafHR9KPiyAzEzPLPDwbD2PnphmvTr4HuX5s/M13BXeCg4bvxYjdvzkeN9vh7JlWOMFbaZx47WNtOld1d8qQ+sFvt6ZYZ6Y/26JyK8jEeUkDCMfY/OoM+6Vv9uvRS8NuM49nMNGxP9+gPhb5TjyxlqWtch43itNlPLpkyT+2CJ8ratMDulW57UG78apiRJ+/4yTf/WrmQTAAAAAC4sF8E06mqtL3KEhnv3qEpSz7RRkqQxY25Rtqq13goaJenjj9/QzoauGnrTXcG2jlC3ZbGj+m25yvf4pW491cs5qP4TLW9pTKLM/oVu7ObXZ0ucodZc/bnYJ3UbrbzZVlPeSo01g0ZJWuYIGmVtShNW3bdcpWWB0Ot6+1hxCX3udu8+PVW0xBzQKpmLJilbPr3nDFvLZmjNFr/knhSxDmRVcY6j4nGuvvBJSu8T3M27Zr4jaFTgWB/5JLmHB6d4Z95yvVLl00fB40R/FrkFo5Va/4nWOCosywtXq0pujV00KzQwDp5b3EpWtUqDYZ9P88qqJWUpN3hOj34xKkWNW1Y5pjl7VVhcLbnHnNN1Fj2Lxsitaq1xBJ7e+au0tT5FIwucW9SkSHs2BAPFZPn0h+A9p6lv8B7Gy9M7STq4s11BoyR9sMkRNErS4S+1sVpSVpZjJ2OX5o80g0ZJ2u8IGiXdMDgiaJSkDzaFgkapjybnutRU/qGjbb9+XbZfyhqs+RlWU4ZLGZIqvzbOZwZrPbsrSX59tccRDB7+so1BYxyC9+isKLSu3zVYk28IG23poxeiBY2S7h8baH/NEWz+qeQjVaqPJpib1Ph366Xgffn1QYVfcnV3VES2xQrtPCjJ1Tf6VOrNH+i//ZK0T58TNAIAAAC4yHT+sLGhTlVhDW9rXtF91jTqURqT1VU6sEcrw8Zs0cF6Sd2u0piw9sSqOxgKlGSFVs8Y1Wt1e95vcwVja+UOdUs6ohpzbb1l21UlKfXqQNhlB2dfOAO2ePmOqM5si8eyPD3jWazP6iW577Q2iGnLeo2zlDvQJdUf0SGjp2bzF6qTSz3C5vj6ddQozCsvzNEzEVWh4Q7Vhld39UqPNdXUefwlut4d7Tuv0NF6KTW9f1hrS65Jj7WDRYO+t885e4DcatCXm42b9B1To1J0Zez5zh3MLc/AFMm316h69OnbWknpGY4dsY3rrz0co+qyv9JSpEZ/hdmREJXHjIq+jD66zmUGf5Huv7aP5K/SB+Y0Z6cbstTPDAcl6chxNcml7j2t94f9OiypX97deiFqgGexPjd8Rn4oqOxA91/bR1K9Dpj3+Hm1KiVl9DD/fUSregz13ZAlNVXsN9oDG7wkpQXn3EuKNi4xvvE3SSlpusbskCR9qGf/9zRNYwo1AAAAgItQ5w8bm5Wl1BRJvSdpVeHrYa/m1mjs1KKEcDY77OqVHj2siya3yLl79D49FXXNwngtV+lUa3OY4lCl472tqpK01O6PGRbaoWr8lujesF2y94WveSmpvPgT1YVVJ87SpDy3VP+Fyu1wN6+PUiWljpoX/sy8jvUiW+HV4nI1KkuTFtmJoVuL87Kkep+81jk9V6dJStHIucbu0c2t0XhWZOnKbpLcEyN2tr7jnAWgTn30wqN3a53jFbF2oVU9ePxIeHM4l3p3l3Tc32wgNq5HN0kuDZ8Rfs51YWsuKlAt+OJ6bfcHAsfAuCiB4uEvdc+LH6ky7JhjHVWZHaCZXZ7NgDApd3Cg8jDac7GqN5Ny88OfxaP5Gm5mlgAAAACAs+4iDxurVdcg6UCpphfdF/my11iEJKmuNlARdqg2vqncgbUG/fpsib17dI6eWfJJ2yobTcvy9IxntaokZeetDE5pTgSz4rR5jvUfg7tk52j5FqMCzd3TCBKjrL1Ztl919vR6x7GCL3PDmZa405QsKXlUoRXUFWqkwtdb9B48Zm26Yu8iHf4qbEv1akJU6/t6a4OXKNflaXHNyI7kqLp78S1NsV4vlbdQdRiVXweOS+ru0jizy+GDo/XWRi+h8zlfYVO65deiFVbfyt3NVDDu16/tY5TtD0zV7ujAMYamY/Xh78vXB64pa6zWTXNsiKNQ9WZT+fqI5zDlxbeibJgDAAAAADibLvKwsZXTpWu/0xHHeo/xuUuDLpAqyfKdPqnb9co11+mbPVzZ8su3ORDC1Rw8ErHWYKTAlGD5So3NXjpe4Pp6KtO8Dym07qVjPUVbm6aHzx6ubElVZc1Nq7aqGH2rw8PDiKnYrZ0u7dbitYFqv6KI78KqYjTDOjOka+V06W9qG6RusaaOtk4g6HSuqegUbbp0e1XoWIOU7Ir3+cZwQ5b6Sarcak7vNdhTmq81wjJD5TG/5MrWuIgw0CGu4DKKw1/qHitwbPazn39kBY7d1Lu564gp+hRm25++3h/9HmNND1fgml4q90tZY/Vm2DqMzZ/rbLnGlSQ1HNM3Zoflvt+XqKSkRL8/F+ktAAAAAJxDF3nYKK3ctksnUoboofx4NoMJVEJ2vX6SZphdCoWR2f3sY1k7XRvDzlvL3tFn9S7dONtZKbhE9xa4w0PDZe/os3opu2BX+GYqs8scU5oDwVlYqDe7rI3TqJfo3rWR1YuBjV6iBH2+I6qTSzcWRN9IpmZ+qark1u3OjWbyVuqOUS7VbXmndTs+W2tQZg8NHSu3yJxGvVw1teGbykRnbRrjvlMPx7MZTN5NGmTlLe6hZiQXZ1hXtkqlPsldsCCuzWACAaFzanY7WEFn+GYvIa8Wl6uxW67mFUXvb71N8h5okq4eqkKzqzWOHFeTESLePy3KNGrt17tRw7I+esFRrffBpt3WdObwqsJx48eGqhGtDWj65UWrUHS4wTyXNG5gdsR07nHj8yPWdIy5rmJcrApN52Y1Tp/v1na/S8N/PshRwdlHL+T1kap3h22M4/TBpvV6tzowZTp0vX4t2hqoejTv9eyZqaFXS/J/q7+ZXZKk+3RDTuC/cm55Ujeb3QAAAADQif0kKyvrH2ZjvHJycnTo0CGdPHnS7DoPjNLj0x/UUO3SKy1Oh44eClZ9cJ/m7TUao4wNG5f+qFZMHaKujr71acv0UNY3oeuYXaanCtyRuzmHCUzPTd2y2LETspS5aJdmjTqi94yNZFoS+Fz0/2FeF3aOWZq0NnyNwPD+kMA0aUeDb7Ux1deaYmy/rf9Ey5dJd8wdrTr73vNW6uFYAWS9Y5px1HG+2M/BesYh5ljj2qxdp53fR+CZSZ8tGdJ8daZxrroti7VGc4zvKfJ8NvO80e/VH+U63Fq8tlAju0m+4mhTnj0q8k5UtFjQHO9ZtEDzRhkbytSHT7m2RYx1jHuwKNaaig3aumShY8dry+w58hZkORqqtcaz1LEpTPR7CF7/7DnyFqRZx7bG+jbIU+i1rlPh501ZqHUTRqhm6yTN/s44aGvcMFbr8kKBYVP5er2mm/VIbr3efdG543LkWGl/5Bi5NH9m+JqDTeXrdY9jt2VZIWFEqGlsohI5Jtr5AgHpZOejj7oZS2u0dA8t9Ss4RT0jxufCxmcM0psRa1Y6d/WOdiz7+UT5nlrjqqUqG5mpbRsL9GSD2Rlw82/e0L/emCRpn/6TjWIAAAAAXEQ6cdgInC8c6zoaU6dD61qaQWJ7WcFblMAwEAjGCP8uAoU3larg6goVr5ujIrMTaNF4PTvhcd3kL1HethVmZ8gtT+qNXw1T0r7/1LR/I2oEAAAAcPG46KdRAx3O2mW6bs/7Ees6HqqNslZdIuRlKFNS455tEZWJ39TGKMW6SBTt/VSN6q+Cm2aaXUCLbrvuId2U0qRte5sJGiXd9/NhSlKTdvyFoBEAAADAxYWwEeho1i7TqQNvDV+z0VonUvVfqDzRFYZlh1UjKXngTeFrNuZN169GpUj1PnkTfc4LRcMCTdlaIV09TeuuG2/2ArFdtVS/GZAk39bmp0+XlJToX67coX+f9ks9u9kcAQAAAACdG9OogbMi+pqNsdbDTIzo6x02binS5Pk+o/Xic9t1xfpN7z367cYFMTb5uHhFrOcYlXN9xItBYPr0wAO/05SvNpmdAAAAAAALYSMAAAAAAACAhGAaNQAAAAAAAICEIGwEAAAAAAAAkBDtmkYNAAAAAAAAADYqGwEAAAAAAAAkBGEjAAAAAAAAgIQgbAQAAAAAAACQEAkIG09p44ZqVW2oVtUrp8xOAAAAAAAAABeJBG4Qc0obN9TIXZGp7Ie6mJ0AAAAAAAAAOrkEVDbaumj137tK6T9qltkFAAAAAAAAoNNLYNhocf0ot9kGAAAAAAAAoNNLfNjYkvt/r5KSEr3xm5vNHgAAAAAAAAAXsLMeNt53fY4kKenacSJuBAAAAAAAADqPhIaNy7+7zGyK8PoX+yRJTV9/oA/NTgAAAAAAAAAXrATuRi3J06Tdjx2V/t5bg5++xOwFAAAAAAAA0IkltLJR3iQNnpil0vQDqtpQrd1PnzFHAAAAAAAAAOikOqSy8cjaLE14zewEAAAAAAAA0JkltLJx1s0n5FKqtjcXNN7ypN4oKVHJH59kgxgAAAAAAACgE0lo2BiPm0f/VEmS5BqmyfebvQAAAAAAAAAuVGc9bPzwt14F9qOWevaithEAAAAAAADoLM562Ci9rs/3SVKT/vuTD81OAAAAAAAAABeosx823vKkPDmS9nn17GazEwAAAAAAAMCFKoG7UZ/Sxg01cldkKvuhLmanpPv0+5J/UY6kfX+Zpn/7k9kPAAAAAAAA4EKWgLDRChklyd9Dz/4iScvNIQAAAAAAAAA6vQSEjQAAAAAAAABwLtZsBAAAAAAAANApETYCAAAAAAAASAjCRgAAAAAAAAAJQdgIAAAAAAAAICEIGwEAAAAAAAAkBGEjAAAAAAAAgIQgbAQAAAAAAACQEISNAAAAAAAAABKCsBEAAAAAAABAQhA2AgAAAAAAAEgIwkYAAAAAAAAACUHYCAAAAAAAACAhCBsBAAAAAAAAJARhIwAAAAAAAICEIGwEAAAAAAAAkBCEjQAAAAAAAAASgrARAAAAAAAAQEIQNgIAAAAAAABICMJGAAAAAAAAAAlB2AgAAAAAAAAgIQgbAQAAAAAAACQEYSMAAAAAAACAhCBsBAAAAAAAAJAQhI0AAAAAAAAAEoKwEQAAAAAAAEBCEDYCAAAAAAAASAjCRgAAAAAAAAAJQdgIAAAAAAAAICEIGwEAAAAAAAAkBGEjAAAAAAAAgIQgbLwYzZ4jr/d5x2uOHjTHnC150/Wu93kVzTY7OpJHRd7n9e4it9nRyZ3RqneqtfvpM+HNnibt3lCrVZ7w5gvTKW3cUK2qDdWqeuWU2QkAAAAAADpYpw8bPYsWnNswLaZzFHjNniNvQZYatxTJ43nMei3Vq+Y4dDrPvXJAo12pKn36kvAOb5JKK05o9GP1ei685wJzRqveqZG7IlPZE7OU/VAXcwAAAAAAAOhgnT5svHAFwsjwCsTn5S1qX/nZg0OzJFWrdL7P7Dp/RVRimq8FWpxnfghOs56u1Z39u+qT57vpCbNT0hMP9dYn/jrd+U6TZpmdFwrPSV3v6qpP1hIyAgAAAABwrhA2nufCKhCLqyX3xHYHjqo/pm/MtvPZsqWOKswiba2X5NvgaFuoeWXmhxBySnf+7IT8f0/TdK/ZZ7tE04t6yO86qofNadYdoMvEYo18aqlcZkd79P8xsccDAAAAAACt9pOsrKx/mI1tMmypRub3D72vLNHWlSucI9RlYrGGjkgKNZhjei3UoJkDdXRFgX64rVQD+lntdZ9q58sLFL4Cm0dF3okKTUJu0NYlduhk9pmqtaYtU4etKciRwo/nWbRA80alBHsbtxRpslVJaPaZQmMD95Dp+Kzk1uK1hRrZLfL6zeM6z+n0YNHzuiO9XIunrlJk7mQdv3aDPMUZendurpKtnsjj2ddiv3c+f4e86WHHMZ+V3V9T/JjKhz6vO+wvrT6OayyM7FWUZyGfOTbKs3Vcp6/4MRUuCx8b+i2Zzz7Qr+LH9M7VzvOa486dWU/X6smfXabVE6NXNTo990q17uyfGtfY9pmp7KemKUNNqlpRoMOHzP42eKBeVVNP65Pn05sJVQEAAAAAQEdKSGWja0apRub31+H1k7T1Geu1d6iyh9kjxivj4VINHVGjvXb/MyU63G+aRj68UOGTHpOUPbNUfb7/XWhc6ggNnTHTMcYKgMKq2z7WlbOnK1Dz51Wh1b54S4MV/Njj2rhGoRU0+ortY2yQT1Yo5jjeg0XPa96oY6HzLSmXRhUG12b0zl8Y9vnwtRMfixoQRjAqE1s6Z2DdysCU4zvckrrlap5jGnLEupHuifLOdevLJdbxiquVPKrQsYmLR0VeK/ALPmdp5FxjOrMV4Ml5j0uOaVKUykx3wfO6Q/bxNsjXLVe/Mq+rRW4tXms8C88G+dwT5V1r/zaisIPG+nIt9jiCxrzpetcKJe3rX+PL0h1R1gB1FzyveekfW+OKtLU+S3c0d86z5ozGDzwhVVweV3j4xK5USXUa/oDZk2grVPXM71RVF/j3HvpbAQAAAAAALmTtDxt7LVSfftLh9ZNUtcPRvmNO6P2wacpObVLVijnyBwesUNX6Cil1hHqZQUNlib7csCk47lilpLS+oVAyL0OZknw7neVLXhVGrYRLjAeHZkn15XonWPHm1TtbGqRubnnsgC1vuia5JV+xI8wsW6U/bGlQ8qiJEQFVa3kWTdfIblLjnm2h+4zjnKGA8zGt8dkBaXMBZ7XWOKcmL9srn6TMq+3wcozcqtYaR7Wgd/4qba1P0cgCR7zmTlOyGvTlZsfxy1ZpcrSKxLDqQ6/KfVLywJtaF9bNnqiR3Rq0dYkzTPaqsLha6parX0Td8dqjIjtoNH4/DxYE2v/geD6vFm6QT1maZAah9eVaHLx+n7x7GqRuabomfFQL/l/9Yf16rY/1evn/NT/QMs9JXe+SfLviXMfwtcvlk9TzqrZMpZ6p7KdKNTLWK+z/MJCkTTr88iTtrZQy8ks1aOJ4ox8AAAAAAFxo2h02dhkyUMmq0DFn0GhwDegvqUY/mFMld+zUYUlJPcNDhsN7w6dfRyg7rBqrmixUbdeR3OqbbrbZjulbK5Tz3OJWsqpVHgwkA7wHj0lKU982bGKSPKowWIE4b5S0dUl4ONgR5zQrJ+1K0cB53fIMTJF8e43qUJ++rZWUnhEKCH3H1KiUyIrHKMKD47YJbH4T+j6CjLA05KZAhWyUoFHyKNdtBLuSpGp9Xy8lp4dPp48c1xb/n36Vn6/8WK+H/z/zAy3r/6Nc6qojFWZHLJfqiF9ypf9odsRhhaqClctRXsayCjb/ykna+WmTkkc8HiWQjN9zQ+okf1dtav8XAQAAAAAA2qj9YeOVSVLdMWM9xSiaGZN8pWOtx7h4VWhtFOIuOBs7Evs0r8ysjvPoF6PCQ7dr0lMkZekOc7fkqOs8xic4zbq4WpJROdhB52xelq7sZk21Ns4ZXG/RVrZKkz0b5FOKRs61x0VOQU6oiKA0xAwIk0flBtZirD0cGRRa1bPOsDfwcq5TiYTrN1EZvczG5j33SrWqNlRr+K4sZf8iScvNAQAAAAAA4Kxpd9h46vsmKTXNWHexdRq/j7vsysGneVNDaxTGW0HXVp6r0ySrmjIQOllrRjqmBH9TG219SPsVZfOU1li2NDAF2j0m7B479JxRBSr7wneDdrwiKgRD62cGAtPoax6eDY211eHvtxTF3uHbqp4119QMvqJNBW+3DphGfVa1dhp1gGtGqYaOSFLjp7/T1mdav1nMEw9lKXtilrYPqVbVO02aZQ4AAAAAAABnTfvDxiM1kvorzVx30cG/t0JKHahUs2Jp2FBlqElHd9nrM7ZR2SpNtgLHK43qunZNJw4KVDFGBE9G4NS6c0WfjtucV4utUNVR3di6cyZClOnS8Vq21AocO+Z6X91ZHb6Gpm32ALnNtSNty5YGNhFyTzQ2ymn999N+HTCNuuJS+XVCPeMuHv5RPV2Sv/ZSsyMOrZ1GHdg4aoC15mtonda2eWJXquQ6ofGt/mECAAAAAIBEaXfYqB0lqqqTMvKLw6c/Dlsa2mF2R0lg19kC587TM5Wd31+q3NDqSibNnhOxg3Jg7cIGfW/mSfa6gcb049aJM3hatiGwScrceCr3rNDOqFRsVtkqlZrVja06Z2K8Wlyuxm65mmdWAxo8ixZErKkZc13FRLCfRXBXcgU2gCnIknwfx6zy9M5fqDW+wJTp0PVaU+cjQsgLjPdyfeGX3ENiLWJgeOCk3JKOfHeJ2ZNgM5X91OPWxlHG5lIAAAAAAOCC9ZOsrKx/mI1t4ZoRqFAKqiwxKpnGK+Phx5WdGmpp/PR34dVMvRZq0MwRajJ2tnbNKNWAtE+18+UFwXUfPYsWaN6olNAgVWuNx7kLscPsOcYahs2MjSVvut6dm6tks10N2rokfLryg0VR1i80plwHuLV4bfgagI1biqyNWDwq8k5UZvC9xb4O43jxnvPBoud1R3q0DVEUuh7F6ncKXF/EKYsfU6Fjs5qI6zI3Y7Hupyba56Jep3WNtZH3FtYf9Znaoj3b0OfCxkf93p3febRj2b/PY63/nXWAWU/X6smfXabVE7vpCbPT8Nwr1bozvYee7eC1D7tMLNbQETXa+4xzh/p2eqBeVVNP65Pn0zU92k8DAAAAAAB0uISFjZ1ajIAvFFC1IbwEzppT2rihRu6KTGU/1Mzqqp4m7X7sqI6szdKE18zOCwBhIwAAAAAA51z7p1FfDNxpSpbk22kmGNZUaOC81kWr/95V6l+jjQ+YfbYzWlV4VC5/D62+EING2etTAgAAAACAc4mwMR6+Y2qU5B5qrFE4e05girBvL1WNOK8tfzpdqysk99RarYqy1OZzrxzQaFeqVnfw9OkO5b1UR3RCo6fGuT4lAAAAAABIOKZRxyvq2n2RaxQC568zWvXOAV2/p7cGP+3YAMbTpN2PndAXnWL6sTVlXJJamjYOAAAAAAASjrARAAAAAAAAQEIwjRoAAAAAAABAQrQrbMzJydHll19uNgMAAAAAAAC4CLUrbAQAAAAAAAAAG2EjAAAAAAAAgIQgbAQAAAAAAACQEO3ajTonJ0eHDh3SyZMnzS6cb/JW6uG5o5Vqv6//RMunzlBN+KhzYJYmrZ2nG7vZ7/36bMkQlZaFjwIS7bbrivWb3nv0240L9DezU330wqNj1U/79e6LH+lPZndHuWGs1uX1cTSc5fM7ZQzSmzMG63DZW/r152bnuTVufL4eya0/N8/Gei5J/t16acWX+sDsv2qpykZKxevmqMjsAwAAAICLAJWNrZH+qFYUvq7FA8yOC0DZDL3sydEznhy95zM7z6XlKp0auK5nihNzYZmLdukpb5lyzQ6024NFz8u7dro8ZkcbeBYtkNc7Rw+aHWfDVUv1mwFJ8u2JFjSeI1bQ2FS+XlNefMt6nYMwrQONG5+vdY+O1f1mR2fyXYm2NfRXwYSFus3sAwAAAICLAGEjLhx5K/Wwd5+eCr52aVKeOQjn0oNFz8vrjfZaoMXny3eVslDrRvZX497fafZ3ZqetXsf9kvzHVWl2dZD7r+0jab82bvKbXTifHPbrsCQd90dWNUqSNunJjSXypYzQb26aaXYCAAAAQKdH2IgLw+wyPTV3tLRlcaAK0pOjZzxLpdlUMJ5PXi18TB7PY/J4NsgnqXFLkfV+oeadJ1PjCweMUHLDp3r5q01m17l3FsNNdKQVmr21Qrp6mpZdZfYBAAAAQOfWiddsHKXHpz+oofWlmr7tKq2YOkRdrZ4TX7yqmR9viRybYr8/oZ1rZ+t3tYF3M/JfV35vx3BD1Qf3ad5ea5r11CE6Yr+3zMh/XfnddumVVS/qY1nBWUFPfbZkiGoK9ul2tz3Sp/c8eSqXJC3Rvd47peIclV29S7NGuaKMaZvcon26PT32mo2Zi5znk+RbrWcK5zqHBMwu01MFwYuPPs4c09z1O55L+JqN1rqOin3N9vPKNpuDIs+bW+R89lLdlsV6ef7y4PvAczii9zzvKNO5rmSU9S7NY0V9Fua6mUHmOpXmvURee9zypuvdublKNtvVoK1LHAHg7DnyFmSFun0b5Cn0Bv475jEs9eVaPHWVrNEWj4q8E5W5pUiT5zunxwfanY8qXLXWeJbq1eB7txavLdTI4Jqe0a5bWrPkmCbNzVWyqrXGs0F97c8470NWVeOEEarZOqmZqsaWuDR/Zr6GH/9IUz5yBdbvs3qaytfrHqMyMbC+YOjfU7QxknT/tLs1uXuMdQBbdU5rbPCUfm1fuV6LDjuGyLH2YLDBWB/SsWbj59fercn2zyPWWoUx2etfxhK5LuX90xzni3KP0dZsDH7GvD5zHczqjzSlZH/w7bjx+Xqkf5VeWuHXZMd1mudsvfF6dsLjukmfxlgXVNItT+qNXw1T0r7/1LR/e93sBQAAAIALUuevbOw9SaumXqOv196n6UX3afoH1ep6/YOOdRfv0uJCK5QsCox55Qtp6NRlejw9MGLleuuza3fphBUu2mOnF4UHi/Fz6ca5+3S7VltVeov1Wb1bt69dqUzHqOyCfZqVXtrsmMSZpUlr91kBm109uFpV7jv1lHHO3KJ9eqrArapie1yOntk5XPfOdgzKW6mHh253VCJa19/W9RS79VQvsy1orv5snWf5Fr8V0DmuLSysW6J7vVbgavcv+UQaNU9PFS0JO6rk1u3eeXLvsSsqV6uq22jNcozLXLRL1+90nGvJJ6pz3xl+LCtoDFVmLtZn9bKu0xE05q3Uw947leqo4HzP18ZnZoWEClYXFmlrvaxALxTYeRYtkLcgTVuXOKoS3RPlLbJWZixbpcmeQN8anxUuWu89nsfkiQgam+NVofW5xVsarGtxHCssaPSoyFuokbUbgv2Lt0gj55pTstM0aXaaSj0b5FOWJq2drkF7igLHdw8IWxPytqsHKlkV2tnmoNEha6zWzcjWVyut9RXL9ispN18v3BAacv+0u61QzBqzcreUm683xweSwMAahndr3aNWUOYarEes9+sevTs4LqjFc/bRC49aoaR1zpfKpeEz8jU/w3EcK0iUc33Ilcc1YZpzc5qAfnl3a7Ls432kStdgPWBeV7P269fBa/Fb4aK9JqW5LmUfvfCoFboaz2xdlGuz2UFjZdlbmuIIGseNz9e6vG7abj+vFz9SZdbYyGO5BuuRRwfreMzn2hab5D3QJKUMlCf4f2SFu3n0TwNhb84Nus/sBAAAAIALVOcPG1Wt9UWhKkXt3aMqST3TRkmSxoy5Rdmq1vr1bwc/8fHHb2hnQ1cNvemuYFtHqNuy2FH9tlzle/yRgVr9J1re0phEmf0L3djNr8+WOIO5ufpzsU/qNlp5dpCYt1Jj3VJVcY7+vCw4UFqWF/6+bIZeDqvuW67SMp8kt653hpItCn3udu++KIFg62QumqRs+fSeszqxbIbWbPFL7kkR60BWFec4Kh7n6gufpPQ+wfC1Zv6QiPv+yCfJPTwYEGbecr1S5dNHweNEfxa5BaOVWv+J1jgqLMsLV6tKbo1dNCs0MA6eW9xKVrVKg5WFPs0rq5aUpdzgOT36xagUNW5Z5Zjm7FVhcbXkHnNO11n0LBojt6q1xlGZ6J2/SlvrUzSywLlFTYq0Z0MwpEyWT38I3nOa+gbvYbw8vZOkgzsTtEvwfr37oqNi8PNqVUrK6GEFcRmDNCFLqixzhGmHv9Rr5X4l5Q7W/ZI+2BQK+96ttqryHEFcZGVd8+ccN35wYAdtR+XeB5s+1Ha/S8PHOgK2nt2VJL++2uM4/uEvdY/jc0FhlYD79Xm1lNS/j8YZwxIheP3OykTrmSlrcHhgahk3Pj8YNIbvmt1Hk3Ndair/0FHVuV+/Ltsf9ViVZbGfa1v97eAeNSpJaTHCxg8/+W81SdK+z0VdIwAAAIDOovOHjQ11qgpreFvziu6zplGP0pisrtKBPVoZNmaLDtZL6naVxoS1J1bdwVCgJCu0Cq/Ak+r2vB9j2nDi5Q51SzqiGnNtvWXbVSUp9epA2GUHZ184A7Z4+Y6ozmyLx7K8UDWg+05rg5g2VPtplnIHuqT6Izpk9NRs/kJ1cqlH2Bxfv44am2SXF+bomZjTuQMO1YaHRL3SY4UWzuMv0fXuaN95hY7WS6np/cNaW3JNeoyEQw363j7n7AFyq0FfbjZu0ndMjUrRlbHnO3cwtzwDUyTfXkeloyT59G2tpPQMx47YxvXXHo5RadlfaSlSo7/C7GibiPUVAxV8dkA4bmC2krRfn4cFYNIHR+sldVPvKMFZi5o9p0vj+ruk6mpjB2u/DhyX1N0VCgiPHFeTXJEVj1FUfh0lgOwQ1vVH3KP0wZ4qNcml7j3D23tbU9Qjg0ZJN2SpnxmoKnTv4ceK/J4SouFb1UjKdI03ewI2P6tfTpvGFGoAAAAAnUrnDxublaXUFGuqdeHrYa/m1mjs1KKEcDY77OqVHj2siya3yLl79D49FXXNwngtV+lUa6pycajSMWzqdrxq98cMC+1QNX6BadnO+wxb81JSefEnqgurTpylSXluqf4LlQenUPdRqqTUUfPCn5nXsV5kK7xaXK5GZWnSIjsxdGtxXpZU75PXnkJ9dZqkFI2ca+we3dwajWdFlq7sJsk9MWJn6zvOWQDaOv3SXIHqOse06HWP3h2+fmBCdVN3lzXV2jinc/1DyapifPEjVcql4TPscWN1vzHsnIi5y7NZadhHw3Ndkvw6fsTRbBnXo5sUdn/WK2ydSgAAAABAol3kYWO16hokHQit1xj2sjd0gSSprjZQEXaoNr6p3IFNU/z6bImxnqE5sC2W5QXWT5SUnZfYNSzNitPmWZu51DvWfwyuG+ng7mkEiVE2vCnbrzp7en3YepPWy9xwpiXuNCVLSh5VaAV1hRqp8M1cvAePWZuuONdNDL0K21K9mhDV+r7e2uAlynW1bp3Ic6PyWLT1Ce1XlA1b2q1ex/3WtOeI84WvZRgQWktxStl+Kxg9TwLHGA4fdf67Ckwp3+6PXqEZqCD1O9ZrDH9FVEICAAAAABLiIg8bWzlduvY7HXGs9xifuzToAqmSLN/pk7pdr1xznb7Zw5Utv3ybAyFczcEjEWsNRgpMCZav1NhZuuMFrq+nMs37kELrXjrWU7S1aXr47OHKllRV1ty0aquK0WdvBmS9IqZit3a6tFuL1waq/YoivguritEM68yQrpXTpb+pbZC6pekas6MNAkGnc01Fp2jTpdurQscapGRXvM+3fdo1XbpNokyXjtfnH1mBY8deb/PPxK8PKvxSVlZE4BlrSrrk16IVdoWmEZRGnS59lqX0VaakGv8ms8dyn35fUqKSkt+zQQwAAACATuMiDxulldt26UTKED2UH89mMIFKyK7XT9IMs0uhMDK7n32su7S4cJKyjWHnrWXv6LN6l26c7awUXKJ7C9zhoeGyd/RZvZRdsCt8M5XZZY4pzYHgLCzUm13WxmnUS3RvlB24Axu9RAn6fEdUJ5duLIi+kUzN/FJVya3bjd2i7xjlUt2Wd8LWzGyRtQZl9tDQsXKLzGnUy1VTG76pTHTWpjHuO/VwPJvB5N2kQdb0avdQM5KLM6wrW6VSn+QuMHd4ji4QEDqnZreDFXSGb/YS8mpxuRq75WqevSt2u1m7A189VIVmV0f4fLdVdXf2qgX/9NFuNbkG6xFzt2XDuPGROy3ff20fSfU6kPCKSwd7rUjnZjUOH2zarUr10WTn9WcM0gO5LjWV7zbWorTt169X7laT+mjyzEGhoPXwl9pYLfXLi6x6PFsCu5836ViD2WO5/wblSJJy5PnNzWYvAAAAAFyQfpKVlfUPszFeOTk5OnTokE6ePGl2nQdG6fHpD2qodumVFqdDRw8Fqz64T/P2Go1RxoaNS39UK6YOUVdH3/q0ZXoo65vQdcwu01MF7sjdnMMEpuemblns2AlZyly0S7NGHdF7xkYyLQl8LvomJXVh55ilSWvD1wgM7w8JTJN2NPhWG1N9rSnG9tv6T7R8mXTH3NGqs+89b6UejhVA1jumGUcd54v9HKxnHGKONa7N2nXa+X0Enpn02ZIhzVdnGueq27JYazTH+J4iz2czzxv9Xv1RrsOtxWsLNbKb5CuONuXZoyLvREWLBc3xnkULNG+UsaFMffiUa1vEWMe4B4tiranYoK1LFjp2vLbMniNvgXNBwWqt8Sx1bAoT/R6C1z97jrwFadaxrbG+DfIUeq3rVPh5UxZq3YQRqtk6SbO/Mw4aN5fmz8zXcO3WSxFTkyPdPy3KmolhOzwH3D/tbk3uHuuYrTlnH73w6Fj1M1rNTVQirstvHDtjkN6cMViHo30u5nXG4YaxxrqV+/Xui44du6Ncv3nt48bn65Hc+vDPBY8bfrzAWONvn+Neox7LuoaM8vVRdgSP13g9O+Fx3eQvUd62FWan5WY9+cd/1TCXpH3/yUYxAAAAADqFThw2AucLx7qOxtTp0LqWZpDYXlbwFiUwDASCMcK/i0DhTaUquLpCxevmqMjsBBLlqqUqG5mpbRsL9GSsykZJN//mDf3rjUna95dp+rfopZsAAAAAcEG56KdRAx3O2mW6bs/7Ees6Hqpta9VUC/IylCmpcc+2iMrEb2qbST4uAkV7P1Wj+qvgpplmF5AgM7VsZH/p4IZmg0bpPk2+MUny79C7BI0AAAAAOgnCRqCjWbtMpw68NXzNRmudSNV/ofJEVxiWHVaNpOSBN4Wv2Zg3Xb8alSLV++RN9DkvFA0LNGVrhXT1NK27brzZC7TTeD07YZrcDZ/qt81Ony5RScm/qOdn/65p//tZfWgOAQAAAIALFNOogbMi+pqNsdbDTIzo6x02binS5Pk+o/Xic9t1xfpN7z367cYF+pvZiThErq0YlbkWZGd31VKVjRTT9AEAAABctAgbAQAAAAAAACQE06gBAAAAAAAAJARhIwAAAAAAAICEaNc0agAAAAAAAACwUdkIAAAAAAAAICEIGwEAAAAAAAAkBGEjAAAAAAAAgIRIQNh4Shs3VKtqQ7WqXjlldgIAAAAAAAC4SCRwg5hT2rihRu6KTGU/1MXsBAAAAAAAANDJJaCy0dZFq//eVUr/UbPMLgAAAAAAAACdXgLDRovrR7nNNgAAAAAAAACdXuLDRgAAAAAAAAAXJcJGAAAAAAAAAAmR0LBx+XeXmU0AAAAAAAAALhIJDRtVcan8qtOkp8+YPQAAAAAAAAA6ucSGjd4kDZ6YpdL0A6raUK3dhI4AAAAAAADAReMnWVlZ/zAb28zTpN2PHdWRtVma8JrZCQAAAAAAAKAzS2hl46ybT8ilVG0naAQAAAAAAAAuOgkNGwEAAAAAAABcvAgbAQAAAAAAACQEYSMAAAAAAACAhCBsBAAAAAAAAJAQCQwbT+nOn52QKi7XE2YXAAAAAAAAgE4vAWHjKW3cUK2qDTVy+3vo2Ye6mAMAAAAAAAAAXAR+kpWV9Q+zEQAAAAAAAABaKwGVjQAAAAAAAABA2AgAAAAAAAAgQQgbAQAAAAAAACQEYSMAAAAAAACAhCBsBAAAAAAAAJAQhI0AAAAAAAAAEoKwEQAAAAAAAEBCEDYCAAAAAAAASAjCRgAAAAAAAAAJQdgIAAAAAAAAICEIGwEAAAAAAAAkBGEjAAAAAAAAgIQgbAQAAAAAAACQEISNAAAAAAAAABKCsBEAAAAAAABAQhA2AgAAAAAAAEgIwkYAAAAAAAAACUHYCAAAAAAAACAhCBsBAAAAAAAAJARhIwAAAAAAAICEIGwEAAAAAAAAkBCEjQAAAAAAAAASgrARAAAAAAAAQEIQNgIAAAAAAABICMJGAAAAAAAAAAlB2AgAAAAAAAAgIQgbAQAAAAAAACQEYSMAAAAAAACAhCBsBAAAAAAAAJAQhI0AAAAAAAAAEuInWVlZ/zAbcfaMHHmdJkwYpksuuUSSdObMGW3cuENbt35lDu1w/fpdpTvuuFnV1Yf19tvvm91oh7y84brppp+es+8WHeyBelVNlVZP7KYn4mm/AM16ulZP/uyEpK765Pl0TfeaIwAAAAAAuAgqGz2LFsjrnaMHzY7zgB001tbWa+HCP2vhwj/r2WdXEUYBFxJPk3ZPrZP/78mRgeJryfrEX6c732nSLLPvQvJAvZ78mfTJ81nKnkjQCAAAAACIrdOHjeeznJxMSdKuXRVm1wUhL2+4Fiy4V08+OV0jR15ndl/Q7rrrVi1YcG/M1xNP3Kl+/a4yP4aLziltfOyoXBWZGvx0oDo53CWa/otM+VxH9eQrp8zOC8ZzQ+qkChchIwAAAACgRYSN59iPP55Rba3fbL4g5ORk6ujRejU0/BAMTjuLt99+P1ht+uabXp06dVpff70/2Pbcc6tVWfmd+TFcZGY97ZdbqVr9UBezy6GLJqxNlfrXaOMDZl+izVT2U6UaNHG82dEOZ9Qn3WwDAAAAACC6xK3ZOGypRub3D72vLNHWlSucI9RlYrGGjkgKNZhjei3UoJkDdXRFgX64rVQD+lntdZ9q58sLFF4X5FGRd6LcwfcN2rpkoeaVReszVWuNZ6leNZubcdddtyorK0P/9V/bNH78UKWmJkuS6uoa9dZbm1RbWxc29tpr+wTff/31/qhrINrHXLPmw4jgKj09VXffPV4nT57Wrl0VYes6RjtePOc014c8dep02LmdazZKCh7PHOccu2OHT1demaKePbtHPAdbPNdmH69Ll8ukGOe0n4n97GOtb2mer6bmmF57bX3YGEl64IF8ZWamBd9Huy7FuZZlS+eMtmaj/RnzXlt6FiNHXqdbbx2i99/fpSFD+gfvIdpv8Zww/xaoQnufmSMzUm/274F1jMZPf6cvN2wKjZHkmlGqAf1Cx3TNKNUAlWjr3/pq0MwRCvw6pMPrJ6lqR9hHrTBumjKC76NfW3xOaeOGGvX8e+8YVY1OZ7TqnQMarR569hdJWm52J1DwuZp/X9vMuvbaTGU3G6oCAAAAACBdkpqa+rTZ2FquGaUaOjJNh9dP0perV+rgByt18J/+H2X3+i/VHZKk8cp4eJmu679fe5+ZocoPVurgB1fon/7XNP10yE91dNsmnZGklPHqOSxbPYfdoyt8v1P5/1kUGPfPE+Tuc4UOfm4nB1aY6Nsgzx1FeuONMr3xxqX6xe9H6YfVn2uf9um9N8r0xhtlOnjtKN3cp0ZrPM/qV1bbG29s02dhd9Cy66/PVkZGmgYM6Ktvvz2sV175T+3ff1RDhvRTdnamtm//RnIEWG+//b7+4z8+1smTp3Xjjdfq6quv1BdfVCkvb7juuWeCbrlliK68spsuvfQSDR7cT7fcMkS33DJEP/1pH23f/o2Ski7XDTfkqEePbsrJydTGjTu0atXfdNll/6ShQ9267LJ/UmXlobjOKUfQWFHxnV555T+1efNu/fjjGY0Yca127gxM4+7ePUWDBmUpIyNNl1xyif74x7/qs8++1nXX9VXfvj2D9yhJN954rXr1StNHH32p06f/R9dcc7Xq65t08ODR4Jj09FTNnDlJmZlpKivbrlWr/qbNm3frmmt6q1u3rsGxeXnDlZ8/UkeP1uvFF4u1efNuHTp0XKNHD9Tu3ZWSFcDdc89tamz8ITjm6quv1I03XqvTp/8neKy77rpV/ftfZZzvavXqdWXwecl6Zt27Jwef2ebNuzVixE/Vpcs/hd2DHM+lvr4p+Dxt9j326NEteKz9+49q+PBrNHz4taqsrNGJEyfVv/9VuvrqHqqsPKSDB48Gg8avv96voqL1On68QbK+p8mTR2nfvprg9zRoULaGD79Ghw4d1/HjDerdu4fc7qt1zTW99d13R2P+Fs+JXgs16Kb/VvnSXwf+DnzwnX4c8nNd88+j1PDBfwX/D4NAICZVrZis/14f+Jtx9Op56uN6J/A349AP+nHIGPW88rLQ3wdJ0kz1+l8DlVy5SZXW34Mug+9Rer+B6j3spCqsvy9Hu06R+9Zf6Mdv3lFTo/XRYUs1cuYYJVeWaGvw+q5SrxnDVBf829IKDzRp4YD/S9vfSlbJPrPT9H8pbdD/aFz//9Glh5LiGN92Z3zv6GDjKPUeOUa9nX9f2+wfmnaHX31OJOvf/+tSsxMAAAAAgDDtn0bda6H69ItSRbRjTuj9sGnKTm1S1QpnBdEKVa2vkFJHqNewYGNAZYmjmmmFjlVKSuurYE1NXoYyJfl2OhcQ86pw6ip19JJiW7bsCVa3VVZ+p+PHG3X55ZcpPT1VI0dep/T0btqxwxesQtu69StVVHynrKwM9esXCMHsqbhff71fp06d1ptveoNtZgXeqVOn9dZb7wer4SoqDunUqdO68soUyQqnWjqnJLlcgQqyfftqgsfeuvUr/fGPfw2+tzkr5Gpr63TkyHF1754ctkZhTk6mjh9vVGXld6qsrNEPP5yOmEo9dGh/paRcEVF9uG7dR8H36empGjCgb0QlYGXld3rzzY3B9zfddK0kaePG8mCb17tTDQ0/aMiQUBWdy5WkhoYfVFkZus+3335fZWXbg+/T01N1+eWXBa/f9sc//jWiSrIl9j2+//6u4LEqK7/Tjh0+paYma+hQZ4VfQF7e8GDQaFZKDhnSXw0NP8jr3Rlss+/Zfga2mppjMX+LcZv1B61fvz7m6w+t3dXk0AJ9GVZNt0mHP66Q1F9pjn/nXa5Mkur2WP9nRMCpDQWOvyGbVPdNk5Q6UKm9QmM0bKgy1KSqv5kVe+F/X07t2qNGJemK4GfHK2NM/yjVfitU1cbqv+eG1En+rtoU5x+d5R92lV8n1DPyJ9GyYUs18qnSmK9s82/ojjnauuJTNaaO0NCnlspldAMAAAAA0FHaHTZ2GTJQyarQsWYKg1wD+kuq0Q+OYEGStGOnDktK6hm+vtjhvS38j/+yw6qR5C54XkWzzc6Oc+bMGfn9TWFtr722Xn/4wzrV1tYpJydTP/54RhUV4Tf6/fcNuvTSS5Se3vr/yf/DD6fV0HAi+L6y8js999zqYMgU7znt654wYViLm7kcOXK82am4/fpdpe7dk4PBZW1tnU6ePK2ePbuHBV05OZkRwZ+pX79MpaRcERaCmtLTU9WzZ/eIcNA+rzNg8/ublJqarLvvHh8zdLM/l5mZpgceyDe7W8V+/ua6m2YobLvmmt4aNWpg1KDRfq7m829oOKEffjgdDIxtzT2zuC3/lfLz82O+fpWI+b6HjskuLrSd+r5JSh2hoQ8vDP2fCAY7MOwxJPT3wTWgf0RIKSl6m1Ov8eqRGsfflrhZ6xjWXhr/lGjvpToiqedVbagz3DFHW5+ZFPMVOV3cCn6fKdFh9deAp4qV4QxtW8NzUte7JN+uWN8UAAAAAAAh7Q8br0yS6o4Z6ylG0cyY5CtbW+rjVaGnSFvrA4Gj1/u8vN4FWpxnjju7XK4kdelyme65xxO2c/GoUQPNoQkT7zm3bv1Kb731vn788Yz++Z9HtGtH5f79e+nSSy8JC1737asJq+SzqwdPnjzdbHBpB2hmiOuUktJVV1xxmTIz0yJ2hXauuSirinHLlj1KTU3W7Nk/14IF90YNFF97bb2+/np/2DHvuutWc1hczEDYyRkQXnLJJerXL5D4fP99YNq0U3q6S5deeomuvbZP2D3Onv3z4DqVFwLXDKPyzrGOou3UhgJttSqbh9rjZswMH3RogfZXSsnXjLcCyZlK6ycd/thcvzUOvdKUrKbI/8PjopGk7NuM59sST5N2b6hWVaH08sQsTXjNHAAAAAAAQKR2h42BCqW0mNVJ8Wj8PrBmYOv4NG/qY/J4HpNnSbkalaKRc89t4Oj3N0VMi7Zfzz67qtVTdOPRmnPaVZELF/5ZW7bsUZcul+mOO25udeCYk5OpSy65JBhaOsNNeyp1tKrDaOyQ0azac7Ir+2pqjkXc48KFfw5WltqcU9Vrao7FrGB829pxetmyv6iurlHXXtunzYFjLM4Q9cyZM/rrXz9VTc0xjRo1UHl5w8PG1tb69eOPZ8J2vXa+zCn2CZHgadSBzVuaVLXCUXm34tOIykYpvFpvb6WkftMiAkf/3orQVOphQ5XRQhV1TIeOGdOqLzCtnUYta/3Mp6YpQxXa+8yk1m8W403S4IlZyi6SHt5QfRZ20gYAAAAAdAbtDxuP1ESsx2YKCwycrPXXju4K32221cpWabIVOF5pbEHtPXhMUpr6noUQ0py6fDa09ZxlZdu1ZcueVn/WnuobLRCrqTkWtraj39+klJQr1K9f+FqOTnbAZq736BRvcBnNa6+tV03NsWY/W1tbp7fe2qS6usZmQ89o9u2riXqPdvVntKnO69Z9rLq6Rt1000/DprTHmi7doRI6jTpQeajKDTrcygpC/0orcHSuzSpJO0pUVReYSu0a0F+q3Nm2naMPfasmSRkDWlndF9Ml2l8rKf1HxZ3Hen5UT0lHvmtp5+ooWjuNetjSQEVp3afa2ebdti3ey/WFX3IPaXU9KQAAAADgItTusDEQBkgZ+caaYMOWhqptrMAgu8C5PttMZef3b1Mwodlz9O6i8FTRc4tbyWrQ976wZsl3LFD1WOAxOhJv584KNTT8oFtvHdLqasG2ivecd911a0QlXaz1BpvTXIi2b1+NunS5TP37B34I27Z9rR9/PBNxbVOmjA2GbJWV36m6+rAyM9PCqgoDu09PCL7ftatCKSlXaMqUMcE2U3p6qh54ID/sXHY46pzO3a/fVXrggfyw8NFeO7K56dzR2M9/5MgBweP163eVhg1zq7a2Pmo1a21tnd57b2vEs6mtrdPevd9GPIsLR4V+qJPUb2hoQxI79AobN14ZD5ubllhB5bFvjSnSgY1ikkc8HqiYjNgYJl4rdOjTJqnfNA2a6FwjdqayzenbcXpiV6rkOqHxcf5pmXXzCbnUVUfaUsjdCl0mFmtkvrUZzsttmHIOAAAAAEA7/CQrK+sfZmNbBKZPOhoidn0dr4yHH1e2o7is8dPfOXadtqb9zRyhJmNna9eMUg1I+1Q7Hf/D2bNogeaNcm6+Ua01nqV61dESNHuOvAVZjoZmxsZw1123qn//qyJ2Vo7mgQfyI9YSNHdblnXMrKwMrVnzYdjGJ7KCs7vvDoQi9s7QzYnnnOYY567TskKyO+64WdXVh8M2L3Fe54QJubr88suiXpP9+ePHG4Pnte/DueZgtM1R8vKGh60zeerU6YjnYh+/S5fLgm2ydgi3d5uONiba+UaOvE4TJgzTJZeEqsycx3GK9Vxs8dxjXt5w3XTTT8N+P/Y1SIra7ry2M2fOBMfY/du2/XfY9T7wQH7M7+bsmansp6Ypw35b96l2FkvuiH/Xxrhofw9s1t+F5LrwvwG2aH8fYv0t0bClgSAuqEJ721z5d0obN9So5997a/DTLVUrntGqdw5odG2msh9qz6ITLQk816RYz7JNzta1AwAAAAA6g4SFjQDQIazgUAkN0BJj1tO1evJn0ifPp2u61+x1eKBeVVNPtzzuvETYCAAAAACIX/unUQNAB+oyZKCSVaH951nQKEnLn3bJpxMaXdjUzNqNp7Rxap1U4boAg0aF1qcEAAAAACAOhI0Azl/DlmroiCQdXt/Wqc4drYsmPN9DftdRPfmKOcFbVlVgjdz+Hnr2Aq4K9NV2lfr7tSrO9SkBAAAAABcvplEDOO90mVisoSMCu3IfNtddPB89UK+qqdLqid30RDztF6DAlPETkrpeoNPBAQAAAABnA2EjAAAAAAAAgIRgGjUAAAAAAACAhGhX2JiTk6PLL7/cbAYAAAAAAABwEWpX2AgAAAAAAAAANsJGAAAAAAAAAAlB2AgAAAAAAAAgIQgbEVPyoioNfcPxWvScOeSsueyR3Rr6xkYlmx3n3Cz1eOXcPhu0lluL1z4vrzf0eneR2xx01jxY9Ly8a6fLY3Z0IM+iBfJ65+hBs+NsumqpyqYsVWG87QAAAACACwJh4znznHq/UaVrHplldpwXkhdVyd3XrwNF2dr5S+s1/wlz2AUteVGVhr6ySpeZHTgrzk3g5dbitYUa2a1aazyPyWO9Js/3mQPRkVIWat3I/mrcW6Iis++7Em1r6K+CCQt1m9kHAAAAADjvETYiiueU2lfSt6U6+rHZB5wdgTAyvALR612gxXnmyFbIu0mDukmNWzboVbPvvBVZiRnxKjqbdZHtNVPLJoxQ8sESTflqk9kpaZOe3FgiX8oI/eammWYnAAAAAOA8R9iImJq+p9oL55qzArFIW+tTNHJuOwNHSTUHL6Tftk/zpoaqMD3F1ZIatHWJo63Qa37ovHXbdRPlVoWKt60wuxxWaPbWCunqaVp2ldkHAAAAADif/SQrK+sfZmO8cnJydOjQIZ08edLsOo+MV8bDjys71X7fpKoVBTp8yDlmprKfmqaM4PvIMa4ZpRqgEm39W18NmjkiuHbg4fWTVLUjNE7W+oIDc12hhm9XB6cgR/QZmsqf1TcvLTebm/Gcer9xp64of1bfHL5TQyeG1p47uiFbB1ZFju0RfO+T75cT1OgcIoUfM9q1TN+ooRN76kDRYJ2cVCV3X7sj2vHiO2dg2nbovfkcAs/tiHy/3K5Ux/HMcS0as0rXFI5Wktlua/hEex6artP2+4jx5vXPUo9XnlTv46Hv2HnP4ddnjU2xP+vXgaLBYdWjyYuq5NZq7SztE3beyO/yXLCnIJvtUuOWIsdUZI+KvBMV+iVWa41nqVVJaPaZQmM9ixZo3qhjjs9Kmj1H3oIs43yKclznOR3ypuvdubmqKX5MhcvMTvv4adq6ZKG+LXhedwQPGOV41rUE+TZEDf0eLHIex3xWVn96uRYvk341Nzf4t8UXxzXOKzM7FeVZNESMjfZsg9dZX67FU1fJvpPA2OCPNuL6PYsWaN5AnxZPPaxfOM5rjguYqWVTpilz7+9iVDU6jdezEx7XTfpUv924QH8zuyXp/t+r5Oc5avrs3/XL335o9gIAAAAAzoHOXdnYa6EGPfW4svWpdj4zSVufmaStz7wi3bZQXewxw5Zq5FPTlPTp76z+Sdr5qZQ9s1TZw8IPp37TNHJmmvYHxzUpI79YGb1CQwKhmMLWOtzz/ST1nh7oP/3SYKt9tY5aYVRwTcRfZrcuOHNIyn1SQydKPvuc5X71mLhbPcZYA8as0jVWgGify/etW+7gpivWRidvVGmoFZQl5T7p2CDGcSxJkku9C61g7JfZ2vnLZ3WgwS23cw3EFs8ZEAgafcFr3/nLbB268mHjfJLklvuNO6UN1rgNPiXlRhvXjI+n65vgtVjhouO8Ox1B42WP7NbQwtH6wT5f8PrNZ+FkB42B+wl9n8+p9xtWKBn8jqTehVGO1fdODS3sqUOxvstzwgoaVa7FVjXd4i0NkhWKBUOlvOl61ztRmVuKglV3a3xZuiO4NqNXhWGfD1870WMGejGEVSa2eE6PiuzpxlaY5y5wTkM2141M0ci5z+sObXBUVGbpDscmLp5FC6zAz77uDfK5J0ZMZw4EeOH3WJo+PbIys1uu5s1160vreIu3NMhdYF5XHGbPkdd4Fou3SCPnPq+i2ebgEDto9BU/Jo8jaHyw6HkrlLSuf0m5NKowckOdbrma5x2j7+3nUVyt5FGFkee8aqjcatKegy0FjZK0Sd4DTVLKQHlCWWeY+67PkSQlXTtON5udAAAAAIBzolOHja7bRii57lPtfHmBTgVbN+nwSvv9eGWM6S9VlujLDaH/8XtqwyuqqpMyxjhCScmqeJwjvz1u1x41KklXOMPGK11SwxfyO6rVTr80uOOr0ho+0R5Hxd3pbV+oSS5dbhVeJU8araSGT1TtCDMb56/WUbnV65FZkpbr6EN2qBYtCA2vwJPdH6zmWy6/zy+l9AyGjS2fU5Jm6fLukr7dHlbt2Dg/8nwyK/xWbddRudT9po7YZOc59cx1qan82bDvLnD9LvWeFG336Vnq8YodNIZXb172yKRAu2OTndMvvawDDdGO5deBotjfZXxu1dNvrdf69TFebz2tW82PNMda69BXFgqivPM/lk+Se2goYHuwIFfJ9eX6g6Oi7dXCDfIpS5PMgKrVPCoqyJJUrXJHxV/L5wwFnJ4l5Wq0AtLmAs7GLUWOKkWfvHsapG5pukaS5NEvRqWoccsqR7WgV4XF1ZJ7jCNIdKtvuiTf3rDjv1oYrSIxvPrQu9mnRmUp1wzrmuXW4rwsybchrKLQO3+VttZL7rzoO157Fi0IBo1hlZR50zXJLfmKHc+nbJX+sKVByaMmRgShvmLHfS3bK5+kzKvDv/PC3v2lhj3yBnLqFv3tYOBvbFqMsPH1L/ZJkpq+/kDUNQIAAADA+aETh40zldZPavxmkyNoNPQarx6pUuP3FUbHJtV90ySlpoWHjXV7VBc2/TrS6e/9UspoDTzbuxwf3x+a+qtQBV8gKAts+NLk2xQ+Rj6dbJCSrmxbCPTD4fAqzEDVph2SxXvO5Tp53KrmW2SGbiaf6jo6tLVNH64eUe5RekJ130rq3sf4fvtYU6Qjg0ZpllxuV0SgGrx381hGWN027+vpu/OVnx/jdffTet/8SHPcaWHVqE6NtdXWf3mU65Ya92wLBpIB1fq+XkpOb1VaasnSHcEKxIly+zYY4WBHnDNyTUfv/IWh884eILca9OVmY4qw75galaLQPyefvq2VFKXiMUK9T96IALKV7M1vgt+HzQxLQ/paU6QjgkZJnlvcSjaCXUnyHjwmKU19w6ozI8dFGq++Lkn+b6NPiY6m4VvVSMp0jTd7Av70b5o2bRpTqAEAAADgPNJ5w8ZefZUkqelIy9P1Yo/JDKtajMfplwZr5wZfIHC0pyC3GKJ1sDF9dEXEtOgqDX3DuX5ggrXinI3zA1OF1ffO4LhrgpWP55JfJ83cxuao4JQk9R0duK+GI0a4KkluXZ5iBaphzyJ8ncrz2rINEdVxnkVjwkO3vAxlSkoeVWjslhx9ncf42FOQi7S1XkblYEeds3meq9OCU63DzulYb9H2aqE1Xdw9MTguYgpygplBaYgZEGZp5KgUSQ2KthfUNekpRthrvZzrVAIAAAAAYOi8YeOhb9UkKalnjIqYuNTohxYqGaNaNcGxxl+8VXsd6OP9+iFiWrTj5ZjamzCtPGdoLctndaAhEFKeH4FjDGao+O1q7Sz6RE1Rq1oD1Zz6NrReY9jLuSFNwiR4GrWydGU3e22+QOg0b5TCNx4pO6waewqyY43C4CvK5inx82nesnI1KkUjCxxVgh16zugClX3GbtCOl1khGKiKDAWmydHWPDwrjunbsOrJaq1pZofvb2qjralpv6JNBQcAAAAAoDOHjarQD3VS8jXjjXUXHQ5t0tE6KWPATKNjvFKvSZIqdwbXZ2yrxvlW4GhOlY2YTtyRzua5bG0953IdfcgKHFv92dYJTHk3KhRtMdeDjDU93Jq6ble1hoXLMaZLd6jETqMOVDGawZMZOLVu6nL06bjNKFulUp9Z3di6cyZExHTpePk0b6oVOHbE9ZZt05f14WtoBrjlGZgSsXZkgE/zpm6QTykaOTd8Q5pWfz8t2qRv/ZJcfXWb2RVLSl9lSqrxx6g+v+VJvVFSopI/PskGMQAAAABwnujEYeMmHf64QkodoaEznGHieGXMsDd+scb0mxa283SXiQ8pO7VJVX9bEWqMyyz1eCV8p2U7nIpYUzG4VuGks7DL8HId/dgn9b3zLFYLxnvO59TbrAQcM17dU6SmaHM7E+j04SNS2GY1Tk/oSLk/Yrfr5EWBDWAOxdo1fNWE4JRw5303llpVj+eywrUd4guefJpXVi25J8ZXuWeFdmGVii14tdisbmzlORPBCj3dBZHVgOE8KnLsYC01t65iIoSehXMXaM+i6RrZrUFbi2NVeXpVuKRcjQrfcTswdT4yhGyPogMVze4ubbrt6oFKVpOOxdhQ5ubRP1WSJLmGafL9Zi8AAAAA4FzoxGGjpB1ztHXFp2rsN00jnyq1Xg9Jf3PsTr1jjraur1BGvt1fqqEjarT3mQIdbvUU6uU6+tB2pYaty3enrgjbtTmkcf6zgd2IC0Pjmw/m2mHVBO0s+kSKWENxd8eFnXGd8wkdWCVlOfsLR+uHDdn6JlaglyhWMBi2rqQj+Dz90mDtKVfY9+PuHr7rdzSnXxos37fWepV2uPjxdH3zy9U6GmXdxt7TzSOch5Yt1RpflHUKvc+Hb36ybKk8S8qliDUUowRzZas0uTgQjoXGtRBsRatubM05EySwFqMin0dYuOhV4TLpV87+ubmqKX4sbLfohFq2VJ7iarkLQuecN+qY1kRUoRrs76JbruYFvwOf5k19TGt8UdZtbGnDm1i+2ymfkjTw6niWtxgvT+8k6eAGPRkjbPzwt14F9qOWevaithEAAAAAzgc/ycrK+ofZGK+cnBwdOnRIJ0+eNLsAdCIPFj2vO9wN4Ws0StLsOfIWZKlxS1HHBWjoVG67rli/GSBt21gQM0SUJF21VGUjM1scd9/vS/QvOU3a8Ydf6tnNZi8AAAAA4Gzr3JWNABLArb7pkup98prVcb5jzVZ5Aqa/fbVBPiXpppELm1m7caaWjezfbFWjFFiz0ZMjaZ+XoBEAAAAAzhOEjQBa4NO3tZK6ueUJm5bs1uLZuUpWg77cTFUj4rVCszd+qsaUEfrNTebmXJI0Xs9OmCZ3w6f67bZY6+bep9+XlKjkV8N05C/TNO3fXjcHAAAAAADOEaZRo1O47JHdGpjrMpsjHN2QrQOrzFbEIzCV2misL9fiqasUa+sRIKarlqpspFS8bo6K4mkHAAAAAFwQCBsBAAAAAAAAJATTqAEAAAAAAAAkBGEjAAAAAAAAgIQgbAQAAAAAAACQEISNwP+/vf+Pjqo+9P/fl0eLSMIQkB8BAklkUImACSh+IArFkF5yYk8XP1pqOIK9lzSy0LOOnh6l/HC5IFDwtNp1lIUprFvBkpaWwKen5YR7AnqkAl9UTEAEWwdJIJgQIuQnRmrr/WPvmdnznplkEiYkhOdjrVmL2e/37P3ee3aGySvvHwAAAAAAAIgKwkYAAAAAAAAAUUHYCAAAAAAAACAqCBsBAAAAAAAARAVhIwAAAAAAAICoIGwEAAAAAAAAEBWEjQAAAAAAAACigrARAAAAAAAAQFQQNgIAAAAAAACICsJGAAAAAAAAAFFB2AgAAAAAAAAgKggbAQAAAAAAAEQFYSMAAAAAAACAqCBsBAAAAAAAABAVhI0AAAAAAAAAooKwEQAAAAAAAEBUEDYCAAAAAAAAiArCRgAAAAAAAABRQdgIAAAAAAAAICoIGwEAAAAAAABEBWEjAAAAAAAAgKggbAQAAAAAAAAQFYSNAAAAAAAAAKKCsBEAAAAAAABAVBA2AgAAAAAAAIgKwkYAAAAAAAAAUUHYCAAAAAAAACAqboiwcX72FhXmbdHm9MlmUaBBz2hznlXXemzUs4PMSu007FWVzHpVeeZ2SdJ6JWwtV+qGQvUyizpTzl6lbi13PPYq1qxzraQXavTWciXkmAVdr9fTx7rg2kzXmhnF2nX3dLPgKln7LZlVrJIZq/SwWQwAAAAAABAFN0TYGJFBz2jz7HvVp7JYOQUL7cdivXjBrNgOfVdp1wOj1HSySAVmmdOls7pibussOXuVOtOt5tI1KluQZD9mqMmsdx3rmpAwWt7S8hOnFDvmWW0cZpZ1XN6kZzVJ7+knu7KUufd5vWlWAAAAAAAAiIIbImzcttsKDxcdOGQW+aTfOVp9dFll7/7GLOqgRdo4437FnivSrI/fMgu7TGyKW5JHVS9vMovQXXz2pH5yslnuB3ZoTV+zsCMWKXW45DlByAgAAAAAADrXDRE2Ru6Czl1NT0aHh++eKbdOace7m80iB49aGs1t10BjzbXrSYkOefPjDXq3MUaTHojCkOe+IxVvbgMAAAAAAOgEPTps9M7V6H2sHWPW6CyL9N0xMW0Pn26DfzhwrgZucMyxGGKOR6uuv87op3ONGpGwj5O/3jeXYvj9GW3aekwD040q8s/JGMn8kLH5rZ9j6+z5L7eWKyXNJcktdxvHDTheyHMM5nuN2b7FJVq577T/UbDOWar4/KNauXOb4rVOjznqPZUf7pjWcGr1vV/fjeJwagAAAAAAgM7Uo8NG7/DpnJ1HddkslKQxq3xB5JKxfSQlKtu5QEz2981XRGZYqtxq1olz0Rg+7ZZ763L193jnWNyu2r5TlJK/3lcjNr9cKWk18njnYCw4KKUt94VnziDSPVJS3ylKaS1kGzlPqXljdanA3t8ej2LSljsWcVmvhK3LlXBpu2/exxOlUkKeETimF2p03hTJOT9kQY2GOtruNXBmudzy7s86x0SzXa16TpW+tjRI8vivR9C8lFYw6e5/UCeMa5Yaom1esfnW9avdk6SyJTm+3qHx+Ue1cu5gvb8uWaszkrU6Y7vK3fOCAkf1m6LcfVmq9dbb4VHc5GV6bHFgNZ/PyuSR5E5YZJYAAAAAAAB0Sz06bGzTyed9i8FsOH5ZUoV2+xaHWaic3R2bvzEvYZTUeEL7ojREunZPkj7xzbH4nOrOSOo/wupZl16ooSOl2j2OMO1AjipKGxSTNk+xkq68PN4XunnOSGp0hGwLnPv28sizYLxqD9hPC4+oVtJtQ7zhZZYGyiPPiud8r7jy8iuqbHQpIcsR1iUOVowadOldx/4P5OgTx+t8zmxXmW+7dY4x7unt7N0YGV/7HYGh95ppZFbIHpq9nj7mCxorC50l65Q52aW6Q6+quMS7bane2OGR3FnKynTWlcp33Ouvt/GIyiXFDQ8Xqm5W2TlJrpFXP5QaAAAAAADgGrixw8ZOMV0jXZIazkRpMY4GtVQEbmla4e9Z12vSWMXIo7qAAEy6cr5G0mD1DhGctSloTker16AVSubK5XZJZ44YK1hvUsslRwgqSRU1apYruMdjCLUnQgSQncJuf9A5SlfePa5mudQ7MXB776ePKSXNFSJolLR4opLUIM/bRmDrqVGdXBroDtio4xudz9v2SUOz1HeARpsF7fDw8BTF6pTKPjNLAAAAAAAAoouwsRto/txjbopYr9tDzU9YrtSZASlXFLnVu6891No4pnukUfVAjj5ZsF21cikhL/zciV3i0tmgsNHL24PT4lZCmitk6CtJ8cMHS3LpvqWO+Rr3ndbKpVMUZ1a+xh6+e4dKZhXrKW1Q5q4nr2r+UAAAAAAAgEgQNl7nrnwean5C78MxFDpq7BW0z/jnawx4OIcmSwFzKZbt8djBaDcJHMP44ryzl6JHngVrrCHiIXpoVp+rkdTgmK8x8PFGO3syRtObH89V5q4svaIlKpn1qvLMCgAAAAAAAFFG2Bh1b+lMQ6Tz7G1S7ZJQcyZG7qqGS3dIiOHSkSqcYQeOndve1q/JJjV4GqSRE4MCz3BD0q33ydtD0whKQw6Xjp7Rrhip8aI+MQva4c1zJ9SkUUplVWsAAAAAANDJCBs7QUHlKalvijL6miWG9EKN3lqu1A2F7Q/uvAq3273url1vwabig2o2VsQOpdfTxxwrWFtiU9ySatQS9R6XDt65Ip2L1ThceblYtXLL7Wx/eqES01xqLt1uzEXp9ZwqCw6qWW65ne9XyXy945GS5h4NWgzm6i1S6vBozv8JAAAAAADQuXpw2Ph9rc3bosK8LSqcfa/6SEqaaj/PW6X5ZvVo+qxMHsUoZfh0s6QTWL0jPWdCzNvYRhjYYd65GEPM2+gMF6+8PF51Kca8jv0P6sQCx8rZneFAjj7Z4zHmlXSGsc+p0mx/3hR9EbDqdwje/fadohTH/krzkrXpkILnbdy5TfHGLtplWKrcata7JzebJQAAAAAAAN3STYmJiV+bGyOVnJysqqoqtbS0mEU3vIfv3qEfj5He3TtXyxvNUqAt07VmxrOa1FCkzHevMmzsu0q7Ztyv6sNZWsyK1AAAAAAAoBP14J6NXevNj/fIoxhNemBVBHM3AoEevnuJJvWNUq/GxjOqNrcBAAAAAAB0AsLGTrNZi/e+p6a+9+vHkxaZhUB4w17Vj8fEyHM4Wr1iT+lio+ROIfgGAAAAAACdi2HUnW3Yqyp5QNqx60kVmGWIwHolbJ2ngeZmU+NBnViSoyvm9uuONXw6pfJFzfr4LbPwKtjDsvtKanxPP9n7PIvOAAAAAACAqCNsBAAAAAAAABAVDKMGAAAAAAAAEBWEjQAAAAAAAACiokeGjcnJyerdu7e5GQAAAAAAAEAn6pFhIwAAAAAAAIBrj7ARAAAAAAAAQFQQNgIAAAAAAACIipsSExO/NjdGKjk5WVVVVWppaTGLulR3bRc6n2t+scbc4X9+fneWyj9w1pCk6Rry1LNKivM+b1b55rk6XxVYCwAAAAAAAO1Dz8YeYn72FhXmPKN0s+AG07AtS4dXZ+nw5vfUZBb6vKXzr9j1dp8yCwEAAAAAANBBhI0AAAAAAAAAooKwEQAAAAAAAEBUMGdjVxizSoVTB6ls52Kdm7RF2QneggrtLnhe24LqJvqfVxYrZ/dvrH8PekabZ9+rPv7SQI1HtaHwJR2wh1ln9/M/l/yvr9m/UMtOStJkPZvzhFLri5Xz7rCAfV8+/poWHTgkSUpP36gliZ9oQ+Fnys7LUlKIOhEbukr3LEpR7ea5+uJhx3yLde+p7JXn9aX99NaZO5R6f7VOrn5SDb4XL1LSyjmKee9FfbTnLd9Wybvf+9Uccs5Ghwmv6oHs+NbnbHz8pyr6drKa3/+5FvzkT2YpAAAAAAAAbPRs7DJ9lDp7i7JVrJyChcopeE1ljYnKdsy7mJ6+0Q4lF9p1ilWekKXC7O9bFS68pEUFVtnuSjtctJ/nFCxUjjNYbI+ELBXOHq2/eI+7v0J9xj6htWMcdfreqyV501TXWp2IxShpUbFGfP6iNY/i6iKdj7tfqfMXmRW7xMKxyZKkmDun6iGzEAAAAAAAAD6EjV3o8vHX/L0UdUgHKi5LfePsnoLfV/bYPrp8fKtevOB9xW+0bH+FlDBNzw7ybusMFdpdsNh/3JMnVC5p8IDJAbXK97ddJ2KfFjl6J27WxU8lDRipW41qXWHL8dOSpOa/7Bf9GgEAAAAAAMIjbOxCNRcDhxwfOLBYOd5h1GNSlKTL+stfjGHJtXW6rD6KGxi4Oaoa61QesOE3Wlaw0BgiXaGPTjqeXqXzJzebm7qP13+kOXPmMIQaAAAAAACgDYSN3VT6gEG+odaFeY5Ha3M0AgAAAAAAAF2IsLGbOnDxgqTLjvkaAx/Wgi4AAAAAAABA90HY2F21c7h0eZ1zvsfIpN85+vruJTkhVUPMbZ1h2nJtLSpS0S+Xs0AMAAAAAABAKwgbu6sLL+mtSilp6saIFoOxekImanp66AVarDBytNLtfaWnb9SSsddP1PhlTbWkURowwd4w4VU9kD3KqNU5Hppyl2IkyTVB33ncLAUAAAAAAIAXYWM3tm33Qm04ruB5G3OeUbpZ+eTz2nD8svqMfSJkvQMHFmt3pX8OyCWJn2hDQbGxEEw39sGTKnuvWUOyi/XAymI9kC2dXP2iyuuclRYpaaVdvuh+xUr++itflctbbegq3eOtlz1KUoySFtnPn1oVtAL2n36yT9Z61NLgofRtBAAAAAAACOemxMTEr82NkUpOTlZVVZVaWlrMoi7VXduF69fCnxbpn5Kb9cF/LtCat81SAAAAAAAAiJ6NQASmLVdGsqTT+wgaAQAAAAAAWkHYCIS1UD8tKlLRv0xQzR/maM6PtpgVAAAAAAAA4MAwagAAAAAAAABRQc9GAAAAAAAAAFFB2AgAAAAAAAAgKnpk2Hj69GmGUAMAAAAAAADXWI8MGwEAAAAAAABce4SNAAAAAAAAAKKCsBEAAAAAAABAVPTosPHhu3eoZFaxSmbt0Jq+ZikAAAAAAACAaOrRYeObH89V5q4s/eSkNGkGgSMAAAAAAADQmXp02Oj15sd75FGMBhA2AgAAAAAAAJ3mhggbveJd081NAAAAAAAAAKLkhgobAQAAAAAAAHQewkYAAAAAAAAAUXGDhI2ndLHR3AYAAAAAAAAgmm6QsPEtnWmQYsfMUZ5ZBAAAAAAAACAqbpCwUSp4N0uZey9q5qxilcx6ldARAAAAAAAAiLIbJmzMm1SskgekV3ZlKXPXkyowKwAAAAAAAAC4KjdI2LhIqcOlpsq39KZZBAAAAAAAACAqbpCwEQAAAAAAAEBnI2wEAAAAAAAAEBWEjQAAAAAAAACigrARAAAAAAAAQFTcEGHjw3fPlFvNOnHuLbMIAAAAAAAAQJT06LDx4bt3qGRWsX48Jkaew3O1vNGsAQAAAAAAACBabkpMTPza3Bip5ORkVVVVqaWlxSwCAAAAAAAAcIPp0T0bAQAAAAAAAFw7hI0AAAAAAAAAooKwEQAAAAAAAEBUEDYCAAAAAAAAiArCRgAAAAAAAABRQdgIAAAAAAAAICoIGwEAAAAAAABEBWEjAAAAAAAAgKggbAQAAAAAAAAQFYSNAAAAAAAAAKKCsBEAAAAAAABAVBA2AgAAAAAAAIgKwkYAAAAAAAAAUUHYCAAAAAAAACAqCBsBAAAAAAAARAVhIwAAAAAAAICoIGwEAAAAAAAAEBWEjQAAAAAAAACigrARAAAAAAAAQFQQNgIAAAAAAACICsJGAAAAAAAAAFFB2AgAAAAAAAAgKggbAQAAAAAAAEQFYSMAAAAAAACAqCBsBAAAAAAAABAVhI0AAAAAAAAAooKwEQAAAAAAAEBUEDYCAAAAAAAAiArCRgAAAAAAAABRQdgIAAAAAAAAICoIG7vcdK2ZUaySWcUqmbFKD5vFAAAAAAAAwHWix4eN6ekbVZi3SvPNgm4ib9KzmqT39JNdWcrc+7zeNCsAAAAAAAAA14keHzZ2b4uUOlzynCBkBAAAAAAAwPWPsLEr9R2peHMbAAAAAAAAcJ26KTEx8WtzY6SSk5NVVVWllpYWs6iLfV9r87KUZG72qdDugue1TZLGrFLh1EEq27lY5yZtUXZCcJ309I1aMraPyvcv1LKTzv1M1rM5TyhVR7Wh8CUdcBZFou8q7Zpxv6oPZ2nxZ2YhAAAAAAAAcH3poT0bf6NlBQuVU7BQG45ftoND67n1sINGnz5Knb1F2Sq2y19TWWOisnOeUbqkAwfeVrmkpDu+H/AqDZqsO/tKlysOtT9oBAAAAAAAAHqYHho2tt/l468pZ/dv7GeHdKDistQ3zu4d+Rt9VCkpISVgoZn0O0erjyr01oFDjq0AAAAAAADAjYmw0VZzMTAwPHBgcUAPyG2fVkhK1D1jvDUmKz2xj1R5wuglGbmHh6coVqdUxhBqAAAAAAAA9ACEjZE6WayyRsdQ6kGTdWffyyp719sbMnIP371DJbOK9ZQ2KHPXkyowKwAAAAAAAADXIcLGiNlDq+2h1Ol3jlafxk904IJZr21vfjxXmbuy9IqWqGTWq8ozKwAAAAAAAADXoR4fNh64eEHSIA0fZJa0n7VQTKLuGWMNob7ahWHePHdCTRql1GFmCQAAAAAAAHD96fFho2rrdFl9lDrJWEm6Q6yFYpKmPqHUviwMAwAAAAAAADj1/LDxwktatL9CSshSYd4W+7EqYFXp9rAWitFVLQwDAAAAAAAA9EQ3JSYmfm1ujFRycrKqqqrU0tJiFvVcY1apcGqiyvcv1LKTZmE79V2lXTPuV/XhLC1mRWoAAAAAAABc53p+z8Yom39HotR4VLuvNmiUpMYzqja3AQAAAAAAANcpwsZ2SE/fqOyEyyoreemqFobxO6WLjZI7ZZUeNosAAAAAAACA6wzDqCMwP3uLshMk6bLKdi7WixfMGldjutbMeFaT+kpqfE8/2fu83jSrAAAAAAAAANcBwkYAAAAAAAAAUcEwagAAAAAAAABRQdgIAAAAAAAAICp6ZNiYnJys3r17m5sBAAAAAAAAdKIeGTYCAAAAAAAAuPYIGwEAAAAAAABEBWEjAAAAAAAAgKggbATQZeZnb1Fh3hZtTp9sFnWSXGXtPK2V+07rscVmGXq8iXvV8sJe/d3cLkkaoZ8986h2PfOgHjeLwhn3oHY9k60VQ8yC6Hp8zqPa9cyj+tV0l1kUhksrFj2qXXNGmAWdZ8g9+tUzj+pn48wCL7tNrdbpHI/PeVS7Ft2jqWZBJ/C+V77HtXwPDO0976nTs9t5n0XJD+tVvqdC5XsqtPeHZmEXWlyilfus/y+sR4nSzDrXSnqhRm8tV0KOWXB9is0vV+pWxyN/vVnlmun19DGlbt2rWLOgy+Vq4IauvTbhfam99s9s+YYvzUK/YYX66wvH9LdhZgEA4EZA2Iggt87coQdWvqpr/OsGEML3tfaahpHRl1ZwWit3blO8WYCrk5mj3+/7DxVEGhoPK9Rfv+3WzYe3R+0/vsfvHCFVHFP+ebOkiw0ZobtdDTryzlmzpNNMTUlSTMMx/f5DsySarEC4fWHYCI1LlD49/JH2m0VR9vicR/WdxAYd2fZrzXrJfhRdu/fgupTRrGOz6+TZmaikmYma8QuzQhdZXKKVc92qO7RWqzOS7UemSs16aLfY/HK5RzaosiBJZQvsx4rnzGrXtdj8cqVuKFQvs6DHuFUzZiYqaWa8PKOqwweOn+Xo5lMu/fWH4f7IBwDoyaL1OxcAtNu23QuVU7BQiw4cMos6ySYVz7Z+cXxjo1mGnmu9vvrhFP3t1HZ9o3iTWWir16UGSQ2X9KlZFMqQezQjUfr0L50fJr1eZAVX//xWg1kU0uMPjldMQ7n2X0UI6uuhF1HPvBH6TppLzafOthLoNSh/s3Ue/9apgWSgqdPH6w6d1Yedfkwr1OyW4XOE9tfWS5LO10Z2n0VD7kOX5WoYqO3dJWS0paW6JXn0zopwnxfomPWKGynpTLFqD5hluP7cqu3/Tx9p0FfKNYts//DGGn2jzq0r/1qor81CAECPRtgIAOjRvs7K0lfyqNcb0es9MzUlSTHXJMRqLyv0aj34a8W4B7XrmUc17i/vRBa6StK4RN2hBn184tqFVJFxaeool1RRodfNok7SfNEK7BAZ96DL5qbuo75GVeY2REXz5x5zE65nrq/kNrf5bNLNvz2om+Om6KuscJEkAKAnuikxMbHDf2hKTk5WVVWVWlpazKIu1V3bFWTCq3oge5T/+adFOrxts7OGbp25Q6n3x/g3mHWGrtI9i1JUu3muvni4WGPusLfXvaeyV55XwMCGoat0z6L7HfPSnNLJ1U/K+vVwkZJWzlH4qcecdSPT6+ljSkmrkWfBdvXesFwJfe2CxoM6sSRHV4Lq+ofGNZeu0Scvmz0K1ith6zwN9D1vUGXBeMdfx61y7UlSzRDn/jzyLJihJt/rLNZQHv9z85ix+eVya7vKikdodN4Ued+F2j1Jqiz0VZNCtF9ntocYFpSrgc7rENT+rjM/e4uyExwbKouVs/s31r/HrFLh1EEq27lYL15w1LHNz96i7H5HtaHwJR3w1U901KjQ7oLntc2xxTxe+f6FWnbS/zw9faOWjO3j32C4fPy1dvaGzFXWzmW6r5/3eYPeX3eviksCa8XnH1VuynFtmn1WmfvmKcneXndorV4xerjE5x9V7mTHe+7ZrtV5S61/Z27TU0unKM5fGqj+oDbNnq9q73N7yJ6fR38MGLK3To/tmyftSFbJcOdxzXo2c3/OtvlY+/SeY9h9tSEj/3ktS/Fo7ezz+t6+mb5fOJoOFeg7KwJ/oczIf17LJvt+ACTPHmXk7XNWkSQ9UfAf+q6j+c59mWUmz45/V15Ar9X1+uqFefr68JpWejW21wj97JkHNaR0d4jehi6tWJStiY5bo9moN3V6tp4eVa6XNzfoO888KO/HtlnPGpbre6pPS9ruFTh1eraeTqvX7196xx+wjXtQuzJHhHy9dYyzVv0h9+hX8/tr70vv6HX7HO+oeKeNocD2+V4Krme239KgI9t2W73/xj2oXZn9/M8Nj895VN/pf0zFp5KU5fx8NZjXzSfs/h3vX+147cr0994Mvkb2dfA9t6+Vs4rUxj0R2JbKB53XJdT+IjumeX3N6+C9fi//Qfrh/PG+/8OCz7HrrN9QoXmDBmrN92LU0Z9O67O4Rn/M+K3inZ/z5udsiM/tUJ/tsqe/eGRQ8Ost9v8nF7Zr9Y4RAZ/1wfuL7P+e4P8zjM/j9EKNzpuiL/YkqS7F8d0lxPcpi/19KWx5JKx93Fa6Rp+cn6fUmf4P3uDvQeb3s9DfuwL2GfQdT1LOXqXOHKzKgvFqyXJ+Rwu1v8iO2dZ3Pf931SOKc+zPrNcm+z1yfGMPZL4XQfXN9tvfGS85v0/6zzmwfW3fZ2kFp/WIgu/Z8h1XN9Ij94ULWv5/emn7zH4yv/U6/f2xcl0Z5VGvF2aE6enykJb/8l81wXVa/zXnR9piFgMArjuEjV3ENd8KBs/vzlL5B/bGCa8qSU/az6dryFPPKikuRCDoDBIdAWLTey/qoz1v+es5g0m7nnx17G0Pn9FHIQPO6naHiyZnAOf/UmR/UXKEcdYXQceXLPsLmAK+SAW/TlqvhA0jVOP78ub44un7Umd/WZPzS16IL+HeL31B7VLAF0DrnBQQEobbNvj8eMeX8eD2h3pdV0hP36jsi4v9Yd+gZ7R59r3q4w0c7ec1RiDoNT97i7LlqDvpMy3yBpWarGdznlBq3+DAUfIfK9y+rTkbszS43eFiKxaXaOXcwUFfxBXwi6jji7od3Dm/kFv1FLCP+Pyjyjx3b9CX9tZ/abV/yZx7Vq/4wkDvLw3OXzYdwaAvOLTrKXDfaQWn9Yjb+AVicYkeU6b/uf2LrRy/GFuva3/g6AwQfUHf4ie1b26iI/hza+3OPD3Qr0K/y3hVr1mvVMG+mXLXl2rt7EJ5I0crTHTWk54oeF4jd6zSMuf7lZmj3y9NU3VQuGiYuFct3x6sb/xivG7+zCzsoLAhlvT4nGwlvOPYbgd9ziDICgStz0Zf8NNKIKgh9+hX88frfKiyAOGCv3DBYWsBWbjXGCJuW4jr1sZrH5/zqL4j5/Fba28wX9i22Zyv0Rnm+YM8631RUPvkOF5AOBsiWA5kBqt2qOm7pvbr5Whjm8e0hN4WeO/5w0h/O0KG0V0oemGj9Sb4wz77M9Pxh5agzzjjc9AMIk3+fTuDndb+rwhuQ6j/O8x2+LY5/19wBlO+7xGtBHc5e+1w8Gr+qOkM81r5HhTiO1vg9zrzD60mRxt97XaeZ4jvcW0e0xJ62zH1Lja/w1nvuy9EdYSeHbl2sfnlcvcPH/R6j+kMbf1zWXqPaYaN3vfDDCUju8+83w2cQXaoeu0Vadho/V/s1i1/SNItR8xCSdOWa+u/TFCMpNN/mKMfdYcPKADAVQn9xyV0rqGrNMIMGiXpA2/QKGnCHCXFNat8szPw26zy3aekuPs1dIJvo+XTIn+IqM26+KmkASN1q7d86ADFqlm1R711JFU9HxQ0dobaPUmOL8LPqe6MpP4jrImz0ws1dKRUu8fxxelAjipKGxSTNs/fCzN9hG6TVHvC+VXmOVWG+iIX8NfjTao94JH6jpUr3Sru9XSW9WXN+Vr7mBqZpYF2PUuDKgv8bbvy7nE1y6Xejt4kvW53SY3H1eD4QnrlZWfQ6Dimo7fjlZdfUWWjSwlZ7Vtp8JvP/1a7d+8O8/itXnjYfEXrDhxwBI2SdOElvVUpKSFF8yXpwmeqcRSnp29UYd4qq0yTNbyfdLmuwvdaf9AoSYf0YmmFpETdM8axuZsr3+H44r3xiMolxQ33D/8ZOsgl1R9XqePLefWK4KAxIiXzHUGjrHklSzyS3BprLn5Sf1CbfHU3qfREg9RvsIZ6yzO36UEzaJSkjY6gUVLa3CmKqz+o3zl64JTmbVe53Howv2PDnAJ6FG7co8P1kjs1w3q+eKYe6Neow+v8AaK0T3k7KqR+afqe7zzdGjlIkueko570Wp4RNLbD31PcUt1x/UO0gka1vjDM60VGAPnhMR1pkGJGjQhaFTggWLTr3XFnJHMkhhF2YZiz+rBCUmJi4ErbURj+fFULw5xvkPNSWashe1cDdymh/9UMS45gYZiGY3rZEbrtP1GuZrnUf7D13Jr78ph+4Qg2Xy96R59qhGZMt/4o4Z2HctZL1rDz5tLd/sVhXgoOo5tLdzvC0wbtP9Ugufr7ejG2fUz5ro05PDzo3pMCA0/fOY7QuGu8Ivi1UL4j2dGrcKmOeyQNGmEtzuX7bHT8MaVkvn53qEFxk7+nNPsz3LsYzB899uetb3EY5769PPpjRvj/K+Lzs5Qkj/7o+HyvXvGq3q936b6563zb5B6sODXI87Zj/0H/L9gC/uBqfZ+KcU8PXoik8IhqpaDvJh3SeFAnHOGW+T0oNmuKYhoPqsIReDat2K5auTX06Vzre9gS72Iw21Vr/wHatzjMguBAr7l0jeM8N6nB0yD1Hew7z7aPKUm56t1f0pkjAb0dm1YEH09mb83CI6qVS/0ndez/w9at1+A0l5pL1wR8T7TaH+47Ya4GbggVNLbjPpPscNz/M1D99nHVyaWBrYwWaMumz4LuvtCOHNEtkr4eHOaavr1ff26QpNP6kKARAHoEwsYucOu9KYrVKV10Bo0G15hRkqr1hTlh0AdlOi8pZvD0gM3nT7YRGlZdVJNilLRoh4b4kolroUEtdg7l1bQiSWV20Ndr0ljFyKM6Y1jylfM1kgartzf4O3BWX0gaOLNcCTmBdU3NnrcCA8iKGscX41y53C6psSYopDS/QEuRfVG/8nmD1HeKUsKuPGgf0/jCK21SyyVH8Bqh/131PWVnZ4d5fE8vvGm+ov3K65zzaFWorlEaPMBaETopro8jPExUXNjeCrbaOnXjWblC8Oh4G6Fh1YUGqd8U5XbWKtOeGtWZ2yTVnfjf0L0jbfHTxiquzfav01h3qH2dUm29FDfIMbVDxCpUGnBMj85ckDRoiDIkPZGaKOmizpiB4caT8kiKH+79Tcd+nXum9hXYQeVVydXXt0v6/KxuMos6qt0LwzSo8pK5TVYAGBDQ2fX6u4JCyUi1tjDM6+8cCwqZHr9zhBSmfmQiWRimNdaiPEMGWiHaHQNcVkg4TpL6qX/4TmZtimhhmEsNge0+/5H+2beATbi5L602xwzwjVdsF3Pxlf1v7dYsX+AZ6THteyXxwbYX8Lmq97ezfamJo6SGE7073KvRr0G1xjSApXnJWm33+g732Vh9zvquEZ8ZuD0iQXM6LtUbvlAyV2kpLslzxOgpvknVFxwhqLyf9y7dt/SostpoR+AfXFvznCoX+L9rXZVLZwP3cSBHnyzwBnPWgi9B37vkUUujFHN7x1KsL84H3hFXXh6vMl/IFukx7e9YI+cpNT9UgOcU/D200+RM1MAQ5xj0x3ifEXbP0OCgsV33mRT0R9KoOHWLGlSnrBf+ZpYYPLqpTvpb2GTzT1rzgzmawxBqAOgxCBu7wK23x0h1FwPnUwyllTqxt7czEKh6Xh+tLtJ5xShpUbEeWFmsB1a+qqv4XS4qet3ukuSWe2u5Up0Px9xAludUuWCNKhutwNGqd8zohdgO5pdnh9uGhPmraxhXXh6vsj0eK3D0tj/gi61bvfvaX3iN83TOI9R1vq+1eVtU6HgEzpd4SOfqpT5xiZK+r3sSKlR2/LIvfJSkmov+Ic7zswP3VTj7XoWfffH6VL3iXq3e4bECx32ntXLfaa0sMHsQRC6twN6H99HafI+tsHpcmr8AGzJHKE5S3ORlgcfc55zvqRPUX9Qn5jZb7CB/wv9a3r9r7aFGK3Dc9x/at+8/9Pt88/Og67TZk2/IPfrVM/ZKzvYjeN7CztBGT77zZ/VxQM/JNupHYlyi7tBZ7Y1gSHNoVmhmhWgjNC7xrI6UNvjCR4UI5yJjLQzTXHqs40OFh7g0RFJMWnbAe7nrmdaGTV+ldhzz9aJf6+XSBitwtOv9ytfzsbv7Unv3VKh8T4uOzEzU+BduNitE3dBB1neNRwI+804bc+VG0ygN7CfJPc/4nPUOZXUoma9XMrarXC7dt9Rbr0RpRrVuyR51EpO23Ph+09qw6avUjmM2rUjSidKGgO9fo309H7tS8B/ifRw9OCVJI6dY5xXij+Ttus86y74YjZ+ZqOJBlSrfU6FjbYaOAIAbBWFjF/jy82YpboB/iHMHNH1+ytwUgc0qX52lw6uzdHj3KUmjNKaLA8crnzfYcwF5h9M4H+ZQF8dQnIKDapZLCXlXETiGEfzX5ggUzvC123PG/Eu69dd2ndke4hzb3/MgusOorTkRkxqPakPBQuXYjw3HQ/RF7DdM6YOGaXDlCb148YL6JE62nuuy6mqtKtbCL5dVttO/r5ydR6+zno0R2pgZOOTOPa9DgaM1j1KD3l/nH663et3BkD0b22L1uHQMqw6l5Kzq7PnHfMdzPkIN3etkTRcCf+vat2KVMjL+XRkZBTpcL8VOzusmgWMbPfns+fZiKt5xDKX9tX4f7pfKKGq7J589ZNc7lNoOCsPXb4tLKx4YETSUt0P6uzR1iEtDKiqUX1tvDTkf4tIQNeiScw6HSI0br4muqxse7h3iHTgs2vFobR7LjmrnMa1ekdZw7SMNVkh5fQSOt2rGzEQlzeytidconKi6YH3X+KP5eZeRrNXOodBRY/UUl2d7iOP5e1z6Wb0iV2ckW3/IkluPXA+Boz3qJHBYtOMRtFBeFLTzmFavyCSV2X+wjklb3k0CxzDMUPHMdus7b8gRNO29zzpBRrOO7anQxKOJSrpGfzwAAFwfCBu7wJc11ZJGaYA576JDw8lTUlyK4szUYEKqhphzL3bEB0/agWO8bjOOYbUveHtnCBouHakDOfrEDhwDhj2HEDhU2577Z+REx6rcoep1XNMKO3D0DYXp2HDpcKI6jHpMipIklZfaK0mH4R1WnXTnaKmuQjp5QuV9Ryt9oCRd0LkLsns9Sqp8O+Sq1R1jDeG2elV2X6V5duBoDllqMwC0hjTLUxyVX3atIYEh5noM0N7h0g9p+S+LVFRUpJ8GTPjXmgyluaWmE+9qn6TXyiqkfm5lmEMEF4+RW4366G1j/KOPR8tm24Gjo/ejJKnkvDU80jcEO5RNuulzSbePUIdXQnNqY47DqSlJilGoORMjEW4IbSSsnnxtBX/73zqmT+1hyta8k63Xb9WQEbrb1Z7h5KF9etG6lnekJEkX66UPK/SpK0lTB0tSvSoDhgCbw4lDu/rh4Yr4WNHV0WM2KH+zHTi2+7Xt1ZHPg3Bu1ZFTkiulRZ0d/VzVcOkOCTOMNRIbM+3A8Wrau14JW8uVGhRORZs5dPla6OgxN6l2iR04tvu17WNNr2P0UPQKOx9kuOHh9nde7wiagJEzV3GfRUnuQ5flUpyO/MIsMbn1dZx0sznfgcPCn0brswUA0B0QNnaFD4pUXicNyTbmT5zwqpK8AeQHRSqvi1HS3FWOHpCLlJQ9Svp0j863Ok4y2K0zd/j3bQs7L6R3fseHFxkFnaBwu7VISt7eoPAvQM7eoL9EW+FgK0NRZC1Ak5jmUnPpdv/k5i8Xq1ZuuZ1f2ELUi0yuBm4w2259YXQO1W4qtv8q3ea8QdeYPZ9i0h3f922an20Oo5YOXLwg9b1X2WOlv/zlkKTf6KPKPkqdeq/6NNapXPIFg76FZSRpzKqrHEZtDeFWwjQ9O8gs6yq5ytpp9jixQ8MLZ4N6EXgDwNALr9i9EtwT/ftbXNLhYdTa+Fu9Xy8lzTXm/lpcosd8AaS9AI17np4K2SbDtKm6y+4slTx2oVka0hMFM+VWhYpX2L9UbNyjw/V99cDiHPlnYsxQwdxEyXPAsfhLhgp2OutIypyke/oF936UKvR5vRQ7eaaeMEqc/uGER4obq78PM0vay9uTL/TCMJK0v7Zekkt3p/gX8lixKLJh1I/PebDjQ5Ltnnxth5zWQjF33PmgxiVGUj8870ImYYeTR2h/bb3kGq/vpMkOcc/qwwqXJmaOV0zDJX0aUNs7V+F4rRgSUODnnVPzaoaHS1aAd/islPjgNewtGOkxR+hni+4JnNvTDn87vqBOpO7wzaWZPG25HjKLu6uNv7UWzFhqfnZ3ntIdB1XXb4py2+jxHp9/1PH5bElLdUuqUXVH/whlzwvoXByvc9iL8I2cF/QdrfNEesz1SjDD1vTp6t9Xav48fOAVDdYf0p2L1Tg9p5rSBsWkPRUwMic231oApspcWdyrcIZvSLjzvCO9z7rcxIn6StJNNWHOTws1Ltn613X12QIACOumxMTEDnf4SE5OVlVVlVpaWsyiLtVd22VyzS/WGO8SlLJWlD4csDr0dA156lklOVKHpvdedKw6ba1sfc+i+9VsrGztml+sMQPeU9krz/vmfQw6Xl1geYAJr+qBbGfPp1M6udq5Mnbbej19TClpUmWBORw6WGx+iPkLA1Zd9O7P+QuYOVn2eiVsnWd9wXYIWGHQJ7iuWS82v1zu/s6Vra1QcnTeFH0RUDd4X82laxwrcHsF11OI415zY1apcKo/Dbl8/DX9Ugu0ZOwF7S54XtskadAz2jz7XvVpPKoNhXYvSO/rKouV41uB2h6W7d1Z41FtKJF+MPte1exfaK96bdQJUOE/ps9kPZvzhFIdczFdPv6aFh3wzxPZpsxteipcgFd/UJu8iwjkH1Xu5Br9McOxYqnW6bF98xR3aK1jNVJrm/Mc6gLKA1n7ddy7jmMG7av+oDZtlL67dIrqfKtKh2pDuPZ6h2Y7Nni2Bw+PDnlNGvT+OnNI4UNa/st/1QSXdPoPc/QjoytcRv7zWjbZmCirvlRrZxdqX8BGt9buzNMDjo5XTYcK9B1vIOmVmaPfL00LCPADVroOkKGCfTMVcKpBddfrqxfm6evDa/SN4tDvT0TsIdLnnStIhzB1eraednxOfVrya31456P6Tv9jenmzFYCZdSRZKyPb5ZYR+tkzD/pWKQ50Vr93rKL8+JzA/bdq3IPalTkixPHUxjGdq2db9YaU7tY/tyccHfegdmX2C1gd2Tf03Nkebxsr3gkaOmwFuIFzGDY72mFd2/qA6xPMPs+Q+zd42xewMXCFZ0sb18Q+p4AVyMOJ5Jgh6pj7DnlfRHgft+ahH2/Vv94XIzV8oJ//YI3+ZFZoh/UbKjRv0ECt+V5MhxeJsT4HFeKzK1jQZ6NCfz6mFZzWI4Ocn9NOucrauUz3KVy5U/D/FbJXzrY+2y1B7Qr4PyLcd48w31Mk//eNxlBlkbL3YXwXC8lun3nPBn//s/Z5W8jvSNYfllNnuiP7XhTJMUPUMfdtfbesCfl9Mmw7IxD0ndV4L9oqt/6YvVwJlwKvv+/7csD70vZ9FvKetr8H+L9rtF/uCxe0/P/00vaZ/dTaXfL3x8p15faDuvXnOWEXbPN9tui0/ouFYgDgukfYiB7k6r8cAmgfK2y8qN9lvKrXzMJu4uusY/ryAekbvxivmz8zSyMzdXq2nh5VHiKga7/IArFIWSGXriI8ardxD2pXptrf/lBhY1RZQeTdp8IEfoiOacu19V8mKOb0f2nOj64uDohG2Aig60QUNg4r1F9/OEU3/SFJtxwxCx2i+NkCAOh6DKMGAPRoNxUX6xa59NfvFXZw7sY2FobpQm0vDBNtHV8Y5vE7R4SYhzGKorEwDNrwkJY/PkExOq3/ikIY4LnQ8Uk2AFwPcvW3703R3+oO6ubWgkZJC789QTFq1gd/uPrPFgBA1yNsBAD0cM/pll8c1M1xU/TlYx2ZN/Ws/u2lX3fL3nLWisTt7GF4VRqUvzl4ZeRgI/SzOSP8T+25FJtLj3VeWz98R7Ne6qxek3jox1tVVPSvmqAP9PMoDXHc9FkvyVWreT80SwB0f19q3v+5LJ3qHbZX498fW66/xnnUq43h00VFRfqn2z/Qz+cs0Jq3zRoAgOsRw6jRgzCMGrjWrodh1D4T96rl21KvF2Z06V/aojuMuhvzzr1oc86tCPj8sF7ls+skSZ6diZrR5qq2wLUTNLdiGOZckD3bl9q7p9qaL7mhlWkQhhXqrz8cq3+4iilMAADXL8JGAAAAAAAAAFHRlZ07AAAAAAAAAPQghI0AAAAAAAAAooKwEQAAAAAAAEBUEDYCAAAAAAAAiArCRgAAAAAAAABRQdgIXHfWK2FruUY/nWsWAB23uEQr9x1VVqZZAAAAAABA5AgbEaTX08eUunWvYs0CXCVCQvRU6/TYvtN6Kp97GwAAAABudISNAAAAAAAAAKKCsBEAAAAAAABAVNyUmJj4tbkxUsnJyaqqqlJLS4tZ1KW6a7uCTHhVD2SP8j//tEiHt2121tCtM3co9f4Y/wazztBVumdRimo3z9UXDxdrzB329rr3VPbK8/rSX1NKL9TovCny780jz4IZapLsIb7zNNBRPZCzbjvk7FXqTLdjQ7j9mMcPU8/c35ntKlvxnLNGZHUkxeaXyz3S/7y5dI0+eXmTs0ob1ywyvZ4+ppQ0l7nZJ+i4bR7Tula3OV/neE3tniRVFnrr5mrghuVK6Ot93qDKgvGqPeB9bu1Le5JUM8TZTvOYXSBnr1JnDlZlwXi1ZDnfq1Bti+z+aes97/X0MaW4j+vEkrMa7NifWc9X1/m+mvdZeqFG543VJbP9jQd1YkmOrvhrSpnb9NTSKYrzbfDojxmZKnXWkT2v4lzHve3ZrtV5S501Ihd0TElq0Pvr7lVxifd5rrJ2LtN9/fw16g6t1SsrrGsRn39UuZPD39vOupKUVnBajwR8HFxF+81rEe6aBZ2DeY42c38h27ZOj+2bpyTf89DHNM/TvA4Wc19h2uXbX/hyAAAAAOhOCBu7iGu+FQye352l8g/sjRNeVZKetJ9P15CnnlVS3CmdXP2kGiRJi5S0co6GOIPEoat0z6L7FSup6b0X9dGet/z1nMGkHUbJDKiyzuoTI4izQpSakGFNuwTt3xt8GUGQNxwMCGvWKyFfqnS0zRsUBYRpOXuVoBm+51bb5QjU7BDKCIKsfQW2Izb/mHoXO4K4dlyzyIQICQ3eAMt5jlZbnSGhsR9v0BgUYgWfe9jrI2dYZr9PMvd3jTlD49baFuJ9Cv3+htoW+J47A0Tfe2C3w/+ehLqP7evofA8cAbA/rAx+T7yhn5yBVOY2PTX3rF5xhF1WsCdH4GSHVSFDsTbYwVr5jmS9sdG5bXBAoJVWcFTxOxwBl/264PDMaktc0Ha/+Pyjyjx3r/943rCzI+0Puj7eQNEI/7zHqD+oTbPnq9pbt+CbKs3zPveHg+b1eEyZQe11vk/W6wKPGXqbcR1Dvnfr9NjOESrxtdOoGza0BAAAAIDuhWHUXWHoKo0wg0ZJ+sAbNEqaMEdJcc0q3+wNGiVps8p3n5Li7tfQCb6Nlk+L7KDRqnfxU0kDRupWb3niYMWoQZfedfyieiCng6FZhIL2v0m1BzyS3IrL8W7L1cB0M2iUpOcCgkalF2qoGTRKUqE/aJTWa3CaS82lrzh67j2nyj0eaWSWBqZ7t+Wqd39JZ44EhKlNK5w9/rrimnnbvybgHJtWbFetXErIWu+sbFuvhJBBo9Tr6SwNlEceR3uvvPyKKhtD7KvxoE746m1Sg6dB6jtYvQJrtcFaACc13CM/VPvb1ly6xnFvBLctNss6/wpHgGtdM7eG+hbjifA9twXcZ4XbVdkoDUyx258zTwl9G1RZ4Azj7fus7xQN9t3btjPbHeHyc6o7I6n/CP+1dQ9WnBrkedtxn5XMDwgapXXKnOxS3aFXHYHVUr2xwyO5s9q5gnSusjLdkme7P0gLozTP6Em38bd6v16KS/mm4h2bI1G9whE0yjrHdzyS3BOV5tgckaDrs0nFJdZny9jF/q1pc82g0a7rCBqVuU0PmkGjJG10BI2Off3OEfaV5m1Xudx60LcwTq7iB0nyHAno7Rh0HTNHKE5SeZnzHJbqjaCg0dp+3CPJvEcAAAAAoJsibOwCt96bolid0kVn0GhwjRklqVpfVBkFH5TpvKSYwdMDNp8/GTj8OkhFjZrlUkLeMUfo1gUqatTsfJ4+Xf37SrUnWg/wek0aqxh5VOcMGk05EzXQDAflP/feid4Nm9RySdLIea0HYNf6muVM1EBJX5w3A4UQAZUkaXpwbzqfXLncrqBwzXfuxr6aPW9FoQfjc6pckKSycI8OhrTm9bjy8niVOXoUxo0M1X6PWhqlmNu9Y1kjfM8lKeg+C7xmsSluSTVqMUPKwiOqlXTbkMAVmdu6t+WpUZ1cum/p0fCh4eKJSgoVNtmvHegcTdyWzG/K3c8MuiK1SdUXzG0dV3XB/6eUq+apUV3AhnUa65bqTvxviADPL37aWMXJo+OtBq/h9nVKtfVS3CDvdBj29XHP08qCdQE1A5ScVZ2kpLmn9ZgjHA2nNC9ZqzMYQg0AAADg+kDY2AVuvT1GqrsYOJ9iKK3Uib3dMddjJA7k6JMFdg+5PG9vs72KNetFWWy+0bstYC5Cf+/BlgrnxmC9bndJjTWtBmK9hgyWAs4vzDElNa1I0onSBit8suuN9vWCs3XJNWvlWhg9DWPSpljDny+dDXFd3Ord1w7XjB6GzjkLr3vpI3SbpJi05cZ5OueptET0nkeqlXvRH3BGqGS+XsnYrnK5dN/S01q577RW7isJ6O0XP9y6t/3l9iNozsUoy9ymp5zH22fMudgu6/SYsa/W5ntsS1pBG9fC7j1Yd84M7wMNHeSS6mtk/l0ngL2vuMnLAo+5L3A+S9nB4KZDDVbgaNd7ytfz0Wup3shYq/frrcDRqtdK2AwAAAAA1xHCxi7w5efNUtwA/xDnDmj6/JS5KQKOnmd7rCGH7k4Mz/xzDTp6txUcDOzZGNTrMLQrn7c9rPfK+Rp7AZQQveoWGMOvfT3kklS2YI0qG63AKjh8urbXrFVGwNVcusZqU8jeelbPPp3ZHnQdyhYkqSyoJ2Q0dM4w6lYdOKsvvNfCPMcFwb0pI3vPr07z5x5zUwSW6o2MZK3OSNbqHdZ99ogjcKw+Z93b76+z6xiPtoZDd4hzTkXHsf7YkdPzzjtYf1CbHPvadKhjPRv9C6Y4rsO6g4E9G+3eg3HDW39/qy40SP0Ga6hZ4GTvq+7Q2qBrvzojOWjOyeoV99plVqAYN3lZiMBxk4pnO9veRu9WAAAAALhOEDZ2gS9rqiWN0gBz3kWHhpOnpLgUxZm/AU9I1RA1q/aod37GDiqcYYdng9XbGCJshXbB29vHGt6qM8Uh58TzscMi33x4YVhtcs71GEKEwWWwTapdYodPrfVKa+WaRcYc2msoPKJaudR/khlKhBsqbLXJ21svMDQLPVy6c3XOMOrWtXFNw4rwPZeCrn/TCY/Ud6xc5j0Qbhh/e23MtAPHwYr3Bk/tHS49bbm2FhWpqOinWmiWhQzh7HkcHazhxQ16f0ckw63N4cSGxROVJKm8JNSchKE8pOW/LFJRUZF++rhZZg1plqe4jWHFdpvamF/SCnID53oM1sb5hbVJxbPtwLG115bM1yt24BjqPY7PPxqmhyQAAAAAdD+EjV3hgyKV10lDsndoiDNMnPCqkrwB5AdFKq+LUdLcVY4ekIuUlD1K+nSPzrc65i9Yr6ePKcEI6sLOPeedq9BcRKRd7J51Iyf6ewHm7A0xpPk51YQMy9YrwdkTzrtIx0xj/sScvf7zOpCjqjMh6gRZr4QNhYEhnD13pLNXWruuWUS88wY6F6txsq5FTNpTAeWx+fM0UB5VhVnB+srL4+U5Y/XSc7a3qfigmvtOUUpn9CjsNuxFh4LuH1Nk73koQde/cLu1yE6Oc3/rlTDT3Xa4HkJ8/tGgefvSUq37rNobptmLqSTNjazn20NT7rJ/zpI1LiissxYciZv8PV/PybSCZbpPDQE9A60QziX3NP/iJ1k7ww2j9s5VGGaxGns+xaRU/zyGaQWtDKOeNlV32UXJY8241Ar+AhaWWVwSPIzau2hMvynKDZg/MVdZBdv8AaS96E3QtV1c4nhf7H2557UR+K3TYzsd+5Z/jsy6C47e6ItLgvbjDXdrg27HXKWlWBfD+Z4BAAAAQHd1U2Ji4tfmxkglJyerqqpKLS0tZlGX6q7tMrnmF2vMHY4Nnxbp8DbnQi/TNeSpZ5Xk+A266b0XHatOWytb37PofjUbK1u75hdrzID3VPbK8755H61hzf46CrmwiC1nr1JnOlMFjzy+RTkitd5awMT7tPGgThRKiXlT9IW5qnSExws6h6BVrK2QMCXNCDHMc00v1Ggj+Axa6TrU8cz9tFuuBm4InE+wuXSNY7XiEO0POqZ1XW8LeJ1/v4H7M94Dm/9cQ+3L24aakO/BNWPfE6HelyAh3k9rSL1jtekQdcx9B117hbr+iuh99B7PvNdj88vl7h+4T2tYsL+OglZQtsTnHw0O6ELVnbZcW/9lgmJ0Wv8150fa4iyT7ODQP99g3aG1euXtb+qppWPlWedfiMQ8XvmOZB1PPa1HBoU4prFPeffrXb15cYlWzvWfZN2htfqdnlTu5Br9MSMzYPVmq2fjv2qCSzr9hzn60esBhf5h2d6n9Qe1aaP03aVTVGeuKu0dDu7b0KD3HefoFfQeeLYHDY8O3peC9xeiTtBK1yGureQJcR1svmsXuu0AAAAA0J0QNgKArVuErEAQx5yXQSEvAAAAAHQvDKMGAKAbi8/PaueclwAAAADQdQgbAQDojhaXaOW+0/ZQ8+Ch2AAAAADQHTGMGuigkPP7hWDOC4jui2HUAAAAAABcHcJGAAAAAAAAAFHBMGoAAAAAAAAAUUHYCAAAAAAAACAqCBsBAAAAAAAARAVhIwAAAAAAAICoIGwEAAAAAAAAEBWEjQAAAAAAAACigrCxK2Ru01P7Tmul97Fzm+LNOl0krcDRrn2n9dhiswbQCSbuVcsLe/V3c7skaYR+9syj2vXMg3rcLEInsq77r6a7zIJrIja/XKlby5WQY5bgetHr6WNK3bpXsWZBZxpWqL++cEx/G2YWAAAAALhWCBu7Qsl8vZKRrNUZyfqjxyzsWqV5VrtWrzuoOrOwI+xgldAy+p4o+A/t25mjDLOgAzLyn9e+fU/qCbPgWhhWqL9+262bD2/nAykqujYkxPWvS0LCaPksRzefcumvPwz3xwsAAAAAnY3f7dExZu/MfUeVlWlWQleyAsT/CPko6Dbh73p99cMp+tup7fpG8Saz0FavSw2SGi7pU7MIPdaVzxskNailwiwBWvcPb6zRN+rcuvKvhfraLAQAAADQ6Qgb0X6LS7Ry6RTp0FqrF2RGslZnvCotLlGaWRddZt+KVcrI+HdlZBTocL0kzx77+b8rb6NZu2t8nZWlr+RRrzeeM4sAoIM26ebfHtTNcVP0VVauWQgAAACgk92UmJjY4T/8Jycnq6qqSi0tLWZRl+qu7QolreC0Hhl0UJtmz1e1WSgpPv+ocic7hkN6tmt13lJnFds6PbZvnpJ8zz36Y0amSp1VFpdo5Vy3Y0OIOl6Z2/TU0imq25GsNwKCqVxl7Vym+xS+zfKel/NQhnJjv2b9ukNr9coKR0+3xSVaOXew3l93r6rnOusGn4O5r9DXzD6PfsbmoGNnqGDfTPl3V6HfZbyq13zP28PcV6MOr1ulZSUBlULUcxwzM0e/X5oWfnhjfanWzi7UvoCNbq3dmacHLuxRRp6zxDyOKfhcM/Kf17LJfX3Pmw4V6Dsr7LkAFj+pfXOl3627qKylaYpVhX6XsUcjd+bpgX522Blw/PX66oV5+vrwmlZ6NUZo3IPalTnCseGsfv/SO3rdscUyQj975kHd4Xsepp65v4p3NKvorLNGZHUkPT7nUX0n0f+8uXS3/vmtBmcVacg9+tX88YrxbQjTrlZMnZ6tp9PCD50OOm6bx7Su1RDn6xyv+bTk1/q3D711XVqxKFsTfYdv0JFtu5V/3vvc2pdKfq3fD3S20zxmF0kv1Oi8KY5r0aDKgvGqPRBQS7KHGKc4rnNz6Rp98rJ5/65XwtZ5Guh77pFnwQw1BdTJ1cANy5Xg+3EKfUzzeDqzXWUrgsP52PxyuUf6n4duV2vMNpvMczDrB7ffantNwOt87Ww8qBNLcnTF3m7+X2f+H5BWcFqPaLtW7xihp5ZOUZy93fy/xOnvj5XryiiPer0wI8xfVh/S8l/+qya4Tuu/5vxIW8xiAAAAAB1C2NjFwoeN3jDMGabZgWK9Ud8bIgaEauv0WIH0hvd55jY9NfesXvGVh9q/Q1thY7jXmcLuxyvEOdmviXOejzMo9W0PDj7j848q89y9/mOF2leY1+VOdgX+4moHe3IEak8U/Ie+6w4O4dpmB3sBgVuGCnYO0W+d4WA7jvlEwX/ou4NChYumcGGjnxUiXgw6hlNQO8y2Ln5S++YOUFP9RRXPPqm0fTMVX98onSjUfyoneP8T96rl24P1jV+M182fBRyqfYbco1892KB/9gV93uDLCLK84WBAKDhCP5sj/ZsjJPSGgwFh2rgH9TO943tuBXtyBGp2iGkEjta+Atvx+JxsJbzjCOLsAE9mqBdwTu0RIiQ0eINJ5zlabXWGhMZ+vEFjwzG9vPkj7fftLfjcw14fOUNZ+32Sub9rbb0SNoxQjSP4sgIxMzzzhoOB23s9vVeud2f46+XsVepMtxEKrldCvlTpfL51ngY66ljBnIx9h942+Px4VRbau/K1NzAMjM0/pt7FweFlJEKFhAHsc3QGmt5QtHZPkq9t5n68QaOzjnx/IHL8n2J/bssROPr/iOSvZ31uS++vu1fFQX+08X7GuHXLH5J0yxGzUNK05dr6LxMUI+n0H+boR12eegMAAAA9Q+g/9qPrLf6e7uvXoPfXOQO9pXpjh0fqN0WZvjn3cpWVaQaNdl3n85L5jqBRkjapuMQjya2x7Zq/z/+6R/ad1sqCdWaFdonPz1KSPPqjMzwtma/fHWqQ3FlB80DWHVrrOM9NKj3RIPUbrKH2luoVjqBR1r7e8UhyT/QP8c78ptz9pPIS/zGrVxSrXFJSqv98npibptj6Uv2nt+eepNfy9sijRGXlh+8PGFLmEMVL8pQ5w759yjOCwqgeM5oyc5Tlljw7HGFhSaH+81CjYifPdCws01c6scdXJ1Yex7kM0EjH+/n3FLdUd1z/cDVBoySd/8gI5RqUf/ispBEaN867zaUVD5hBoySdDQgaNeQezTCDRkn60B80SiP0nTSXmkv/5Oi5d1b/VnJWShyvFUO821xK6C+poiKg597rRc4ef5IG91eMGvTxCUcwGHRO0eRt/+6Ac3y96B19KpcmPujsIeo1Qj8LGTRKU6eP1x06q9872rv/rT/pSEOIfTUc08u+eg3af6pBcvV39DTtCs+p0hE0SlJT8UE1y6X+kxxDcHPmBQWNknTlZUfQqFwNTDeDRlnHcDzv9XSWBsojj2PblZdfUWWjSwlZ6/31bndJjcfVEHC8wKBRylXv/pLOHAkIBptWdCxobJv/HJ09J632SwPTC9UroL6l19PHQgaNytymB91S+Q7H/3X2/wFxk79nTM0R+H9i9dvHVSeXBob7aDxyRLdI+npwmKHUb+/Xnxsk6bQ+JGgEAAAAooawsZtKS3VLqlG12Vtj4xGVS4obbv/y5A3OysxhwhHw1HRsxemNmVqdsVbv10tyz7MXiOnIfI25SktxSfU1qjJKwv0SWXcucFhg9Yp7tbqNHpZVF4zeXe7BviF4proLp+x/ZSjNLTWdeNfoNVihz+ul2EGOcbGRKDmvaknuua0tzhLlY0ZRxjS3YlWhUqN36r5zF40QsVEfve1YYv3C+TC9LnP19e2SPj+rm8yiaKi5pGbn8yEjdLdL+vQvrQd4U1OSFKOz+tAZNJrGJeoOMxyU95gu9R/s3dCgykuSEh/UrjmhAjyb/bqJ87MdQWUnGpeoOySdrzV7PZ7VhxWS+rs0NWC73SsxRNAouTR1lCsoUPWdu7Gv5lNnu7AHYzscOKsvjE2xKe6g4C9I+nT17yvVngge5uyXK5fbFRQOSpvUcklS/xG+sO7K5w1S3ylK2RA6wLPYrxs5T6n5/qCy09jn2Py54+dckrRJDZ4Gqe/goLb2DtHr0St+2ljFyaPjxmdL9bkaSYMV7/yDU/1xlZr/J7bKo5vqpL+Z/5H4/ElrfjBHcxhCDQAAAEQVYWN3FiKE84obNMr6h3uw4tSgWvP3vhDSCpyrR5/WSse8V+23ScWz7cVhdvh7Oj4WNkhrxYWzYed+9IWqEVunxwJWyT4dOOelJG38rd6vl5Iytyne3mT1sGyQ5207zLR7IsZOzjNWcrbnH2y3fcqzF2pxz/Xu63mtdf4iHfVjRs/oQX0lJeq75srWc7suAHV6fM6j2vWM4xEwF6G/9+ClGufGYHcMcLW56vXUgf0kuTRxfhvHlPR60a/1cmmDFTja9X413bgfz3+kf37J7lXo2+eDejywVpS1ci2MnoYxaeOt55caQgSF/dTfZQeqzmvxTOA8ld1dr6ePKXVrueNhzl1o9x68dDagB2SQxMGKaXMFbbd697XDwYBjBs65KLsXY9kejxU4euuFCBSbViTpRGlDwD5HP93ez872+eJ8uPkgB6t3uvO5WwlprrAriw8d5PL3lHc+AuYXBgAAAHA9IWy8Tvl64HlqQvYANFnzXTXo/XXe1aOTtXrdwY71bDRtzNTqjO3WMGRHgBcNZk/G1jnmf/Stkp2sTYfMHlyjNLCfpH5TlOsLJI15v+yeiE2HCnwrOAc8wsx92DqPls22X7+uVE3qqweWOgLHTjlmdHxyodFeMCZEuzJCLXJz7fjnGvy1Zr1kP7YdC+zZGNTrMLRPL7Y9rHd/bb29AIrjeI5HwPBrSfvf2m2X7daRBikmLTs4cNRZ/Zt3HyXWEPDvdHrgGIYRtjaX7rbaFLKHZr0uNdjzMIa4FrOCekJ2P865BssWeB/bVRtQK7jXYUgVNWqWS71bDVo9amm0F3rxHc/xMIZ0q3CGr8xzJnwPxisvj7frrVFloxSTtrzTA8fQatQS0PvTI8+CNdYQ8bxjGhgQRHp7nnv0R8dntv8RZi5GAAAAAN0aYWM3VVrmkfqNVZoxZ6EWTwzsgVdyVnXGXIPB1mmsW5Kn+Nr/4ma3L3QPRXvORed8irZwQ+tatXiikhQ4F2MovnkiW/2ltv1Dl58osHr7/T6SuRVLCvUdO3C83Ve9fcf85EKj1G+ARpsFHRA8HDpQW+Xtt0k3fS7p9hHq8ApVkjUvY6KkimOB8yCazjfovKQ77jTDskBWkOic6zGECIPLYA3K32wHjgNa6ar64Tt24NhPCR0aVm0FgGGP8WGFPpVLd6eYgad1LUMOdf7wHV8PzcCgNPRw6WsmZ6/Vk6/VYcatsYc0Nx5UjTG812QNaR4rlxGWBbCHXw9MCQ4D/SIMLkNoWmEHjq2+dpNql9iBo//DpV2unLeGMAf2ULQdeEuXGkOdY7jh4bLbtF21cikhb69iHSUhh0tHjVtfx0k3t9L1f+FPi1RUVKSfdkmyDwAAAPRMhI3d1cbf6v16l+5b7OwpuE6PzXUboeFSlRxqkNzz9FS+M9Bbp8d8i7ecUm29sUjK4pIODqNep8d2BvdetAK8UEGfdezgif4t1sIsbj3iXGgmc5u+O9mlukO/bXUuxiD2HJTO4DWtIHgYdWS/3Hq0rKRCcs+MLDy051uUpNiUScowixc/GbQfax7ERvmnPmvfMa0AMEoLx3guWj0t5wa13LJxjw7X99UDS590LAZzdf7hhEeKG6u/DzNL2sPuWZeY6O8FOO7BEEOaz+r3IcOyEfqZs7feh8d0pEG6I9OYP3Hcg/qZN4A8/5H2VoSoE2SEfrbonsAQzp47svlivW/T1OnZ/n3bHr9zhKR6VbYWoIblnSvSuViNk3UtYtIeCih/fM6DukNntTfMCtb739qt31dYPTOd7X39nWNqdo3X00G9HjtfryF24tt3igbnmKWRsIM/Z4iYXqjRQcOopSsvF4cMy3o9vdfRW+851djDmQN7Fa5XgqM3YlPxQTX3naKUED0U/XI1cEPgsaT1ihtpDuderwQzbA07r2KE7B6azsVq/Dap9oBHGjlPCY5r3uvpp6wFdIrDzVf5nCoLDqpZbrmd7fX+X7e0I/P+tmHiRH0l6aaacD3kF2pcsvWv5GnL9ZBZDAAAAKBDbkpMTOxwx6Lk5GRVVVWppaXFLOpS3bVdXvH5R4MCMK+6Q2v1ygrvL0a5ytq5TPc5OigFljssLjHmuPLojwELp9hDjL1P6w9q00bpu0unqG5Hsr2Cs1EngGN/mdv0VFBQaR7PKXi/5b5jRlLuP7+g7SbjOtQdWqvf6UnlTq4JaJ81rNxXzc9c1TszR79fmmb8wt+ow+uChw4/UfAf+q7bGgb9Hcdq0l4Z+c9r2eS+ji0V+l2GY3Vnr3YcM2if9aVaa69wHVTm4Nnx78ozr+PiJ405GIPb5z3HAJ491hDvxU9q39wBdjszVLBvptx2mdUWGeewXl+9ME9fH16jbxSHuKcjZi9g4n3acEwv/0H64fzxOm+uKj3uQe3KdIZiZ/X7l94xFjfxDs12bAhaxdoKCZ9OM36OzUVUhtyjXxnBZ9BK16GOZ+6n3VxasShbEx3Nay7drX92BIlB7Q86pnVdhwS8zr/fwP0Z74HNf66h9uVtQ33I9yAy65VgB4OhFh+JTK4GbliuBN+PikeeBUcUt3WebitdE7DicnBdqTmojt3jcmbg57FnwQyjx5+/7U6B5xFcJ+Tx0gs1Om9KwH3W8etha+sc2ir3DVGvCfO6wPohP5Mdn8dpBaf1yKCD2jTb8Qct+/8i//9hgf7+WLmu3H5Qt/48J+xCVA/9eKv+9b4YSaf1XywUAwAAAEQFYSNuOP75K42h03ZQGTbQRdR9nXVMXz4gfeMX43XzZ2Yp0LbY/HK5RzaosmC8altbKRo3lmGF+usPp+imPyTpliNmocO05dr6LxMUc/q/NOdHRI0AAABANDCMGjeYXMUPklR/XKXm/JX2MGxcOzcVF+sWufTX7xVe5dyNuCHl7JV7pNRc+gpBIxxy9bfvTdHf6g7q5taCRkkLvz1BMWrWB38gaAQAAACihbARN5hNqr6gEIvv5Cpr8RTFORffwTXwnG75xUHdHDdFXz4Wan44IJT1SthartSZbtXuSQoeVowb2t8fW66/xnnUq43h00VFRfqn2z/Qz+cs0Jq3zRoAAAAAOoph1LghhZwfrN6YDwzXzsS9avm21OuFGfwFxBA0t2IYoeaCBELN5xjSme0qWxFucZfryLBC/fWHY/UPTM0AAAAAdBnCRgAAAAAAAABRQSciAAAAAAAAAFFB2AgAAAAAAAAgKggbAQAAAAAAAEQFYSMAAAAAAACAqCBsBAAAAAAAABAVhI0AAAAAAAAAooKwEeipcvYqdesxDUw3CwAAAAAAADoHYWMPMT97iwpznhG5Ug+QXqjRW8uVkGMWAAAAAAAAdG+EjQAAAAAAAACigrARAAAAAAAAQFTclJiY+LW5MVLJycmqqqpSS0uLWdSlumu7fMasUuHUQSrbuVjnJm1RdoK3oEK7C57XtqC6if7nlcXK2f0b69+DntHm2feqj780UONRbSh8SQfsYdbZ/fzPJf/ra/Yv1LKTkpSrgRuWK+HSdpUVj9DovCmKsas2l67RJy9vkiT1evqYUtzHdWLJWQ3eOk8DQ9RpH/u4ff1bwu4rZ69SZ7r9z89sV9mK55w1QuyvQZUF41XrO3FLr6ePKSXN5Xse8pjphQHXQfLIs2CGmgIqBe8rdLtaF5tfLvdIc6tf7Z4kVRb6n5v1g9qfs1epMwcHnLu/ncZ5LC7RyrmO6+rZrtV5S/3PM7fpqaVj5Vl3r6rnntYj3qr1B7Vp9nxV+2taHv+pir6drOb3f64FP/mTWQoAAAAAAHooejZ2mT5Knb1F2SpWTsFC5RS8prLGRGU75l1MT99oh5IL7TrFKk/IUmH2960KF17SogKrbHelHS7az3MKFirHGSy2x8h5Ss0bq0sFSSpbkKSyPR7FpC0PnEOw7xSlbM1SS2t1IhSb/5RUaO/Hsa/RT+ca9cqVOtOt2j2OuicmBh4zvVCjty5Xgg7qhLfOglekrEL1MvaVklYjj7dOwUHJPKYdNKp0jf94BTUamr/esSdvgCdVeq/FgiSd+Dyr3deiaYW/Lc12uOg77gJn0LheCVvL5e7vOEe7/alG25y8QWNz6RqVOYLG+PyjWjl3sN5fl6zVGclanbFd5e55WlmwztiDS/ctPa0HL6z11+s3RblB9aSFY5MlSTF3TtVDZiEAAAAAAOixCBu70OXjr/l7KeqQDlRclvrGKUmS9H1lj+2jy8e36sUL3lf8Rsv2V0gJ0/TsIO+2zuCRZ4GjJ2DhEdVKum1IYPhXu6ftOpFoWmH0OizcrspGKcY93R8Qphdq6Mjg3n0qnBHY2y9rimIaD+rEkhxd8W3dpNoVjue+fTl69h3IUUVpg2LS5inWuy1xsGLUoEvvOnoLHsjRJ0aPxV63u6TG42pwnMOVl8cHtjOKej2dpYHyyOM8R7v9GpkVevXpnL2+oDGw9+Y6ZU52qe7Qqyou8W5bqjd2eCR3lrIyHVVl9Xh8ZYX39Ut13CNp0AjFG9W2HD8tSWr+y37RrxEAAAAAgBsHYWMXqrl4KOD5gQOLleMdRj0mRUm6rL/8JbCOaut0WX0U5x273BkaaxxBnSQ9p8oFSUZI5VFdJ4Vp0ia1XArc0mvSWMW0ecz1ihspNXveMtofKNy+rpyvkTRYvb1hXUWNmuVSQt6x0AGe7crnDVZPzw2BvSc7R65cbleI90i68u5xNcul3o5R95KkSdbQ8+CgUdLiiUpSgzxvG9s9NaqTSwMdI6slqbzMMbS6Na//SHPmzGEINQAAAAAANxjCxm4qfcAg31DrwjzHo7U5Gq9X6YUavbVcqY6HOXeh1XswOGALkD5Ct0n64nyIuR4det3ukuSW2zhmwFyQsnsxLtiuWrmUkOett9ff89F25eXxKtvjsYeW2/VaGc4cFZfOhr0Wgb1LXUpIs84r1HWJHz7YNzx65T7HY+kUxZmVAQAAAAAA2kDY2E0duHhB0mXHfI2BD2tBlx7AuwDLme0B8xN6zgRWs3oPDm695+CBs/oiKGwLduXzBnuoeOCciNbDXEjG6tVZtsCaS9IKKYMDRxXOCGz7yHmdHziGERgqNqiywGrTwJnlQfNIVp+rkdTgmK8x8PHGxsD6AAAAAAAArSFs7K7aOVy6vM4532Nk0u8c3eW9JK0hzQ2qLG595WZriLNbca0uuuJRiznXYwhBw6UjVTjDDhxbf23TCjtw7D+i1XaE1WpoukkNngZp5MSgwDPc8HBJalqxRpWN0sCZxpDwMMOlr9q05dpaVKSiXy5ngRgAAAAAAG4ghI3d1YWX9FallDR1Y0SLwVg9IRM1PX2yWST5wsjRSrf3lZ6+UUvGdnXU6A3+XOo/yRus5WrghuBh1N5FY4LCspy9jt56m1R7wB7OHNCrMFcD8x3zKRZuV2WjSwl5IXooOvR6+lhQT8DYFLekGrX4ej/mauAGcz/W3JGtDXVunR2aOhercbjycrFq5ZbbeY7phUpMc6m5dLt/0ZsAm1S7xDsk3NHekvl6xyMlzT0avBjMVXhoyl2KkSTXBH3ncbMUAAAAAAD0VDclJiZ+bW6MVHJysqqqqtTS0mIWdanu2i6fMatUODVR5fvbHg4dMhRsPKoNhS8pYLRvqLpGvfnZW5Sd4Cz7TNl5WZKvHbkauGG5EmSu5hyo19PHlJJWI88Cx2rOWq+ErfN0W6hFSNpg7c/le167J0l1KeVy9w9uR2y+EUSe2a4yY3Vo39Bs34YGVRaYw6ND7EvB+wuqE7TStXzn7uyEGnIxlnYJ3mfgStxtlVtBbOrMwYHn7rs2gdckPv+ocif73wNJUv1BbZo9X9WSlLlNTy2dorodgUOr0wpO65FBjno+C/XTon9SsqTm93/OQjEAAAAAANwgCBsBdIqFPy3SPyU364P/XKA1b5ulAAAAAACgJ2IYNYDom7ZcGcmSTu8jaAQAAAAA4AZC2Aggihbqp0VFKvqXCar5wxzN+dEWswIAAAAAAOjBGEYNdKrguRVDCjkXJAAAAAAAwPWFsBEAAAAAAABAVDCMGgAAAAAAAEBUEDYCAAAAAAAAiIoeGTaePn2aIdQAAAAAAADANdYjw0YAAAAAAAAA1x5hIwAAAAAAAICoIGwEAAAAAAAAEBU9Omx8+O4dKplVrJJZO7Smr1naQwx6RpvztmjtGLMgSoa9qpJZryrP3H6966zzGvaqfc8Va+MwsxAAAAAAAKBn69Fh45sfz1Xmriz95KQ0aUZ3Cxy/r7V5W7Q5fbJZ0H30XaVdD4xS08kiFZhl17vPivRu4yjNnbFKD5tlHWVfL8/hLGXuytLiz8wKAAAAAAAAPVuPDhu93vx4jzyK0YBuFTZ2d4u0ccb9ij1XpFkfv2UW9gBvafneInn63q8fT1pkFnbIw8NTFNv4nn5HyAgAAAAAAG5QN0TY6BXvmm5uQhgP3z1Tbp3Sjnc3m0U9yGYtPnxKGj4nKkOeR7tizE0AAAAAAAA3lJsSExO/NjdGKjk5WVVVVWppaTGLuplF2jhrjuJPvnjVvfTS0zdqydg+vueXj7+mRQcOOWpM1rM5TyjV0YvSWcd8vant/V1W2c7FevGC/XTQM9o8+17V7F+oj+7YouwEe3vjUW0ofEkHvC9rl0iuV66ydi7Tff28zxv0/rp7VVzirxGff1S5k2v0x4zfKt5Zt/6gNs2er2pJ0jo9tm+e4g6t1SvnvqeVc92+15fvSNYbG31PfXWTfM/NY9pturBdq3eM0FNLpyjOLqk7tFavrNjke6XfdK2Z8awm6T39ZO/zetMsboe8ScWa67r6/QAAAAAAAFyvbqiejVdnsp7N2aIlY6WynQuVU2A9fqksPTvIX2t+9gKpxF+es79CfcY+4Zub8cCBxXZZscrtcNFXt2BhYNA46BltzntCqTqqDb46W6VJzyjdX0uSlDR1i7JV7N9333v1g47OBzksVW4168S5cEHjOj22zw71MpK1OiNZmw5J9y09qqxMs65bj+xbJveJtXbd7SrvN0W5BesCasVNXqaVc6U/+vbXoKS5jv0tLtFKO5QMPOZpPbY4YFeSe55WLh0rzzqr3uodHsVNXhZcT5L0lvZVNkt9U5TBMHsAAAAAAICrcoOEjad0sdHc1k5jspTa1+hVKOnAgecDnm/bHViuk8Uqa5T6JE4OCgjbMn/SveoT1EPxkF7cHaLHYmWxcnb/xn7yG31U2bFjSlJewiip8YT2hblm8flZSpJHf8xb6ttWveJVvV/v0n1zA0NE2T0U/b0Kl+q4R9KgEYp3Vqo/qE0ZmSq1n1a/fVx1cmmgW1aPxUy35Nke0DvROqaUlLktcF/y6I8Zjh6PG4+oXFLc8NyAWl5vnjuhJub0BAAAAAAAuGo3SNj4ls40SLFj5ijPLIrQ/DsSpcZPdMAZJEbkkM7Vm9si8X3dkyBdrjgUHCyGUP6pN2i8WtM10iWp4UyYocC5SktxSZ4jvmDQsknVF0KEiGpQrSdgg0rzkrXaN4zaduFs4POS+Xolwx5GnflNuftJdRdOOWtI2qTSEw1Sv8Ea6txcX6Mq53Mt1RsZzsDT0HhG1Vc9p+cipQ6XmirfCnPdAAAAAAAAer4bJGyUCt7NUubei5o5q1gls15tZ+g4WcP7Sar/rO3gb9Az2py3RYWOh28exfYYNEyDJdVcdM7f2B2M0sB+9lDlfacDHo/4p1vsFHXnwoSFGqz4oOHb18oibZxVrJJZqSrbldXKHJcAAAAAAAA93w0TNuZNKlbJA9Iru7KUuetJFZgVWmX3Tuw3rPVhyfZiLX0qvXMnWo/dlWbFCFz4TDWSBg/o4LyLneaUauslefzzNQY8zB6L10SNqh0L01xbm7V4V5Yyd5UpdVaxdt19Nb0jAQAAAAAArm83SNh49UNcy+suS31HK92xGIwp/c7R6qPLKns3kiHNFaprlPrEJZoFNru8g/Mudpw15FyukXrYLJJaGS7diUr+V556KSnVnA8y3JDuduo7UvGSqhuuplfiZpWdk2ITpoe5bgAAAAAAAD3fDRI2Xr0DB95WufoodfYqzXdsT09f5VuN+sDFC5L66M47vb0RrRWsQw+jtntLJkwLWM3a75BeLK2Q+t6rJdnfd2yfrGezg1ejjqaCylOtrs5cuuOg6kKsKN15Nqm4xCO55wWsKB2f/6Tu69eg93f4F6rpiIeHpyhWzVe/iBAAAAAAAMANjrAxYr/RsoLXVNaYqGzHfIw/ULF/9emTz2vD8cvqM/YJu/wJxZWGH0a9bfdrKmvso9TZ/v1tTncMmz75vHJ2HtXlhCzHHJALpHdDrEYdTZ+VyaMYpQwPMyS4ZL5eydiu8hDzNjrDwKjamKnVOzxKmus/Vu7kmsBVpztkujISYqRze7ScsBEAAAAAAOCq3JSYmPi1uTFSycnJqqqqUktLi1nUzSzSxllzFH/yRRbwiNDDd+/Qj8dI7+6d27NDuGGvquSB+KicZ96kYs11vaef7H2+w8P1AQAAAAAArmf0bERIb368Rx7FaNIDq3rwHISLtPGBUVHr1fhJQ7O5CQAAAAAA4IZyQ4SND989U24168Q5ejVGbrMW731PTX3v148nLTILe4DpWjNjjtyN7+kn7242CzvkzYZqqe/9+u4wswQAAAAAAODG0KPDxofv3qGSWcX68ZgYeQ5f/TDZG07j85p1+JQ0PFV5Ztn1btgcTep7SjuiOeT5syeVefiU3A8Uq2RWsTYSOgIAAAAAgBvMDTJnIwAAAAAAAIDO1qN7NgIAAAAAAAC4dnpk2JicnKzevXubmwEAAAAAAAB0oh4ZNgIAAAAAAAC49ggbAQAAAAAAAEQFYSMAAAAAAACAqOiRq1F313ah87nmF2vMHf7n53dnqfwDZw1Jmq4hTz2rpDjv82aVb56r81WBtTrd0CGa9oNENf33uzpSZhY6pCYq+x9j9OdfnpAn6m10aeKyuxX7/lG9/T9fmoXXn9REZf/jEMeG8zqytkLVji3XTKTvbxeI/VaKpt3X3HXXpk23yr3kXt3VT6q+VtfPfr9iu/KeMcQ/OkkTk/3PW70WHWl/p3629CDez5X6Cr294byazPJOFv/oJE0c0DXHBgAAADqCno09xPzsLSrMeUbpZsENpmFblg6vztLhze+18kvZWzr/il1v9ymz8JqJHXe7Yusr9Odw4YEtfswQ6XQlYUBb7ECg6f2j2r32XfsRYehynYj9VoqylyUq3ixAj1T9a/s+/mVFK59nAAAAANC9EDYCXcKlu+6LVdMnda2HCEOH6K5kqfpkg1nSutREZS+b1MojRe6h5ouub/Fjhkg6rz/3hB6aN7wv5dlgBW1he/JFW9V5vX09B9TXe/u7s7IKK/SlZyEAAAAQEcJGoCuk9le8mnTuw9aDsdhxtytW53WuvYGL95fjte9q99qj+nO9pNMfO7b10GGT9S2EAQAAAAAAdCHmbOwKY1apcOogle1crHOTtig7wVtQod0Fz2tbUN1E//PKYuXs/o3170HPaPPse9XHXxqo8ag2FL6kA/Yw6+x+/ueS//U1+xdq2UlJmqxnc55Qan2xct4dFrDvy8df06IDhyRJ6ekbtSTxE20o/EzZeVlKClEnYkNX6Z5FKardPFdfPOyYb7HuPZW98ry8UdytM3co9f5qnVz9pPx9/BYpaeUcxbz3oj7a85Zvq+Td7/1qDjlno8OEV/VAdnzrczY+/lMVfTtZze//XAt+8ieztAPs+egufqzdv26tx2K05lNs7Xj+YxzRKE27L9beHnreN2uuP28dqalDbXO0539vs+eZswTvzz93n10j7Pxyrc9r5riWNfEB8zoGz4MX2THNa6HTxvV1zNl4boxj7r12z/tmtT380GnzvTLrB7c/1JyNvvkBjfaZ52m+R7HfStG00Z/r7Q1f6C7Hcc16kYns2kvOOQq9zOsQIXM/Yd6f+EcnaaKC71n//WO3XSFebx9DzmtiHjeCcw05/6e5nzDtl0LUlVo/bqvaus/a83MeKfOYge+57141fhbN7RHfs+YcsObPuHRtPlvUxvsKAAAAdDM3x8XFvWBujFT//v3V1NSkr776yizqUt21XT6DpmtO4iDFj5mlOxuKlfPrfBUdOa9Rd83Q1HF3qPrDQzprh3rr749R2c5Femb//1XRkd6a+HCW/j/xvVX0yXHp8iH915H/q6Ij/1e942fpzpuOasPrz+nn9rYiez+SNP7OWbqz93m959immMn6pzHxaq74v9pXK0kjlD7uPsUPGq05Y1z6yHvcyxP0/ftnaOJlq97IkY9o0ogRmnTfcJWHqROxvtM1eEKSBk/4Z93meVGl/998ndt/m77x/5oh94jbdO5DKym8xf09xQ9vUu3+//YFkNIExU1LUa/PDuiCp9yxU+9+h+uvn2xTXWu/RA/9RyXcGau6D36r5jC/xS385zzd1V/qFdtLVb//k86YFdpr6ECN+z9xunjoU1W1loykxmvCaOn0/69aF8O0LTK3aMCkeA38olafHDd/wb9Vwx4aqAHD4pUUU6W3X/qLPvpTrb4eP0rj3I0B9eMfnaTJ91zSkbUnVPqnc/rE85WSsu9S0m21qjj1t4C9ts5uT/xA3Zl2i07/skyHi8/pk8ZbNHbaKLkaz9nXxaWJy8Yqqepj7d74qT750zlV3TZIE7MH6WvPBV1ssn4pz5yXrDsfGq5h/SX1jlPSQ8N1p/0Y5mub/zzvHN3sO4eq2/pp7DT//iI5pnxhgPRnb9v/dE5Vw0ZpXN8L/ve0b6yS0uI0YPRwDavz7q9Rrkx3O6/Zl6r6k32M2/opaZjjPfjTOX3yp3p/AJGaqOz/d5L0/lGVvH7G0f5kx3WVeo0apKRhf1WV/Vpv0Fj93+/q7T8064q9u0je816jBinpjsFKeqi3zoV9LyP1N118zz6vxlt05+he+rzMf919HOGd9zw/8fTWxG/frIqge7wNTc2qsK9lY8JwDbutXhXv+a+BV+y44RqWPFB3pn2pD0PeP3/Tlf79lHRHH33puFckKXZKou4cdkkfvv65/V65NHHhN/ThS3/RR75jJ2vc9H4B95mPfS9d+STE9Yyw/UpNVPb3huvif7+rt38XwTVuTUT3WaQ/5xEaOkTT/sWtXo5jNibcpYn/dIsa7fv4yqkL1jVI7u2/jkOHaHL2YPVyBIX+e3agmrzXI1S7quvtn7FafT2+7c/QaHy2BP3MtfW+AgAAAN0Qw6i70OXjr/l7KeqQDlRclvrG2T0Fv6/ssX10+fhWvXjB+4rfaNn+Cilhmp4d5N3WGSq0u2Cx/7gnT6hc0uABkwNqle9vu07EPi1y9E7crIufShowUrca1brCluOnJUnNf9mvaPRr7JYLwwT0mvlS1Z80Scn9/T2IvHNH/rej51jVeR15v0mx98W30uuuNed1xDmcu+ySqiXFDrbe9dhvJShe53XE0ZOo6X9O6c/1sbrrmy77+Qnf0PAjp+3z8A0Vfze491R9hd529IRq+vBzNSlW/ezOSJEcU5Jib4+V6j9XteO9afqfE8G9zmT2hmrQudNS7Og4o3dZNNwqd/oQ6fTHAedttV+KTx8S8pix30rxBY0B7W/ne1793+Hfy6gb0lux5jQEVef1dlCvs2hr0p9/Gf7+8T4fPs553rcqfnSsdNq6JpYGHTF6qVX/b0WI10aL/94IeY+2S3vvs9Z/ziMV/81ExdZX6IjjmNW//ljVGqK7vuXfV/Wvj1o/r7OHKFa3yj3bel2oeyPgni+rtto/xv9z3i7R+GwJ9TMHAAAAXIcIG7tQzcXAIccHDixWjncY9ZgUJemy/vIXY1hybZ0uq4/iBgZujqrGOgX2E/yNlhUsNIZIV+ijk46nV+n8yc3mpu7j9R9pzpw5URpC3ckLw3RQW+0JN3dkU02zpBjFdmSxmaD5FRt0xBcQhgpoJOlLNV2UNOC2kMFZmy5+EXhMe1EN7zDYSI/Z9HmT1C9R05aYwUqwa/UeamichveTmj43e17Z4XG/3kFt9Q7XDAoa2/2eB9frVOdb1KRY3fWDa7zQkREwB6k6rz+bYbL9vrR5H1QZ92Y0RdqGSLT3Pmv15zxSLg1PDvU59aXq66XY253B5Zfy7KxQU79ETVt2r+7q16Q/7ww1/Ni8Z4N/ztslCp8t4X7mAAAAgOsNYWM3lT5gkKQ+Sp29RYV5jkdrczSi+0vtr/gIVkyOtPfjtRJ7e6ykIZpormrtnM8sqm5Vv36Sku8OWknbN/dh1EV+zKb/OaHd/33eChy99R7tYI+oKGuqCXdvmQHhEN11X6ykJtWfd263XPv3vB2qzuvttR+rWrG66wfetiUG9bbsCtUnz0v9ble8fa3D/SzHfivFuM9am5ez+4n8PouCoXYYd9+9xjVzzn/oYPfAlaSm909dm97hrYr8swUAAADoCQgbu6kDFy9IuqyynQuVUxD8sBZ0wfXFO/zQ7N1iirD34zXU9HmTPRzSP0S5c1e2tnosBa6g7Xh0ykIJ7TymY8XvI6ftIKGbBI6hNasp4H06ryNr7SGnIXoIXvv3vL2sHnK7175rBb8aoondIXAsu6Rq33Boq0eb+bPs7FHqv6Yft/G5cL0w77MosHt9Nr1/NMS9+G7woi2pidb1PX1esffdq4mpgcXXXjs/WwAAAIDrHGFjd9XO4dLldc75HiOTfufo67uX5IRUXZM+VtOWa2tRkYp+uVwPmWXtEelQxtT+ijfno+tioYfOdqarHNLYIR0/ZvWv7cCxA69tj1bfh6o6nQs551y4IZyyhpxu8PYQDAzqWj1Wd1NWYQeO3aG9Dfrz+03WUOqhcRrez/xZtt+PEL0dO40d1gXOk2j/8aO9OnSfXa1Qw6XDcWniP9rzU/7anofxHyMJocMN1Y6GyD5bQv7M2VNqhHar3EvsHpJdHqgCAAAAfoSN3dWFl/RWpZQ0dWNEi8FYPSETNT099AItVhg5Wun2vtLTN2rJ2OsnavyyplrSKA2YYG+Y8KoeyB5l1OocD025SzGS5Jqg7zxulkbOu8BB6wGDt/fjNVoYJlJl1XYPuEh+aY+O6v+15127hr0FIzvmrXIvMa+DFVQEzdsWbd65Ch2L1fh9Kc+B81Ly3QHBQ+y3Rlnz1v1vuJC7QUd+WaEmDdFE5xyUXfCeRyr2WylB4Ur8mCGd06uuA5o+/FxN/W7XXd+8XbFBP8t28OQYaq2hQzStU4dR2wsTORb2iX/0Xt2lpg7crx29z66G/5jTHIvBBLtV7iV3OxZisedv1BBNbPVnWop/1HpdW1NcdFREny12r1j/z7dLE3+QKNWHeZfsP2BJocJfAAAAoOvclJiY+LW5MVLJycmqqqpSS0uLWdSlumu7fMasUuHURJXvb3s4dMhQsPGoNhS+pAOBW4PrGvXmZ29RdoKz7DNl52VJvnZM1rM5TyhVoffvZR3ngnZ7F7ORJH1fa/OyNPj4a8ZCMm0Yukr3LLpfzbuzVP6Bf7NrfrHGDHhPZa88L++vfrfO3KHU+2PsZ6d0cnWRbnvqWQ385EV7JetFSlo5J0xvx1M6ufpJNch/zJA9TOoCj2lZqJ8W/ZOSJTW///MOLhTj0sRldyv2/aOtL4wwdIim/SBRTSEW7Oi4W+Vecq/uuuhcFdkrdLusYZ7NOuJYXVWS4h8NMcdYwGrLkbDbI+cK2OFY7TNDmFALmsQ/OkkTB4Tbp72fiNoayTGD6zSZ722Y97L1dkYgNdGYN/F84PvUVnm499f3usD6bb3nIfcV5r5qk33NQv5sBqyYHqJdRnmkvEOaQ3G+pyHftzDvse8e72feN8HllvM6svaShgdcs+B7zM//HkXafvOYTe8f1dsfxmnaD27XuV92YFh8m/dZe37OIxTy/mjSn+32e+8J82fRd43s+zbkNQtx/wTdYw7+9zXKny0B52idW/W4FE0b/XlQ+9q+zwAAAICuQdgIRGDhT4v0T8nN+uA/F2jN22ZpBFITlf2PCgp9TLHfCvdLJQAgGkIH5AAAAACihWHUQFumLVdGsqTT+zoWNF7HC8MAAAAAAAC0Bz0bgbD8w6dP/2GOfvS6WQ4AuN7QsxEAAADoXPRsBMLaoh/NmaM5cwgaAQAAAAAAIkHYCAAAbhhN/3NCu+nVCAAAAHQawkYAAAAAAAAAUUHYCAAAAAAAACAqemTYePr0aRaHAQAAAAAAAK6xHhk2AgAAAAAAALj2CBsBAAAAAAAARAVhIwAAAAAAAICo6NFh48N371DJrGKVzNqhNX3NUgAAAAAAAADR1KPDxjc/nqvMXVn6yUlp0gwCRwAAAAAAAKAz9eiw0evNj/fIoxgNIGwEAAAAAAAAOs0NETZ6xbumm5sAAAAAAAAARMkNFTYCAAAAAAAA6DyEjQAAAAAAAACi4gYJG0/pYqO5DQAAAAAAAEA03SBh41s60yDFjpmjPLMIAAAAAAAAQFTcIGGjVPBuljL3XtTMWcUqmfUqoSMAAAAAAAAQZTdM2Jg3qVglD0iv7MpS5q4nVWBWAAAAAAAAAHBVbpCwcZFSh0tNlW/pTbMIAAAAAAAAQFTcIGEjAAAAAAAAgM5G2AgAAAAAAAAgKggbAQAAAAAAAEQFYSMAAAAAAACAqLghwsaH754pt5p14txbZhEAAAAAAACAKOnRYePDd+9Qyaxi/XhMjDyH52p5o1kDAAAAAAAAQLTclJiY+LW5MVLJycmqqqpSS0uLWQQAAAAAAADgBtOjezYCAAAAAAAAuHYIGwEAAAAAAABExVUNowYAAAAAAAAAL3o2AgAAAAAAAIgKwkYAAAAAAAAAUUHYCAAAAAAAACAqohA2fqm9eypUvqdC5Ru+NAsBAAAAAAAA3CCiuEDMl9q7p1ruU/FKWnKrWQgAAAAAAACgh4tCz0avW7X9/+kjDfpKuWYRAAAAAAAAgB4vimGjzfWV3OY2AAAAAAAAAD1e9MNGAAAAAAAAADckwkYAAAAAAAAAURHVsHHTZ73MTQAAAAAAAABuEFENG3XqFjWoTlkv/M0sAQAAAAAAANDDRTds3Bej8TMTVTyoUuV7KnSM0BEAAAAAAAC4YdyUmJj4tbmxwzKadezfa1WzM1EzfmEWAgAAAAAAAOjJotqzMfehy3IpTkcIGgEAAAAAAIAbTlTDRgAAAAAAAAA3LsJGAAAAAAAAAFFB2AgAAAAAAAAgKggbAQAAAAAAAERFFMPGLzXv/1yWTvXWc2YRAAAAAAAAgB4vCmHjl9q7p0Lle6rlbhioNUtuNSsAAAAAAAAAuAHclJiY+LW5EQAAAAAAAADaKwo9GwEAAAAAAACAsBEAAAAAAABAlBA2AgAAAAAAAIgKwkYAAAAAAAAAUUHYCAAAAAAAACAqCBsBAAAAAAAARAVhIwAAAAAAAICoIGwEAAAAAAAAEBWEjQAAAAAAAACigrARAAAAAAAAQFQQNgIAAAAAAACICsJGAAAAAAAAAFFB2AgAAAAAAAAgKggbAQAAAAAAAEQFYSMAAAAAAACAqCBsBAAAAAAAABAVhI0AAAAAAAAAooKwEQAAAAAAAEBUEDYCAAAAAAAAiArCRgAAAAAAAABRQdgIAAAAAAAAICoIGwEAAAAAAABEBWEjAAAAAAAAgKggbAQAAAAAAAAQFYSNAAAAAAAAAKKCsBEAAAAAAABAVPz/ASsOUe9YYlBIAAAAAElFTkSuQmCC;" vertex="1" parent="1">
          <mxGeometry x="-169.2017647058824" y="1227.0005307904412" width="1307" height="737" as="geometry" />
        </mxCell>
        <mxCell id="QCXLuCRlwpA0-bWrrooY-2" value="&lt;font color=&quot;#ffffff&quot; style=&quot;font-size: 18px;&quot;&gt;Gets access token from local storage&lt;/font&gt;" style="text;html=1;align=center;verticalAlign=middle;whiteSpace=wrap;rounded=0;" parent="1" vertex="1">
          <mxGeometry x="502" y="1366" width="192" height="30" as="geometry" />
        </mxCell>
        <mxCell id="QCXLuCRlwpA0-bWrrooY-5" value="&lt;font color=&quot;#ffffff&quot; style=&quot;font-size: 18px;&quot;&gt;Gets refresh token from local storage&lt;/font&gt;" style="text;html=1;align=center;verticalAlign=middle;whiteSpace=wrap;rounded=0;" parent="1" vertex="1">
          <mxGeometry x="497" y="1435" width="192" height="30" as="geometry" />
        </mxCell>
        <mxCell id="QCXLuCRlwpA0-bWrrooY-6" value="" style="endArrow=classic;html=1;rounded=0;strokeColor=#ff0000;exitX=0;exitY=0.5;exitDx=0;exitDy=0;" parent="1" edge="1" source="QCXLuCRlwpA0-bWrrooY-5">
          <mxGeometry width="50" height="50" relative="1" as="geometry">
            <mxPoint x="474" y="1432" as="sourcePoint" />
            <mxPoint x="330" y="1491" as="targetPoint" />
          </mxGeometry>
        </mxCell>
        <mxCell id="QCXLuCRlwpA0-bWrrooY-8" value="" style="endArrow=classic;html=1;rounded=0;strokeColor=#ff0000;exitX=0;exitY=0.5;exitDx=0;exitDy=0;" parent="1" edge="1" source="QCXLuCRlwpA0-bWrrooY-2">
          <mxGeometry width="50" height="50" relative="1" as="geometry">
            <mxPoint x="457" y="1351" as="sourcePoint" />
            <mxPoint x="313" y="1410" as="targetPoint" />
          </mxGeometry>
        </mxCell>
        <mxCell id="QCXLuCRlwpA0-bWrrooY-9" value="" style="endArrow=classic;html=1;rounded=0;strokeColor=#ff0000;" parent="1" edge="1">
          <mxGeometry width="50" height="50" relative="1" as="geometry">
            <mxPoint x="349" y="1284" as="sourcePoint" />
            <mxPoint x="194" y="1316" as="targetPoint" />
          </mxGeometry>
        </mxCell>
        <mxCell id="QCXLuCRlwpA0-bWrrooY-10" value="&lt;font color=&quot;#ffffff&quot; style=&quot;font-size: 18px;&quot;&gt;An instance whose properties will be modified to fit the needs of the application&lt;/font&gt;" style="text;html=1;align=center;verticalAlign=middle;whiteSpace=wrap;rounded=0;" parent="1" vertex="1">
          <mxGeometry x="352" y="1278" width="302" height="30" as="geometry" />
        </mxCell>
        <mxCell id="QCXLuCRlwpA0-bWrrooY-13" value="" style="endArrow=classic;html=1;rounded=0;strokeColor=#ff0000;" parent="1" edge="1">
          <mxGeometry width="50" height="50" relative="1" as="geometry">
            <mxPoint x="233" y="1665" as="sourcePoint" />
            <mxPoint x="65" y="1674" as="targetPoint" />
          </mxGeometry>
        </mxCell>
        <mxCell id="QCXLuCRlwpA0-bWrrooY-14" value="&lt;font color=&quot;#ffffff&quot; style=&quot;font-size: 18px;&quot;&gt;Refresh token was not successfully accessed and thus it returns null&lt;/font&gt;" style="text;html=1;align=center;verticalAlign=middle;whiteSpace=wrap;rounded=0;" parent="1" vertex="1">
          <mxGeometry x="233" y="1649" width="192" height="30" as="geometry" />
        </mxCell>
        <mxCell id="QCXLuCRlwpA0-bWrrooY-15" value="" style="endArrow=classic;html=1;rounded=0;strokeColor=#ff0000;" parent="1" edge="1">
          <mxGeometry width="50" height="50" relative="1" as="geometry">
            <mxPoint x="587" y="1703" as="sourcePoint" />
            <mxPoint x="446" y="1751" as="targetPoint" />
          </mxGeometry>
        </mxCell>
        <mxCell id="QCXLuCRlwpA0-bWrrooY-16" value="&lt;font color=&quot;#ffffff&quot;&gt;&lt;span style=&quot;font-size: 18px;&quot;&gt;Makes a request to the backend to this URL that will return a new access token if the refresh token is valid&lt;/span&gt;&lt;/font&gt;" style="text;html=1;align=center;verticalAlign=middle;whiteSpace=wrap;rounded=0;" parent="1" vertex="1">
          <mxGeometry x="589" y="1649" width="192" height="30" as="geometry" />
        </mxCell>
        <mxCell id="pSm_UvFW4RfGEMAmbR3N-2" value="" style="endArrow=classic;html=1;rounded=0;strokeColor=#ff0000;" edge="1" parent="1">
          <mxGeometry width="50" height="50" relative="1" as="geometry">
            <mxPoint x="305" y="1919" as="sourcePoint" />
            <mxPoint x="14" y="1900" as="targetPoint" />
            <Array as="points">
              <mxPoint x="78" y="1919" />
            </Array>
          </mxGeometry>
        </mxCell>
        <mxCell id="pSm_UvFW4RfGEMAmbR3N-3" value="&lt;font color=&quot;#ffffff&quot;&gt;The function returns null if the refresh token is invalid&lt;/font&gt;" style="text;html=1;align=center;verticalAlign=middle;whiteSpace=wrap;rounded=0;fontSize=18;" vertex="1" parent="1">
          <mxGeometry x="308" y="1900" width="224" height="50" as="geometry" />
        </mxCell>
        <mxCell id="pSm_UvFW4RfGEMAmbR3N-4" value="" style="endArrow=classic;html=1;rounded=0;strokeColor=#ff0000;" edge="1" parent="1">
          <mxGeometry width="50" height="50" relative="1" as="geometry">
            <mxPoint x="511.5" y="1865" as="sourcePoint" />
            <mxPoint x="219" y="1822" as="targetPoint" />
            <Array as="points">
              <mxPoint x="334.5" y="1865" />
            </Array>
          </mxGeometry>
        </mxCell>
        <mxCell id="pSm_UvFW4RfGEMAmbR3N-5" value="&lt;font color=&quot;#ffffff&quot;&gt;Updates the access token in the local storage on a successful refresh request&lt;/font&gt;" style="text;html=1;align=center;verticalAlign=middle;whiteSpace=wrap;rounded=0;fontSize=18;" vertex="1" parent="1">
          <mxGeometry x="486" y="1817" width="238" height="94" as="geometry" />
        </mxCell>
      </root>
    </mxGraphModel>
  </diagram>
  <diagram id="pkVLcE-hqL57277Phpo3" name="Flowchart">
    <mxGraphModel dx="2623" dy="1092" grid="1" gridSize="10" guides="1" tooltips="1" connect="1" arrows="1" fold="1" page="1" pageScale="1" pageWidth="850" pageHeight="1100" math="0" shadow="0">
      <root>
        <mxCell id="0" />
        <mxCell id="1" parent="0" />
        <mxCell id="hsMBjY2XapcpOKHtwwLl-1" value="getAccessToken" style="ellipse;whiteSpace=wrap;html=1;fontSize=13;" vertex="1" parent="1">
          <mxGeometry x="60" y="40" width="110" height="60" as="geometry" />
        </mxCell>
        <mxCell id="hsMBjY2XapcpOKHtwwLl-2" value="getRefreshToken" style="ellipse;whiteSpace=wrap;html=1;fontSize=13;" vertex="1" parent="1">
          <mxGeometry x="320" y="40" width="110" height="65" as="geometry" />
        </mxCell>
        <mxCell id="hsMBjY2XapcpOKHtwwLl-6" style="edgeStyle=orthogonalEdgeStyle;rounded=0;orthogonalLoop=1;jettySize=auto;html=1;entryX=0;entryY=0.5;entryDx=0;entryDy=0;fontSize=13;" edge="1" parent="1" source="hsMBjY2XapcpOKHtwwLl-3" target="hsMBjY2XapcpOKHtwwLl-5">
          <mxGeometry relative="1" as="geometry" />
        </mxCell>
        <mxCell id="hsMBjY2XapcpOKHtwwLl-3" value="&lt;div&gt;&lt;br&gt;&lt;/div&gt;&lt;div&gt;&amp;nbsp; &amp;nbsp; &amp;nbsp;access_token&lt;/div&gt;" style="shape=internalStorage;whiteSpace=wrap;html=1;backgroundOutline=1;fontSize=13;" vertex="1" parent="1">
          <mxGeometry x="-80" y="150" width="110" height="50" as="geometry" />
        </mxCell>
        <mxCell id="hsMBjY2XapcpOKHtwwLl-4" value="" style="endArrow=classic;html=1;rounded=0;fontSize=13;entryX=0.5;entryY=0;entryDx=0;entryDy=0;" edge="1" parent="1" target="hsMBjY2XapcpOKHtwwLl-5">
          <mxGeometry width="50" height="50" relative="1" as="geometry">
            <mxPoint x="110" y="100" as="sourcePoint" />
            <mxPoint x="110" y="140" as="targetPoint" />
          </mxGeometry>
        </mxCell>
        <mxCell id="hsMBjY2XapcpOKHtwwLl-5" value="Get Access&lt;div&gt;Token&lt;/div&gt;" style="shape=parallelogram;perimeter=parallelogramPerimeter;whiteSpace=wrap;html=1;fixedSize=1;fontSize=13;" vertex="1" parent="1">
          <mxGeometry x="55" y="150" width="110" height="50" as="geometry" />
        </mxCell>
        <mxCell id="hsMBjY2XapcpOKHtwwLl-8" value="return access_token" style="ellipse;whiteSpace=wrap;html=1;fontSize=13;" vertex="1" parent="1">
          <mxGeometry x="50" y="260" width="100" height="60" as="geometry" />
        </mxCell>
        <mxCell id="hsMBjY2XapcpOKHtwwLl-9" style="edgeStyle=orthogonalEdgeStyle;rounded=0;orthogonalLoop=1;jettySize=auto;html=1;entryX=0;entryY=0.5;entryDx=0;entryDy=0;fontSize=13;" edge="1" parent="1" source="hsMBjY2XapcpOKHtwwLl-10" target="hsMBjY2XapcpOKHtwwLl-13">
          <mxGeometry relative="1" as="geometry" />
        </mxCell>
        <mxCell id="hsMBjY2XapcpOKHtwwLl-10" value="&lt;div&gt;&lt;br&gt;&lt;/div&gt;&lt;div&gt;&amp;nbsp; &amp;nbsp; &amp;nbsp; refresh_token&lt;/div&gt;" style="shape=internalStorage;whiteSpace=wrap;html=1;backgroundOutline=1;fontSize=13;" vertex="1" parent="1">
          <mxGeometry x="180" y="155" width="110" height="50" as="geometry" />
        </mxCell>
        <mxCell id="hsMBjY2XapcpOKHtwwLl-11" value="" style="endArrow=classic;html=1;rounded=0;fontSize=13;entryX=0.5;entryY=0;entryDx=0;entryDy=0;" edge="1" parent="1" target="hsMBjY2XapcpOKHtwwLl-13">
          <mxGeometry width="50" height="50" relative="1" as="geometry">
            <mxPoint x="370" y="105" as="sourcePoint" />
            <mxPoint x="370" y="145" as="targetPoint" />
          </mxGeometry>
        </mxCell>
        <mxCell id="hsMBjY2XapcpOKHtwwLl-12" style="edgeStyle=orthogonalEdgeStyle;rounded=0;orthogonalLoop=1;jettySize=auto;html=1;fontSize=13;entryX=0.5;entryY=0;entryDx=0;entryDy=0;entryPerimeter=0;" edge="1" parent="1" source="hsMBjY2XapcpOKHtwwLl-13" target="hsMBjY2XapcpOKHtwwLl-14">
          <mxGeometry relative="1" as="geometry">
            <mxPoint x="370" y="235" as="targetPoint" />
          </mxGeometry>
        </mxCell>
        <mxCell id="hsMBjY2XapcpOKHtwwLl-13" value="Get Refresh&lt;div&gt;Token&lt;/div&gt;" style="shape=parallelogram;perimeter=parallelogramPerimeter;whiteSpace=wrap;html=1;fixedSize=1;fontSize=13;" vertex="1" parent="1">
          <mxGeometry x="315" y="155" width="110" height="50" as="geometry" />
        </mxCell>
        <mxCell id="hsMBjY2XapcpOKHtwwLl-14" value="return&amp;nbsp; refresh_token" style="ellipse;whiteSpace=wrap;html=1;fontSize=13;" vertex="1" parent="1">
          <mxGeometry x="320" y="260" width="100" height="60" as="geometry" />
        </mxCell>
        <mxCell id="hsMBjY2XapcpOKHtwwLl-18" style="edgeStyle=orthogonalEdgeStyle;rounded=0;orthogonalLoop=1;jettySize=auto;html=1;entryX=0.5;entryY=0;entryDx=0;entryDy=0;" edge="1" parent="1" source="hsMBjY2XapcpOKHtwwLl-15" target="hsMBjY2XapcpOKHtwwLl-17">
          <mxGeometry relative="1" as="geometry" />
        </mxCell>
        <mxCell id="hsMBjY2XapcpOKHtwwLl-15" value="refreshAccessToken" style="ellipse;whiteSpace=wrap;html=1;fontSize=13;" vertex="1" parent="1">
          <mxGeometry x="487" y="40" width="130" height="65" as="geometry" />
        </mxCell>
        <mxCell id="hsMBjY2XapcpOKHtwwLl-16" value="" style="endArrow=classic;html=1;rounded=0;" edge="1" parent="1">
          <mxGeometry width="50" height="50" relative="1" as="geometry">
            <mxPoint x="100" y="200" as="sourcePoint" />
            <mxPoint x="100" y="260" as="targetPoint" />
          </mxGeometry>
        </mxCell>
        <mxCell id="hsMBjY2XapcpOKHtwwLl-20" style="edgeStyle=orthogonalEdgeStyle;rounded=0;orthogonalLoop=1;jettySize=auto;html=1;entryX=0.5;entryY=0;entryDx=0;entryDy=0;" edge="1" parent="1" source="hsMBjY2XapcpOKHtwwLl-17" target="hsMBjY2XapcpOKHtwwLl-19">
          <mxGeometry relative="1" as="geometry" />
        </mxCell>
        <mxCell id="hsMBjY2XapcpOKHtwwLl-17" value="refresh_token = getRefreshToken()" style="rounded=0;whiteSpace=wrap;html=1;" vertex="1" parent="1">
          <mxGeometry x="492" y="160" width="120" height="60" as="geometry" />
        </mxCell>
        <mxCell id="hsMBjY2XapcpOKHtwwLl-21" style="edgeStyle=orthogonalEdgeStyle;rounded=0;orthogonalLoop=1;jettySize=auto;html=1;" edge="1" parent="1" source="hsMBjY2XapcpOKHtwwLl-19">
          <mxGeometry relative="1" as="geometry">
            <mxPoint x="667" y="335" as="targetPoint" />
          </mxGeometry>
        </mxCell>
        <mxCell id="hsMBjY2XapcpOKHtwwLl-24" style="edgeStyle=orthogonalEdgeStyle;rounded=0;orthogonalLoop=1;jettySize=auto;html=1;" edge="1" parent="1" source="hsMBjY2XapcpOKHtwwLl-19">
          <mxGeometry relative="1" as="geometry">
            <mxPoint x="552" y="450" as="targetPoint" />
          </mxGeometry>
        </mxCell>
        <mxCell id="hsMBjY2XapcpOKHtwwLl-19" value="Was the refresh&lt;div&gt;token successfully&lt;/div&gt;&lt;div&gt;accessed?&lt;/div&gt;" style="rhombus;whiteSpace=wrap;html=1;" vertex="1" parent="1">
          <mxGeometry x="483.25" y="280" width="137.5" height="110" as="geometry" />
        </mxCell>
        <mxCell id="hsMBjY2XapcpOKHtwwLl-22" value="No" style="text;html=1;align=center;verticalAlign=middle;resizable=0;points=[];autosize=1;strokeColor=none;fillColor=none;" vertex="1" parent="1">
          <mxGeometry x="617" y="308" width="40" height="30" as="geometry" />
        </mxCell>
        <mxCell id="hsMBjY2XapcpOKHtwwLl-23" value="return null" style="ellipse;whiteSpace=wrap;html=1;fontSize=13;" vertex="1" parent="1">
          <mxGeometry x="667" y="305" width="100" height="60" as="geometry" />
        </mxCell>
        <mxCell id="hsMBjY2XapcpOKHtwwLl-26" style="edgeStyle=orthogonalEdgeStyle;rounded=0;orthogonalLoop=1;jettySize=auto;html=1;" edge="1" parent="1" source="hsMBjY2XapcpOKHtwwLl-25">
          <mxGeometry relative="1" as="geometry">
            <mxPoint x="552" y="560" as="targetPoint" />
          </mxGeometry>
        </mxCell>
        <mxCell id="hsMBjY2XapcpOKHtwwLl-25" value="Make request to&amp;nbsp;&lt;div&gt;api endpoint that&lt;/div&gt;&lt;div&gt;returns a new access&lt;/div&gt;&lt;div&gt;token&lt;/div&gt;" style="shape=parallelogram;perimeter=parallelogramPerimeter;whiteSpace=wrap;html=1;fixedSize=1;" vertex="1" parent="1">
          <mxGeometry x="480" y="450" width="144" height="70" as="geometry" />
        </mxCell>
        <mxCell id="hsMBjY2XapcpOKHtwwLl-28" style="edgeStyle=orthogonalEdgeStyle;rounded=0;orthogonalLoop=1;jettySize=auto;html=1;" edge="1" parent="1" source="hsMBjY2XapcpOKHtwwLl-27">
          <mxGeometry relative="1" as="geometry">
            <mxPoint x="677" y="610" as="targetPoint" />
          </mxGeometry>
        </mxCell>
        <mxCell id="hsMBjY2XapcpOKHtwwLl-32" style="edgeStyle=orthogonalEdgeStyle;rounded=0;orthogonalLoop=1;jettySize=auto;html=1;entryX=0.5;entryY=0;entryDx=0;entryDy=0;" edge="1" parent="1" source="hsMBjY2XapcpOKHtwwLl-27" target="hsMBjY2XapcpOKHtwwLl-31">
          <mxGeometry relative="1" as="geometry" />
        </mxCell>
        <mxCell id="hsMBjY2XapcpOKHtwwLl-27" value="Was the request&lt;div&gt;successful?&lt;/div&gt;" style="rhombus;whiteSpace=wrap;html=1;" vertex="1" parent="1">
          <mxGeometry x="480.25" y="560" width="143.75" height="100" as="geometry" />
        </mxCell>
        <mxCell id="hsMBjY2XapcpOKHtwwLl-29" value="No&lt;div&gt;&lt;br&gt;&lt;/div&gt;" style="text;html=1;align=center;verticalAlign=middle;resizable=0;points=[];autosize=1;strokeColor=none;fillColor=none;" vertex="1" parent="1">
          <mxGeometry x="627" y="583" width="40" height="40" as="geometry" />
        </mxCell>
        <mxCell id="hsMBjY2XapcpOKHtwwLl-30" value="return null" style="ellipse;whiteSpace=wrap;html=1;fontSize=13;" vertex="1" parent="1">
          <mxGeometry x="677" y="580" width="100" height="60" as="geometry" />
        </mxCell>
        <mxCell id="hsMBjY2XapcpOKHtwwLl-31" value="return new access token that is in the response data" style="ellipse;whiteSpace=wrap;html=1;fontSize=13;" vertex="1" parent="1">
          <mxGeometry x="490.97" y="700" width="122.31" height="80" as="geometry" />
        </mxCell>
        <mxCell id="hsMBjY2XapcpOKHtwwLl-33" value="Yes" style="text;html=1;align=center;verticalAlign=middle;resizable=0;points=[];autosize=1;strokeColor=none;fillColor=none;" vertex="1" parent="1">
          <mxGeometry x="547" y="658" width="40" height="30" as="geometry" />
        </mxCell>
      </root>
    </mxGraphModel>
  </diagram>
</mxfile>
